<svg width="105" height="106" viewBox="0 0 105 106" fill="none" xmlns="http://www.w3.org/2000/svg">
<path d="M89.7357 20.5304H76.685V14.0051C78.487 14.0051 79.9477 12.5444 79.9477 10.7424C79.9477 8.94043 78.487 7.47974 76.685 7.47974H27.745C25.943 7.47974 24.4823 8.94043 24.4823 10.7424C24.4823 12.5444 25.943 14.0051 27.745 14.0051V20.5304H14.6943C12.8998 20.5304 11.4316 21.9986 11.4316 23.7931V27.0557C11.4316 38.5567 19.262 48.5894 30.4204 51.3789L31.6112 51.6726H31.6276C35.1018 57.1043 40.6803 61.0679 47.2207 62.4387C46.9094 67.1078 45.8174 71.6923 43.9755 75.9958H35.9017C34.1072 75.9958 32.639 77.464 32.639 79.2584V92.3091C30.837 92.3091 29.3763 93.7698 29.3763 95.5718V98.8345H75.0537V95.5718C75.0537 93.7698 73.593 92.3091 71.791 92.3091V79.2584C71.791 77.464 70.3228 75.9958 68.5283 75.9958H60.4545C58.6128 71.6923 57.5206 67.1078 57.2093 62.4387C63.7497 61.0679 69.3282 57.1043 72.8024 51.6726H72.8187L74.0096 51.3789C85.1679 48.5894 92.9983 38.5567 92.9983 27.0557V23.7931C92.9983 21.9986 91.5301 20.5304 89.7357 20.5304ZM60.3717 84.1524C60.3717 85.0497 59.6376 85.7838 58.7403 85.7838H45.6897C44.7924 85.7838 44.0583 85.0497 44.0583 84.1524C44.0583 83.2552 44.7924 82.5211 45.6897 82.5211H58.7403C59.6376 82.5211 60.3717 83.2552 60.3717 84.1524ZM17.957 27.0557H27.745V38.4751C27.745 40.2696 27.9407 41.9988 28.2996 43.679C22.0679 40.6284 17.957 34.2336 17.957 27.0557ZM58.2672 44.5273L52.215 41.3462L46.1627 44.5273L47.321 37.7899L42.427 33.0101L49.197 32.0313L52.215 25.8975L55.233 32.0313L62.003 33.0101L57.109 37.7899L58.2672 44.5273ZM76.1304 43.679C76.4892 41.9988 76.685 40.2696 76.685 38.4751V27.0557H86.473C86.473 34.2336 82.3621 40.6284 76.1304 43.679Z" fill="white"/>
</svg>
