<svg width="85" height="84" viewBox="0 0 85 84" fill="none" xmlns="http://www.w3.org/2000/svg">
<path d="M12.3214 0.844323L43.1801 36.1477C42.9713 36.1328 42.7476 36.1328 42.5239 36.1328C40.2585 36.1328 38.0254 36.4449 35.8701 37.0293L6.70015 4.21328L10.1438 0.769749C10.4421 0.486367 10.8448 0.30739 11.2475 0.33722C11.6651 0.352134 12.0529 0.531112 12.3214 0.844323ZM1.19495 9.71863C0.643099 10.2705 0.61327 11.1654 1.13529 11.762L27.0125 41.4424C27.5643 41.0099 28.146 40.5923 28.7426 40.2045C30.0356 39.3628 31.4012 38.6625 32.8109 38.077L4.58762 6.32596L1.19495 9.71863ZM74.9039 0.769749C74.6056 0.486367 74.2029 0.322305 73.7853 0.33722C73.3826 0.352134 72.9799 0.546027 72.7114 0.859238L62.4351 12.7762L44.433 33.0603L45.8051 34.6264L47.4458 36.61C48.3696 36.7896 49.2712 37.0361 50.1608 37.3173L78.3546 4.22044L74.9039 0.769749ZM83.8528 9.71863L80.4713 6.33715L53.0989 38.47C54.1849 38.9728 55.2508 39.529 56.2753 40.1896C56.8719 40.5774 57.4536 40.9801 58.0204 41.4275L83.9125 11.762C84.4345 11.1654 84.4046 10.2854 83.8528 9.71863ZM64.0773 6.30314L69.2229 0.33722H15.8419L21.0558 6.30314H64.0773ZM56.2486 15.252L60.206 10.7915L61.5045 9.2861H23.6629L28.8768 15.252H56.2486ZM52.9642 61.4879C52.9642 67.2449 48.2801 71.9283 42.5239 71.9283C36.7677 71.9283 32.0835 67.2449 32.0835 61.4879C32.0835 55.731 36.7677 51.0476 42.5239 51.0476C48.2801 51.0476 52.9642 55.731 52.9642 61.4879ZM54.6568 42.6981C51.7903 40.836 48.6209 39.6846 45.2448 39.2768C44.3824 39.1682 43.4924 39.1157 42.5239 39.1157C38.1965 39.1157 33.9901 40.3589 30.3604 42.7118C23.9678 46.8637 20.1517 53.8827 20.1517 61.4879C20.1517 73.824 30.1871 83.8601 42.5239 83.8601C54.8607 83.8601 64.8961 73.824 64.8961 61.4879C64.8961 53.8572 61.0669 46.8316 54.6568 42.6981ZM42.5239 74.9112C35.1218 74.9112 29.1005 68.8892 29.1005 61.4879C29.1005 54.0866 35.1218 48.0646 42.5239 48.0646C49.9259 48.0646 55.9472 54.0866 55.9472 61.4879C55.9472 68.8892 49.9259 74.9112 42.5239 74.9112Z" fill="white"/>
<path d="M37.0741 66.4118C37.5474 66.0359 37.7632 65.8619 37.7214 65.8897C39.0857 64.7621 40.1576 63.8364 40.9371 63.1125C41.7306 62.3887 42.3988 61.63 42.9417 60.8365C43.4846 60.043 43.7561 59.2704 43.7561 58.5187C43.7561 57.948 43.6238 57.5025 43.3593 57.1823C43.0948 56.8621 42.6981 56.7021 42.1691 56.7021C41.6401 56.7021 41.2225 56.9039 40.9162 57.3076C40.6239 57.6974 40.4777 58.2542 40.4777 58.9781H37.0324C37.0602 57.7948 37.3108 56.8065 37.7841 56.013C38.2713 55.2195 38.9047 54.6348 39.6843 54.259C40.4777 53.8831 41.3547 53.6952 42.3153 53.6952C43.9718 53.6952 45.2177 54.1198 46.053 54.9689C46.9022 55.8181 47.3267 56.9248 47.3267 58.289C47.3267 59.7785 46.8186 61.1636 45.8024 62.4443C44.7862 63.7111 43.4916 64.9501 41.9185 66.1612H47.5564V69.0637H37.0741V66.4118Z" fill="url(#paint0_linear_682_4460)"/>
<defs>
<linearGradient id="paint0_linear_682_4460" x1="36.2598" y1="61.7725" x2="48.2598" y2="61.7725" gradientUnits="userSpaceOnUse">
<stop stop-color="#0BBA72"/>
<stop offset="1" stop-color="#16A79E"/>
</linearGradient>
</defs>
</svg>
