<svg width="84" height="84" viewBox="0 0 84 84" fill="none" xmlns="http://www.w3.org/2000/svg">
<path d="M11.7062 0.664147L42.5649 35.9675C42.3561 35.9526 42.1324 35.9526 41.9086 35.9526C39.6432 35.9526 37.4102 36.2647 35.2548 36.8491L6.08492 4.0331L9.5286 0.589573C9.82689 0.306192 10.2296 0.127214 10.6323 0.157044C11.0499 0.171959 11.4377 0.350936 11.7062 0.664147ZM0.579713 9.53846C0.0278648 10.0903 -0.00196478 10.9852 0.520053 11.5818L26.3972 41.2622C26.9491 40.8297 27.5308 40.4121 28.1274 40.0243C29.4203 39.1827 30.7859 38.4823 32.1957 37.8969L3.97238 6.14579L0.579713 9.53846ZM74.2887 0.589573C73.9904 0.306192 73.5877 0.142129 73.1701 0.157044C72.7674 0.171959 72.3647 0.365851 72.0962 0.679062L61.8199 12.596L43.8177 32.8801L45.1899 34.4462L46.8305 36.4298C47.7543 36.6094 48.6559 36.856 49.5456 37.1371L77.7394 4.04026L74.2887 0.589573ZM83.2376 9.53846L79.8561 6.15697L52.4837 38.2899C53.5696 38.7927 54.6356 39.3488 55.6601 40.0094C56.2567 40.3972 56.8384 40.7999 57.4051 41.2473L83.2972 11.5818C83.8192 10.9852 83.7894 10.1052 83.2376 9.53846ZM63.462 6.12297L68.6076 0.157044H15.2266L20.4406 6.12297H63.462ZM55.6334 15.0718L59.5907 10.6113L60.8892 9.10593H23.0477L28.2616 15.0718H55.6334ZM52.349 61.3077C52.349 67.0647 47.6649 71.7481 41.9086 71.7481C36.1524 71.7481 31.4683 67.0647 31.4683 61.3077C31.4683 55.5508 36.1524 50.8674 41.9086 50.8674C47.6649 50.8674 52.349 55.5508 52.349 61.3077ZM54.0415 42.5179C51.1751 40.6558 48.0057 39.5044 44.6295 39.0966C43.7672 38.988 42.8772 38.9355 41.9086 38.9355C37.5813 38.9355 33.3748 40.1787 29.7452 42.5316C23.3525 46.6835 19.5364 53.7025 19.5364 61.3077C19.5364 73.6438 29.5719 83.68 41.9086 83.68C54.2454 83.68 64.2808 73.6438 64.2808 61.3077C64.2808 53.677 60.4516 46.6514 54.0415 42.5179ZM41.9086 74.7311C34.5066 74.7311 28.4853 68.7091 28.4853 61.3077C28.4853 53.9064 34.5066 47.8844 41.9086 47.8844C49.3107 47.8844 55.332 53.9064 55.332 61.3077C55.332 68.7091 49.3107 74.7311 41.9086 74.7311Z" fill="white"/>
<path d="M36.7095 58.1506C36.7651 56.6611 37.2524 55.5126 38.1711 54.7052C39.0899 53.8978 40.3358 53.4941 41.9089 53.4941C42.9529 53.4941 43.8438 53.6751 44.5816 54.037C45.3334 54.399 45.8971 54.8932 46.273 55.5196C46.6628 56.146 46.8577 56.849 46.8577 57.6286C46.8577 58.5473 46.628 59.2991 46.1686 59.8837C45.7092 60.4545 45.1733 60.8443 44.5608 61.0531V61.1366C45.3542 61.4011 45.9807 61.8396 46.44 62.4521C46.8994 63.0646 47.1291 63.8511 47.1291 64.8117C47.1291 65.6747 46.9273 66.4404 46.5236 67.1086C46.1338 67.7629 45.5561 68.2779 44.7904 68.6538C44.0387 69.0296 43.1408 69.2176 42.0968 69.2176C40.4263 69.2176 39.0899 68.8069 38.0876 67.9856C37.0992 67.1643 36.5772 65.9253 36.5215 64.2688H39.9878C40.0017 64.8813 40.1757 65.3685 40.5098 65.7304C40.8439 66.0784 41.3311 66.2525 41.9715 66.2525C42.5144 66.2525 42.932 66.0993 43.2244 65.7931C43.5306 65.4729 43.6837 65.0553 43.6837 64.5402C43.6837 63.872 43.468 63.3918 43.0364 63.0994C42.6188 62.7932 41.9437 62.64 41.011 62.64H40.3428V59.7376H41.011C41.7209 59.7376 42.2917 59.6192 42.7232 59.3826C43.1687 59.132 43.3914 58.6935 43.3914 58.0671C43.3914 57.5659 43.2522 57.1762 42.9738 56.8977C42.6954 56.6193 42.3126 56.4801 41.8253 56.4801C41.2963 56.4801 40.8996 56.6402 40.6351 56.9604C40.3845 57.2806 40.2384 57.6773 40.1966 58.1506H36.7095Z" fill="url(#paint0_linear_682_4442)"/>
<defs>
<linearGradient id="paint0_linear_682_4442" x1="35.6445" y1="61.5923" x2="48.6445" y2="61.5923" gradientUnits="userSpaceOnUse">
<stop stop-color="#0BBA72"/>
<stop offset="1" stop-color="#16A79E"/>
</linearGradient>
</defs>
</svg>
