<svg width="71" height="71" viewBox="0 0 71 71" fill="none" xmlns="http://www.w3.org/2000/svg">
<circle cx="35.0186" cy="35.0186" r="35.0186" fill="#2DAD82"/>
<path d="M40.068 29.9625L39.9615 30.5646L39.0279 28.6973C37.5927 25.8269 33.4924 25.8274 32.0574 28.6973L30.2012 32.4096L32.5246 33.5714L34.3808 29.8589C34.8602 28.9004 36.2242 28.8987 36.7044 29.8589L37.8548 32.1598L36.6907 32.0619L36.4732 34.6506L41.7984 35.0982L42.6262 30.4146L40.068 29.9625Z" fill="white"/>
<path d="M45.2163 41.0714L43.2752 37.1892L40.9517 38.351L42.893 42.2332C43.325 43.0972 42.6967 44.113 41.7312 44.113H40.3104L41.1479 43.2122L39.2453 41.4433L35.3145 45.6713L40.4765 48.9487L41.8689 46.7556L41.795 46.7087C44.664 46.6627 46.4994 43.6372 45.2163 41.0714Z" fill="white"/>
<path d="M29.3542 44.1137C28.3883 44.1137 27.7607 43.0974 28.1924 42.2339L29.2171 40.1845L29.5492 41.3403L32.046 40.623L30.346 34.7056L24.6582 37.8147L25.9042 40.0941L26.5286 39.7528L25.8689 41.0721C24.5722 43.6654 26.4602 46.7115 29.3542 46.7115H32.9443V44.1137H29.3542Z" fill="white"/>
<path d="M43.8733 15.4525L41.2755 12.8547H29.8084L27.2106 15.4525H16.0586C16.0586 16.0206 16.0586 27.9692 16.0586 28.528H18.7687L20.4627 47.2396C18.6362 48.0458 17.3575 49.8732 17.3575 51.9946C17.3575 54.8594 19.6882 57.1902 22.553 57.1902H49.7173L52.3151 28.528H55.0253C55.0253 27.9681 55.0253 16.0468 55.0253 15.4525H43.8733ZM22.553 54.5924C21.1206 54.5924 19.9553 53.427 19.9553 51.9946C19.9553 50.5622 21.1206 49.3968 22.553 49.3968C23.9855 49.3968 25.1508 50.5622 25.1508 51.9946C25.1508 53.427 23.9855 54.5924 22.553 54.5924ZM52.4275 25.9302H49.9421L47.3443 54.5924H27.0496C27.4932 53.8275 27.7486 52.9406 27.7486 51.9946C27.7486 49.2918 25.6737 47.0653 23.0333 46.8221L21.1418 25.9302H18.6564V23.3324H52.4275V25.9302ZM52.4275 20.7347H18.6564V18.0503H28.2866L30.8844 15.4525H40.1995L42.7973 18.0503H52.4275V20.7347Z" fill="white"/>
</svg>
