<svg width="55" height="55" viewBox="0 0 55 55" fill="none" xmlns="http://www.w3.org/2000/svg">
<circle cx="27.5" cy="27.5" r="27.5" fill="#2DAD82"/>
<path d="M31.4356 23.8944L31.3492 24.3833L30.5911 22.867C29.4257 20.5363 26.0963 20.5367 24.931 22.867L23.4238 25.8814L25.3105 26.8248L26.8177 23.8104C27.2069 23.0319 28.3145 23.0306 28.7044 23.8103L29.6385 25.6786L28.6933 25.5991L28.5166 27.7011L32.8407 28.0645L33.5128 24.2615L31.4356 23.8944Z" fill="white"/>
<path d="M35.6145 32.9179L34.0384 29.7656L32.1518 30.709L33.728 33.8613C34.0787 34.5629 33.5686 35.3877 32.7846 35.3877H31.6309L32.3109 34.6562L30.7661 33.2199L27.5742 36.653L31.7658 39.3143L32.8964 37.5335L32.8364 37.4954C35.166 37.458 36.6563 35.0014 35.6145 32.9179Z" fill="white"/>
<path d="M22.735 35.3854C22.2042 35.3854 21.9308 35.0356 21.8378 34.8852C21.7449 34.7348 21.5543 34.3337 21.7916 33.8591L22.6237 32.1949L22.8933 33.1334L24.9207 32.551L23.5403 27.7461L18.9219 30.2707L19.9336 32.1216L20.4406 31.8444L19.905 32.9157C18.8521 35.0214 20.3851 37.4948 22.735 37.4948H25.6501V35.3854H22.735Z" fill="white"/>
<path d="M35.5853 10H13V46H42.5312V16.946L35.5853 10ZM36.2031 13.6009L38.9303 16.3281H36.2031V13.6009ZM40.4219 43.8906H15.1094V12.1094H34.0938V18.4375H40.4219V43.8906Z" fill="white"/>
</svg>
