<svg width="1008" height="300" viewBox="0 0 1008 300" fill="none" xmlns="http://www.w3.org/2000/svg">
<path d="M1005.14 169.935C1006.64 163.888 1007.44 157.559 1007.44 151.044C1007.44 147.528 1007.21 144.061 1006.75 140.67C1006.4 138.009 1005.91 135.383 1005.29 132.812C1000.07 110.968 985.673 92.6802 966.399 82.2611C964.115 81.0285 961.761 79.9016 959.346 78.8954C953.283 76.3598 946.824 74.5738 940.097 73.6431L918.374 73.6531L892.897 73.6682L850.999 73.6883L798.054 73.7236L791.468 73.7286L781.396 73.7336L755.054 73.7487H751.361C743.664 74.0154 736.374 75.8969 729.824 79.0614C711.833 87.77 699.422 106.198 699.422 127.535C699.422 129.376 699.512 131.197 699.699 132.988C699.699 132.988 700.046 136.464 700.911 140.147C701.867 144.252 706.073 154.234 713.549 166.731C713.584 166.791 713.614 166.851 713.654 166.907L715.596 170.101L751.764 229.411L774.705 267.028L793.903 298.501H825.18L844.353 267.113L867.35 229.477L872.185 221.563L871.259 220.059C873.739 217.805 875.933 215.234 877.774 212.417C877.774 212.417 877.779 212.417 877.779 212.412L878.81 210.721L879.072 210.294C879.082 210.284 879.087 210.273 879.092 210.258L885.149 200.342L903.688 169.996L906.772 164.95L911.366 157.439L921.699 140.524L914.002 140.514L905.384 140.499L891.825 140.479L852.126 140.414L851.799 140.942L845.656 150.999L837.28 164.698L834.015 170.041L809.715 209.785L809.58 210.002L785.562 170.564L785.26 170.061L767.108 140.258L765.368 137.4L762.661 132.953L806.802 132.923L817.765 132.918L827.54 132.913L853.268 132.898H856.719L887.187 132.882L926.398 132.862C928.038 132.852 929.678 132.832 931.313 132.822C931.359 132.832 931.399 132.842 931.444 132.857C931.852 132.978 932.259 133.099 932.667 133.22C933.411 133.441 934.156 133.667 934.905 133.884C935.278 133.989 935.645 134.105 936.017 134.211C939.297 135.529 942.12 137.752 944.162 140.57C946.401 143.644 947.719 147.422 947.719 151.517C947.719 160.935 940.736 168.723 931.66 169.986H931.65C930.81 170.106 929.95 170.162 929.075 170.162C928.204 170.162 927.344 170.101 926.509 169.986H926.499L912.87 169.991L911.376 172.436L889.411 208.417L885.094 215.486L876.813 229.039L877.09 229.487L919.481 298.506H988.425L946.265 229.527L945.279 227.907C946.089 227.635 946.899 227.338 947.694 227.022C975.888 220.22 998.149 198.094 1005.14 169.935ZM941.712 135.282C941.858 135.317 942.004 135.358 942.15 135.388L942.467 135.473C942.21 135.408 941.959 135.343 941.712 135.282Z" fill="url(#paint0_linear_1791_4156)"/>
<path d="M105.403 73.5269C135.8 73.5269 159.234 80.4897 175.726 94.3952C192.207 108.311 200.453 127.901 200.453 153.157C200.453 180.133 192.207 201.051 175.726 215.933C159.239 230.814 135.8 238.245 105.403 238.245H67.1882V298.606H0.402344V73.5269H105.403ZM105.403 186.552C115.465 186.552 123.223 183.881 128.681 178.528C134.135 173.18 136.872 165.472 136.872 155.406C136.872 145.56 134.145 138.019 128.681 132.771C123.228 127.529 115.46 124.903 105.403 124.903H67.1882V186.552H105.403ZM90.6324 213.845H155.491L208.15 298.611H132.379L90.6324 213.845Z" fill="white"/>
<path d="M449.576 140.73C444.334 128.586 437.205 117.834 428.199 108.472C427.465 110.288 426.333 111.903 425.065 113.543C423.199 115.948 421.423 118.443 419.415 120.742C415.008 125.793 409.62 130.004 403.895 133.466C394.884 138.904 384.687 142.149 374.615 140.952C375.45 141.782 376.275 142.632 377.07 143.533C381.829 148.921 385.557 155.179 388.249 162.318C390.94 169.457 392.283 177.275 392.283 185.762C392.283 194.25 390.935 202.118 388.249 209.362C385.552 216.612 381.829 222.921 377.07 228.304C372.305 233.692 366.822 237.878 360.614 240.876C354.4 243.88 347.775 245.379 340.741 245.379C333.492 245.379 326.66 243.88 320.25 240.876C313.831 237.878 308.191 233.682 303.326 228.304C298.461 222.921 294.577 216.607 291.68 209.362C288.777 202.118 287.333 194.25 287.333 185.762C287.333 177.275 288.731 169.462 291.529 162.318C294.326 155.179 298.149 148.916 303.019 143.533C307.884 138.149 313.574 134.014 320.099 131.111C321.211 130.613 322.338 130.17 323.47 129.758C317.921 127.107 312.613 123.635 308.417 119.137C303.829 114.227 300.474 108.306 297.792 102.178C296.212 98.5659 294.779 94.8783 293.521 91.1352C292.51 88.1318 291.418 85.1082 291.141 81.9487C277.311 87.4979 265.222 95.1298 254.893 104.86C244.228 114.901 235.952 126.749 230.055 140.413C224.154 154.077 221.206 169.09 221.206 185.44C221.206 201.796 224.154 216.909 230.055 230.779C235.957 244.65 244.233 256.658 254.893 266.801C265.549 276.948 278.076 284.867 292.464 290.557C306.848 296.252 322.635 299.094 339.821 299.094C357.001 299.094 372.783 296.247 387.177 290.557C401.56 284.862 414.082 276.943 424.748 266.801C435.404 256.663 443.69 244.599 449.586 230.628C455.487 216.657 458.435 201.595 458.435 185.45C458.425 169.301 455.472 154.399 449.576 140.73Z" fill="white"/>
<path d="M542.311 202.893C542.311 215.475 545.973 225.487 553.319 232.928C560.659 240.373 569.463 244.091 579.736 244.091C590.221 244.091 598.813 240.373 605.53 232.928C612.236 225.487 615.597 215.47 615.597 202.893V73.6377H681.009V202.898C681.009 222.191 676.868 239.015 668.588 253.373C660.302 267.737 648.564 278.85 633.361 286.713C618.152 294.577 600.282 298.511 579.736 298.511C558.978 298.511 540.897 294.582 525.487 286.713C510.078 278.85 498.124 267.742 489.637 253.373C481.145 239.01 476.898 222.186 476.898 202.898V73.6377H542.311V202.893Z" fill="white"/>
<path d="M358.177 124.485C385.203 109.956 404.311 83.7095 411.218 73.0842C409.452 86.7834 385.626 115.128 374.658 125.874C382.829 136.685 400.412 129.114 412.808 116.079C425.209 103.038 434.481 80.9727 424.515 48.513C406.65 49.6903 393.238 54.9376 383.669 60.537C383.699 72.4352 378.195 86.8338 375.473 90.7176C377.597 79.2119 377.546 70.1209 376.771 64.7177C373.813 44.2367 347.748 11.8022 309.87 0.4021C294.822 35.5533 273.24 108.029 343.381 122.659C349.257 95.9599 336.76 45.7007 328.092 27.2925C348.794 52.6787 356.451 107.632 358.177 124.485Z" fill="url(#paint1_linear_1791_4156)"/>
<defs>
<linearGradient id="paint0_linear_1791_4156" x1="699.432" y1="186.073" x2="1007.44" y2="186.073" gradientUnits="userSpaceOnUse">
<stop stop-color="#3BAF71"/>
<stop offset="1" stop-color="#15A99F"/>
</linearGradient>
<linearGradient id="paint1_linear_1791_4156" x1="321.863" y1="115.594" x2="386.676" y2="22.3763" gradientUnits="userSpaceOnUse">
<stop offset="3.99584e-07" stop-color="#3BAF71"/>
<stop offset="1" stop-color="#15A99F"/>
</linearGradient>
</defs>
</svg>
