<svg width="55" height="55" viewBox="0 0 55 55" fill="none" xmlns="http://www.w3.org/2000/svg">
<circle cx="27.5" cy="27.5" r="27.5" fill="#2DAD82"/>
<path d="M40.9836 22.4608C40.9008 18.0773 38.9434 13.9055 35.5843 10.9763C26.0207 2.63678 11.2773 8.2518 9.23681 20.0559C8.56129 23.9638 9.33755 27.7697 11.4816 31.0622C13.0792 33.5155 13.9401 36.6215 13.9401 40.0444L13.9402 48.125H33.6057V40.8177H40.9864V33.5908H46.6671L40.9836 22.4608ZM38.5262 31.1819V38.4089H31.1455V45.7161H16.384L16.3839 40.0445C16.3839 36.1619 15.4059 32.6081 13.5559 29.7671C11.7452 26.9865 11.0905 23.7674 11.6626 20.458C12.6446 14.7762 17.5677 10.1734 23.3683 9.51358C27.2698 9.06988 31.0271 10.2281 33.9481 12.7752C36.7634 15.2301 38.5262 18.7318 38.5262 23.0347L42.6863 31.1819H38.5262V31.1819Z" fill="white"/>
<path d="M24.9995 11.7129C20.9681 14.0692 16.3887 18.1638 16.3887 22.7516C16.3887 27.791 21.9023 31.825 23.7694 33.0464V37.2055H26.2296V33.0464C28.0966 31.8249 33.6103 27.791 33.6103 22.7516C33.6104 18.1638 29.0331 14.0704 24.9995 11.7129ZM26.2297 30.0651V25.6595L29.5596 22.3988L27.82 20.6954L24.9994 23.4572L22.1789 20.6954L20.4392 22.3988L23.7692 25.6595V30.066C23.2714 29.6821 22.7174 29.2222 22.1633 28.6986C20.6512 27.2697 18.8488 25.078 18.8488 22.7516C18.8488 19.0237 23.3184 15.679 25.0004 14.5525C25.66 14.9936 26.7483 15.7773 27.8354 16.8046C29.3475 18.2336 31.1499 20.4252 31.1499 22.7516C31.1501 25.7611 28.2374 28.5206 26.2297 30.0651Z" fill="white"/>
</svg>
