<svg width="243" height="84" viewBox="0 0 243 84" fill="none" xmlns="http://www.w3.org/2000/svg">
<rect x="0.65625" y="0.0322266" width="242.21" height="83.4521" rx="12.0654" fill="#1C1B1E"/>
<path d="M72.1134 49.2432C71.4021 51.5233 70.2803 53.8033 68.7481 56.0834C66.3951 59.6585 64.0512 61.4461 61.7164 61.4461C60.8226 61.4461 59.5458 61.1542 57.8859 60.5705C56.3172 59.9869 54.94 59.695 53.7544 59.695C52.6418 59.695 51.3467 59.996 49.8692 60.5979C48.3917 61.2181 47.1879 61.5282 46.2576 61.5282C43.485 61.5282 40.7399 59.166 38.022 54.4418C35.3407 49.681 34 45.0935 34 40.6793C34 36.5205 35.0306 33.1095 37.0918 30.4464C39.1529 27.8198 41.7431 26.5065 44.8622 26.5065C46.1755 26.5065 47.7898 26.7801 49.705 27.3273C51.602 27.8745 52.8606 28.1481 53.4808 28.1481C54.3016 28.1481 55.6058 27.8381 57.3934 27.2179C59.2539 26.5977 60.8317 26.2876 62.1268 26.2876C64.2974 26.2876 66.24 26.8804 67.9546 28.0661C68.9031 28.7227 69.8516 29.6347 70.8001 30.8021C69.3591 32.0242 68.3194 33.1004 67.681 34.0307C66.4954 35.7453 65.9026 37.6332 65.9026 39.6943C65.9026 41.9562 66.5319 43.99 67.7905 45.7958C69.049 47.6016 70.49 48.7507 72.1134 49.2432ZM61.8258 17.1491C61.8258 18.2618 61.5613 19.5022 61.0324 20.8702C60.4851 22.2382 59.637 23.4968 58.4878 24.646C57.5028 25.631 56.5178 26.2876 55.5329 26.6159C54.858 26.8166 53.9095 26.9716 52.6874 27.0811C52.7421 24.3632 53.4535 22.0193 54.8215 20.0494C56.1713 18.0977 58.4513 16.7479 61.6617 16C61.6799 16.0547 61.7027 16.155 61.7301 16.301C61.7574 16.4469 61.7802 16.5472 61.7985 16.6019C61.7985 16.6749 61.803 16.7661 61.8121 16.8755C61.8213 16.985 61.8258 17.0762 61.8258 17.1491Z" fill="#DDDDDD"/>
<path d="M94.0654 24.2511C95.0556 24.2511 95.9049 24.4304 96.6134 24.7889C97.3219 25.1474 97.8639 25.6638 98.2395 26.3382C98.6151 27.0125 98.8029 27.8149 98.8029 28.7454C98.8029 29.6672 98.6151 30.4654 98.2395 31.1397C97.8639 31.8055 97.3219 32.3177 96.6134 32.6762C95.9049 33.0262 95.0556 33.2012 94.0654 33.2012H91.415V24.2511H94.0654ZM94.0654 32.4585C95.3117 32.4585 96.2592 32.1342 96.9079 31.4854C97.5652 30.8282 97.8938 29.9148 97.8938 28.7454C97.8938 27.5674 97.5652 26.6498 96.9079 25.9925C96.2592 25.3267 95.3117 24.9938 94.0654 24.9938H92.3112V32.4585H94.0654ZM103.515 33.3036C102.858 33.3036 102.265 33.1585 101.736 32.8683C101.215 32.5695 100.801 32.1512 100.494 31.6135C100.195 31.0672 100.046 30.4312 100.046 29.7057C100.046 28.9801 100.199 28.3484 100.507 27.8107C100.814 27.2644 101.232 26.8461 101.761 26.5559C102.291 26.2571 102.884 26.1077 103.541 26.1077C104.198 26.1077 104.792 26.2571 105.321 26.5559C105.859 26.8461 106.277 27.2644 106.576 27.8107C106.883 28.3484 107.037 28.9801 107.037 29.7057C107.037 30.4227 106.883 31.0544 106.576 31.6007C106.268 32.147 105.846 32.5695 105.308 32.8683C104.77 33.1585 104.173 33.3036 103.515 33.3036ZM103.515 32.5226C103.976 32.5226 104.403 32.4201 104.796 32.2153C105.189 32.0019 105.504 31.686 105.743 31.2678C105.991 30.841 106.115 30.3203 106.115 29.7057C106.115 29.0911 105.995 28.5746 105.756 28.1564C105.517 27.7296 105.201 27.4137 104.809 27.2089C104.416 26.9955 103.989 26.8888 103.528 26.8888C103.067 26.8888 102.641 26.9955 102.248 27.2089C101.855 27.4137 101.539 27.7296 101.3 28.1564C101.07 28.5746 100.955 29.0911 100.955 29.7057C100.955 30.3203 101.07 30.841 101.3 31.2678C101.539 31.686 101.851 32.0019 102.235 32.2153C102.628 32.4201 103.055 32.5226 103.515 32.5226ZM117.889 26.2102L115.7 33.2012H114.804L112.87 27.3369L110.937 33.2012H110.028L107.838 26.2102H108.747L110.489 32.2921L112.448 26.2102H113.344L115.277 32.3049L117.006 26.2102H117.889ZM122.389 26.0821C123.226 26.0821 123.909 26.3425 124.438 26.8632C124.967 27.3753 125.232 28.1222 125.232 29.1039V33.2012H124.348V29.2063C124.348 28.4466 124.156 27.8661 123.772 27.465C123.396 27.0638 122.88 26.8632 122.223 26.8632C121.548 26.8632 121.011 27.0766 120.609 27.5034C120.208 27.9302 120.008 28.5576 120.008 29.3856V33.2012H119.111V26.2102H120.008V27.4009C120.229 26.9741 120.55 26.6498 120.968 26.4278C121.386 26.1973 121.86 26.0821 122.389 26.0821ZM128.11 23.7262V33.2012H127.214V23.7262H128.11ZM133.2 33.3036C132.543 33.3036 131.949 33.1585 131.42 32.8683C130.899 32.5695 130.485 32.1512 130.178 31.6135C129.879 31.0672 129.73 30.4312 129.73 29.7057C129.73 28.9801 129.884 28.3484 130.191 27.8107C130.498 27.2644 130.917 26.8461 131.446 26.5559C131.975 26.2571 132.568 26.1077 133.226 26.1077C133.883 26.1077 134.476 26.2571 135.005 26.5559C135.543 26.8461 135.961 27.2644 136.26 27.8107C136.567 28.3484 136.721 28.9801 136.721 29.7057C136.721 30.4227 136.567 31.0544 136.26 31.6007C135.953 32.147 135.53 32.5695 134.992 32.8683C134.455 33.1585 133.857 33.3036 133.2 33.3036ZM133.2 32.5226C133.661 32.5226 134.088 32.4201 134.48 32.2153C134.873 32.0019 135.189 31.686 135.428 31.2678C135.675 30.841 135.799 30.3203 135.799 29.7057C135.799 29.0911 135.68 28.5746 135.441 28.1564C135.202 27.7296 134.886 27.4137 134.493 27.2089C134.1 26.9955 133.674 26.8888 133.213 26.8888C132.752 26.8888 132.325 26.9955 131.932 27.2089C131.54 27.4137 131.224 27.7296 130.985 28.1564C130.754 28.5746 130.639 29.0911 130.639 29.7057C130.639 30.3203 130.754 30.841 130.985 31.2678C131.224 31.686 131.535 32.0019 131.92 32.2153C132.312 32.4201 132.739 32.5226 133.2 32.5226ZM137.945 29.6929C137.945 28.9758 138.086 28.3484 138.368 27.8107C138.658 27.2644 139.055 26.8461 139.558 26.5559C140.071 26.2571 140.647 26.1077 141.287 26.1077C141.953 26.1077 142.525 26.2614 143.003 26.5687C143.489 26.876 143.839 27.2686 144.053 27.7466V26.2102H144.949V33.2012H144.053V31.6519C143.831 32.1299 143.476 32.5268 142.99 32.8427C142.512 33.15 141.94 33.3036 141.274 33.3036C140.643 33.3036 140.071 33.1542 139.558 32.8555C139.055 32.5567 138.658 32.1342 138.368 31.5879C138.086 31.0416 137.945 30.4099 137.945 29.6929ZM144.053 29.7057C144.053 29.1423 143.937 28.6472 143.707 28.2204C143.476 27.7936 143.161 27.465 142.759 27.2345C142.367 27.004 141.931 26.8888 141.453 26.8888C140.958 26.8888 140.514 26.9997 140.122 27.2217C139.729 27.4436 139.418 27.768 139.187 28.1948C138.965 28.613 138.854 29.1124 138.854 29.6929C138.854 30.2648 138.965 30.7684 139.187 31.2037C139.418 31.6305 139.729 31.9592 140.122 32.1897C140.514 32.4116 140.958 32.5226 141.453 32.5226C141.931 32.5226 142.367 32.4073 142.759 32.1768C143.161 31.9464 143.476 31.6177 143.707 31.1909C143.937 30.7641 144.053 30.269 144.053 29.7057ZM146.585 29.6929C146.585 28.9758 146.73 28.3484 147.021 27.8107C147.311 27.2644 147.708 26.8461 148.211 26.5559C148.724 26.2571 149.3 26.1077 149.94 26.1077C150.555 26.1077 151.109 26.2571 151.605 26.5559C152.1 26.8546 152.462 27.243 152.693 27.721V23.7262H153.589V33.2012H152.693V31.6391C152.48 32.1256 152.13 32.5268 151.643 32.8427C151.156 33.15 150.585 33.3036 149.927 33.3036C149.287 33.3036 148.711 33.1542 148.199 32.8555C147.695 32.5567 147.298 32.1342 147.008 31.5879C146.726 31.0416 146.585 30.4099 146.585 29.6929ZM152.693 29.7057C152.693 29.1423 152.578 28.6472 152.347 28.2204C152.117 27.7936 151.801 27.465 151.4 27.2345C151.007 27.004 150.572 26.8888 150.094 26.8888C149.599 26.8888 149.155 26.9997 148.762 27.2217C148.369 27.4436 148.058 27.768 147.827 28.1948C147.605 28.613 147.494 29.1124 147.494 29.6929C147.494 30.2648 147.605 30.7684 147.827 31.2037C148.058 31.6305 148.369 31.9592 148.762 32.1897C149.155 32.4116 149.599 32.5226 150.094 32.5226C150.572 32.5226 151.007 32.4073 151.4 32.1768C151.801 31.9464 152.117 31.6177 152.347 31.1909C152.578 30.7641 152.693 30.269 152.693 29.7057ZM162.209 33.3036C161.552 33.3036 160.959 33.1585 160.429 32.8683C159.909 32.5695 159.495 32.1512 159.187 31.6135C158.889 31.0672 158.739 30.4312 158.739 29.7057C158.739 28.9801 158.893 28.3484 159.2 27.8107C159.507 27.2644 159.926 26.8461 160.455 26.5559C160.984 26.2571 161.577 26.1077 162.235 26.1077C162.892 26.1077 163.485 26.2571 164.015 26.5559C164.552 26.8461 164.971 27.2644 165.269 27.8107C165.577 28.3484 165.73 28.9801 165.73 29.7057C165.73 30.4227 165.577 31.0544 165.269 31.6007C164.962 32.147 164.539 32.5695 164.002 32.8683C163.464 33.1585 162.866 33.3036 162.209 33.3036ZM162.209 32.5226C162.67 32.5226 163.097 32.4201 163.49 32.2153C163.882 32.0019 164.198 31.686 164.437 31.2678C164.685 30.841 164.808 30.3203 164.808 29.7057C164.808 29.0911 164.689 28.5746 164.45 28.1564C164.211 27.7296 163.895 27.4137 163.502 27.2089C163.11 26.9955 162.683 26.8888 162.222 26.8888C161.761 26.8888 161.334 26.9955 160.942 27.2089C160.549 27.4137 160.233 27.7296 159.994 28.1564C159.764 28.5746 159.648 29.0911 159.648 29.7057C159.648 30.3203 159.764 30.841 159.994 31.2678C160.233 31.686 160.545 32.0019 160.929 32.2153C161.321 32.4201 161.748 32.5226 162.209 32.5226ZM170.642 26.0821C171.478 26.0821 172.161 26.3425 172.691 26.8632C173.22 27.3753 173.484 28.1222 173.484 29.1039V33.2012H172.601V29.2063C172.601 28.4466 172.409 27.8661 172.025 27.465C171.649 27.0638 171.133 26.8632 170.475 26.8632C169.801 26.8632 169.263 27.0766 168.862 27.5034C168.461 27.9302 168.26 28.5576 168.26 29.3856V33.2012H167.364V26.2102H168.26V27.4009C168.482 26.9741 168.802 26.6498 169.221 26.4278C169.639 26.1973 170.113 26.0821 170.642 26.0821ZM180.145 26.9656V31.3062C180.145 31.733 180.227 32.0275 180.389 32.1897C180.551 32.3518 180.837 32.4329 181.247 32.4329H182.066V33.2012H181.106C180.474 33.2012 180.005 33.0561 179.697 32.7658C179.39 32.4671 179.236 31.9805 179.236 31.3062V26.9656H178.263V26.2102H179.236V24.456H180.145V26.2102H182.066V26.9656H180.145ZM186.873 26.0821C187.402 26.0821 187.876 26.1931 188.295 26.415C188.721 26.637 189.054 26.9784 189.293 27.4393C189.541 27.8918 189.665 28.4466 189.665 29.1039V33.2012H188.781V29.2063C188.781 28.4466 188.589 27.8661 188.205 27.465C187.829 27.0638 187.313 26.8632 186.656 26.8632C185.981 26.8632 185.443 27.0766 185.042 27.5034C184.641 27.9302 184.44 28.5576 184.44 29.3856V33.2012H183.544V23.7262H184.44V27.4009C184.662 26.9827 184.987 26.6583 185.414 26.4278C185.849 26.1973 186.335 26.0821 186.873 26.0821ZM197.972 29.3471C197.972 29.6544 197.963 29.8892 197.946 30.0514H192.146C192.172 30.5806 192.3 31.033 192.53 31.4086C192.761 31.7842 193.064 32.0701 193.439 32.2665C193.815 32.4543 194.225 32.5482 194.669 32.5482C195.249 32.5482 195.736 32.4073 196.128 32.1256C196.529 31.8439 196.794 31.4641 196.922 30.9861H197.87C197.699 31.669 197.332 32.2281 196.768 32.6634C196.214 33.0902 195.514 33.3036 194.669 33.3036C194.011 33.3036 193.422 33.1585 192.902 32.8683C192.381 32.5695 191.971 32.1512 191.672 31.6135C191.382 31.0672 191.237 30.4312 191.237 29.7057C191.237 28.9801 191.382 28.3442 191.672 27.7979C191.963 27.2515 192.368 26.8333 192.889 26.5431C193.409 26.2528 194.003 26.1077 194.669 26.1077C195.334 26.1077 195.915 26.2528 196.41 26.5431C196.914 26.8333 197.298 27.2259 197.562 27.721C197.835 28.2076 197.972 28.7496 197.972 29.3471ZM197.063 29.3215C197.071 28.8008 196.965 28.357 196.743 27.9899C196.529 27.6229 196.235 27.3454 195.859 27.1577C195.484 26.9699 195.074 26.876 194.63 26.876C193.964 26.876 193.397 27.0894 192.927 27.5162C192.458 27.943 192.197 28.5448 192.146 29.3215H197.063Z" fill="white"/>
<path d="M100.741 55.73H93.9544L92.6527 59.2725H91.0735L96.5152 44.5478H98.2011L103.621 59.2725H102.042L100.741 55.73ZM100.292 54.4923L97.3475 46.4257L94.4026 54.4923H100.292ZM107.491 50.1816C107.861 49.3991 108.445 48.7518 109.241 48.2396C110.052 47.7132 111.013 47.45 112.122 47.45C113.175 47.45 114.121 47.699 114.96 48.1969C115.814 48.6807 116.476 49.3778 116.945 50.2883C117.429 51.1846 117.671 52.2302 117.671 53.4253C117.671 54.6203 117.429 55.6731 116.945 56.5836C116.476 57.4941 115.814 58.1983 114.96 58.6963C114.121 59.1942 113.175 59.4432 112.122 59.4432C111.027 59.4432 110.074 59.1871 109.263 58.6749C108.452 58.1485 107.861 57.4941 107.491 56.7116V64.7782H106.019V47.6208H107.491V50.1816ZM116.155 53.4253C116.155 52.4579 115.963 51.6256 115.579 50.9285C115.209 50.2171 114.697 49.6765 114.043 49.3066C113.388 48.9367 112.649 48.7518 111.823 48.7518C111.027 48.7518 110.294 48.9438 109.625 49.328C108.971 49.7121 108.452 50.2598 108.068 50.9712C107.683 51.6825 107.491 52.5076 107.491 53.4466C107.491 54.3856 107.683 55.2107 108.068 55.9221C108.452 56.6334 108.971 57.1811 109.625 57.5653C110.294 57.9494 111.027 58.1414 111.823 58.1414C112.649 58.1414 113.388 57.9565 114.043 57.5866C114.697 57.2025 115.209 56.6547 115.579 55.9434C115.963 55.2178 116.155 54.3785 116.155 53.4253ZM121.892 50.1816C122.262 49.3991 122.845 48.7518 123.642 48.2396C124.453 47.7132 125.413 47.45 126.523 47.45C127.575 47.45 128.521 47.699 129.361 48.1969C130.214 48.6807 130.876 49.3778 131.345 50.2883C131.829 51.1846 132.071 52.2302 132.071 53.4253C132.071 54.6203 131.829 55.6731 131.345 56.5836C130.876 57.4941 130.214 58.1983 129.361 58.6963C128.521 59.1942 127.575 59.4432 126.523 59.4432C125.427 59.4432 124.474 59.1871 123.663 58.6749C122.852 58.1485 122.262 57.4941 121.892 56.7116V64.7782H120.419V47.6208H121.892V50.1816ZM130.556 53.4253C130.556 52.4579 130.364 51.6256 129.98 50.9285C129.61 50.2171 129.098 49.6765 128.443 49.3066C127.789 48.9367 127.049 48.7518 126.224 48.7518C125.427 48.7518 124.694 48.9438 124.026 49.328C123.371 49.7121 122.852 50.2598 122.468 50.9712C122.084 51.6825 121.892 52.5076 121.892 53.4466C121.892 54.3856 122.084 55.2107 122.468 55.9221C122.852 56.6334 123.371 57.1811 124.026 57.5653C124.694 57.9494 125.427 58.1414 126.224 58.1414C127.049 58.1414 127.789 57.9565 128.443 57.5866C129.098 57.2025 129.61 56.6547 129.98 55.9434C130.364 55.2178 130.556 54.3785 130.556 53.4253ZM136.314 43.4808V59.2725H134.82V43.4808H136.314ZM150.238 52.8491C150.238 53.3613 150.224 53.7525 150.196 54.0228H140.529C140.571 54.9049 140.785 55.6589 141.169 56.2848C141.553 56.9108 142.058 57.3874 142.684 57.7146C143.31 58.0276 143.993 58.1841 144.733 58.1841C145.7 58.1841 146.511 57.9494 147.165 57.4799C147.834 57.0104 148.275 56.3773 148.488 55.5806H150.068C149.783 56.7188 149.171 57.6506 148.232 58.3762C147.308 59.0875 146.141 59.4432 144.733 59.4432C143.637 59.4432 142.655 59.2013 141.788 58.7176C140.92 58.2197 140.237 57.5226 139.739 56.6263C139.255 55.7158 139.013 54.6559 139.013 53.4466C139.013 52.2373 139.255 51.1774 139.739 50.2669C140.223 49.3564 140.898 48.6593 141.766 48.1756C142.634 47.6919 143.623 47.45 144.733 47.45C145.842 47.45 146.81 47.6919 147.635 48.1756C148.474 48.6593 149.114 49.3137 149.555 50.1389C150.011 50.9498 150.238 51.8532 150.238 52.8491ZM148.723 52.8064C148.737 51.9386 148.56 51.1988 148.19 50.587C147.834 49.9753 147.343 49.5129 146.717 49.1999C146.091 48.8869 145.408 48.7304 144.669 48.7304C143.559 48.7304 142.613 49.0861 141.83 49.7975C141.048 50.5088 140.614 51.5118 140.529 52.8064H148.723ZM163.351 59.4218C162.37 59.4218 161.502 59.2511 160.748 58.9097C160.008 58.5682 159.425 58.0916 158.998 57.4799C158.571 56.8681 158.344 56.1853 158.315 55.4312H159.894C159.965 56.1568 160.286 56.797 160.855 57.3519C161.424 57.8925 162.256 58.1628 163.351 58.1628C164.362 58.1628 165.158 57.9067 165.742 57.3945C166.339 56.8681 166.638 56.2066 166.638 55.4099C166.638 54.7697 166.474 54.2575 166.147 53.8734C165.82 53.4751 165.414 53.1834 164.931 52.9985C164.447 52.7993 163.778 52.5859 162.925 52.3583C161.929 52.088 161.139 51.8248 160.556 51.5687C159.973 51.3126 159.475 50.9143 159.062 50.3736C158.65 49.833 158.443 49.1003 158.443 48.1756C158.443 47.4074 158.642 46.7245 159.041 46.127C159.439 45.5152 160.001 45.0386 160.727 44.6972C161.452 44.3557 162.284 44.185 163.223 44.185C164.603 44.185 165.713 44.5264 166.552 45.2093C167.406 45.878 167.897 46.7458 168.025 47.8128H166.403C166.304 47.2011 165.969 46.6605 165.4 46.191C164.831 45.7073 164.063 45.4654 163.095 45.4654C162.199 45.4654 161.452 45.7073 160.855 46.191C160.257 46.6605 159.958 47.3078 159.958 48.1329C159.958 48.7589 160.122 49.2639 160.449 49.6481C160.776 50.0322 161.182 50.3238 161.666 50.523C162.164 50.7222 162.832 50.9356 163.672 51.1632C164.639 51.4335 165.421 51.7038 166.019 51.9741C166.616 52.2302 167.122 52.6286 167.534 53.1692C167.947 53.7098 168.153 54.4354 168.153 55.3459C168.153 56.043 167.968 56.7045 167.598 57.3305C167.228 57.9565 166.681 58.4615 165.955 58.8457C165.229 59.2298 164.362 59.4218 163.351 59.4218ZM172.982 48.8798V56.1141C172.982 56.8255 173.117 57.3163 173.387 57.5866C173.657 57.8569 174.134 57.9921 174.817 57.9921H176.183V59.2725H174.582C173.529 59.2725 172.747 59.0306 172.235 58.5469C171.722 58.049 171.466 57.238 171.466 56.1141V48.8798H169.845V47.6208H171.466V44.6972H172.982V47.6208H176.183V48.8798H172.982ZM183.746 59.4432C182.651 59.4432 181.662 59.2013 180.78 58.7176C179.912 58.2197 179.222 57.5226 178.71 56.6263C178.212 55.7158 177.963 54.6559 177.963 53.4466C177.963 52.2373 178.219 51.1846 178.732 50.2883C179.244 49.3778 179.941 48.6807 180.823 48.1969C181.705 47.699 182.694 47.45 183.789 47.45C184.885 47.45 185.873 47.699 186.755 48.1969C187.652 48.6807 188.349 49.3778 188.847 50.2883C189.359 51.1846 189.615 52.2373 189.615 53.4466C189.615 54.6417 189.359 55.6944 188.847 56.6049C188.335 57.5155 187.63 58.2197 186.734 58.7176C185.838 59.2013 184.842 59.4432 183.746 59.4432ZM183.746 58.1414C184.515 58.1414 185.226 57.9707 185.88 57.6293C186.535 57.2736 187.061 56.7472 187.46 56.0501C187.872 55.3388 188.078 54.4709 188.078 53.4466C188.078 52.4223 187.879 51.5616 187.481 50.8645C187.083 50.1531 186.556 49.6267 185.902 49.2853C185.247 48.9296 184.536 48.7518 183.768 48.7518C183 48.7518 182.288 48.9296 181.634 49.2853C180.979 49.6267 180.453 50.1531 180.055 50.8645C179.67 51.5616 179.478 52.4223 179.478 53.4466C179.478 54.4709 179.67 55.3388 180.055 56.0501C180.453 56.7472 180.972 57.2736 181.612 57.6293C182.267 57.9707 182.978 58.1414 183.746 58.1414ZM193.832 49.6908C194.159 48.9652 194.657 48.4032 195.326 48.0049C196.008 47.6065 196.841 47.4074 197.822 47.4074V48.9652H197.417C196.336 48.9652 195.468 49.2568 194.813 49.8401C194.159 50.4234 193.832 51.398 193.832 52.7637V59.2725H192.338V47.6208H193.832V49.6908ZM210.612 52.8491C210.612 53.3613 210.597 53.7525 210.569 54.0228H200.902C200.945 54.9049 201.158 55.6589 201.542 56.2848C201.926 56.9108 202.431 57.3874 203.057 57.7146C203.683 58.0276 204.366 58.1841 205.106 58.1841C206.073 58.1841 206.884 57.9494 207.539 57.4799C208.207 57.0104 208.648 56.3773 208.862 55.5806H210.441C210.156 56.7188 209.545 57.6506 208.606 58.3762C207.681 59.0875 206.514 59.4432 205.106 59.4432C204.01 59.4432 203.029 59.2013 202.161 58.7176C201.293 58.2197 200.61 57.5226 200.112 56.6263C199.629 55.7158 199.387 54.6559 199.387 53.4466C199.387 52.2373 199.629 51.1774 200.112 50.2669C200.596 49.3564 201.272 48.6593 202.14 48.1756C203.007 47.6919 203.996 47.45 205.106 47.45C206.216 47.45 207.183 47.6919 208.008 48.1756C208.848 48.6593 209.488 49.3137 209.929 50.1389C210.384 50.9498 210.612 51.8532 210.612 52.8491ZM209.096 52.8064C209.111 51.9386 208.933 51.1988 208.563 50.587C208.207 49.9753 207.716 49.5129 207.091 49.1999C206.465 48.8869 205.782 48.7304 205.042 48.7304C203.932 48.7304 202.986 49.0861 202.204 49.7975C201.421 50.5088 200.987 51.5118 200.902 52.8064H209.096Z" fill="white"/>
</svg>
