<svg width="243" height="84" viewBox="0 0 243 84" fill="none" xmlns="http://www.w3.org/2000/svg">
<rect x="0.699219" y="0.0322266" width="242.21" height="83.2264" rx="12.0654" fill="#1C1B1E"/>
<path d="M17 54.4419V15.7117C17.0003 15.6277 17.0253 15.5456 17.072 15.4758C17.1188 15.4059 17.1851 15.3514 17.2626 15.3191C17.3402 15.2868 17.4256 15.2781 17.5081 15.2941C17.5906 15.3102 17.6665 15.3502 17.7263 15.4092L37.8926 35.0758L17.7263 54.7445C17.6665 54.8035 17.5906 54.8435 17.5081 54.8595C17.4256 54.8755 17.3402 54.8668 17.2626 54.8345C17.1851 54.8022 17.1188 54.7477 17.072 54.6779C17.0253 54.608 17.0003 54.526 17 54.4419ZM46.3482 43.157L21.0622 57.088L21.0465 57.0969C20.6109 57.3334 20.197 56.7441 20.5537 56.4011L40.3751 37.4479L46.3482 43.157ZM20.5557 13.7506C20.197 13.4076 20.6109 12.8183 21.0484 13.0548L21.0642 13.0637L46.3482 26.9947L40.3751 32.7057L20.5557 13.7506ZM56.5561 37.5396L49.4949 41.4284L42.8556 35.0758L49.4949 28.7263L56.5561 32.6121C58.4768 33.6735 58.4768 36.4782 56.5561 37.5396Z" fill="white"/>
<path d="M93.0684 23.0273C92.7676 22.3355 92.3064 21.7941 91.6848 21.4031C91.0732 21.002 90.3513 20.8015 89.5192 20.8015C88.7371 20.8015 88.0353 20.982 87.4137 21.3429C86.7921 21.7038 86.3008 22.2202 85.9399 22.8919C85.5789 23.5537 85.3984 24.3257 85.3984 25.208C85.3984 26.0903 85.5789 26.8673 85.9399 27.539C86.3008 28.2108 86.7921 28.7271 87.4137 29.0881C88.0353 29.449 88.7371 29.6295 89.5192 29.6295C90.2511 29.6295 90.9078 29.4741 91.4893 29.1633C92.0809 28.8424 92.5521 28.3913 92.903 27.8097C93.2639 27.2182 93.4695 26.5314 93.5196 25.7494H89.0981V24.8921H94.6325V25.6591C94.5824 26.5815 94.3317 27.4187 93.8805 28.1707C93.4294 28.9126 92.8228 29.4991 92.0608 29.9303C91.3088 30.3614 90.4616 30.577 89.5192 30.577C88.5466 30.577 87.6644 30.3514 86.8723 29.9002C86.0802 29.439 85.4536 28.8023 84.9924 27.9902C84.5412 27.1681 84.3156 26.2407 84.3156 25.208C84.3156 24.1753 84.5412 23.2529 84.9924 22.4408C85.4536 21.6186 86.0802 20.982 86.8723 20.5308C87.6644 20.0696 88.5466 19.839 89.5192 19.839C90.6421 19.839 91.6247 20.1197 92.4669 20.6812C93.3091 21.2426 93.9206 22.0247 94.3016 23.0273H93.0684ZM103.99 25.9449C103.99 26.3058 103.98 26.5815 103.96 26.772H97.1474C97.1775 27.3937 97.3279 27.925 97.5986 28.3662C97.8693 28.8073 98.2253 29.1432 98.6664 29.3738C99.1075 29.5944 99.5888 29.7047 100.11 29.7047C100.792 29.7047 101.363 29.5393 101.825 29.2084C102.296 28.8775 102.607 28.4314 102.757 27.8699H103.87C103.669 28.672 103.238 29.3287 102.577 29.84C101.925 30.3413 101.103 30.592 100.11 30.592C99.3381 30.592 98.6463 30.4215 98.0348 30.0807C97.4232 29.7297 96.9419 29.2385 96.591 28.6068C96.2501 27.9652 96.0797 27.2182 96.0797 26.366C96.0797 25.5138 96.2501 24.7668 96.591 24.1252C96.9319 23.4835 97.4081 22.9922 98.0197 22.6513C98.6313 22.3104 99.3281 22.14 100.11 22.14C100.892 22.14 101.574 22.3104 102.155 22.6513C102.747 22.9922 103.198 23.4534 103.509 24.0349C103.83 24.6064 103.99 25.2431 103.99 25.9449ZM102.922 25.9148C102.933 25.3032 102.807 24.7819 102.547 24.3507C102.296 23.9196 101.95 23.5938 101.509 23.3732C101.068 23.1526 100.586 23.0423 100.065 23.0423C99.283 23.0423 98.6163 23.293 98.0648 23.7943C97.5134 24.2956 97.2076 25.0024 97.1474 25.9148H102.922ZM107.285 23.1476V28.2459C107.285 28.7472 107.38 29.0931 107.571 29.2836C107.761 29.4741 108.097 29.5693 108.578 29.5693H109.541V30.4717H108.413C107.671 30.4717 107.119 30.3012 106.759 29.9603C106.398 29.6094 106.217 29.0379 106.217 28.2459V23.1476H105.074V22.2603H106.217V20.1999H107.285V22.2603H109.541V23.1476H107.285ZM115.93 20.7113C115.72 20.7113 115.539 20.6361 115.389 20.4857C115.239 20.3353 115.163 20.1498 115.163 19.9292C115.163 19.7087 115.239 19.5282 115.389 19.3878C115.539 19.2374 115.72 19.1622 115.93 19.1622C116.141 19.1622 116.321 19.2374 116.472 19.3878C116.622 19.5282 116.697 19.7087 116.697 19.9292C116.697 20.1498 116.622 20.3353 116.472 20.4857C116.321 20.6361 116.141 20.7113 115.93 20.7113ZM116.457 22.2603V30.4717H115.404V22.2603H116.457ZM120.209 23.1476V28.2459C120.209 28.7472 120.304 29.0931 120.495 29.2836C120.685 29.4741 121.021 29.5693 121.503 29.5693H122.465V30.4717H121.337C120.595 30.4717 120.044 30.3012 119.683 29.9603C119.322 29.6094 119.141 29.0379 119.141 28.2459V23.1476H117.998V22.2603H119.141V20.1999H120.209V22.2603H122.465V23.1476H120.209ZM131.923 30.592C131.151 30.592 130.454 30.4215 129.832 30.0807C129.221 29.7297 128.734 29.2385 128.373 28.6068C128.022 27.9652 127.847 27.2182 127.847 26.366C127.847 25.5138 128.027 24.7718 128.388 24.1402C128.749 23.4985 129.241 23.0072 129.862 22.6664C130.484 22.3154 131.181 22.14 131.953 22.14C132.725 22.14 133.421 22.3154 134.043 22.6664C134.675 23.0072 135.166 23.4985 135.517 24.1402C135.878 24.7718 136.058 25.5138 136.058 26.366C136.058 27.2082 135.878 27.9501 135.517 28.5918C135.156 29.2335 134.66 29.7297 134.028 30.0807C133.396 30.4215 132.695 30.592 131.923 30.592ZM131.923 29.6746C132.464 29.6746 132.965 29.5543 133.426 29.3137C133.888 29.063 134.259 28.692 134.539 28.2008C134.83 27.6995 134.976 27.0879 134.976 26.366C134.976 25.6441 134.835 25.0375 134.554 24.5462C134.274 24.0449 133.903 23.674 133.442 23.4334C132.98 23.1827 132.479 23.0574 131.938 23.0574C131.396 23.0574 130.895 23.1827 130.434 23.4334C129.972 23.674 129.602 24.0449 129.321 24.5462C129.05 25.0375 128.915 25.6441 128.915 26.366C128.915 27.0879 129.05 27.6995 129.321 28.2008C129.602 28.692 129.967 29.063 130.419 29.3137C130.88 29.5543 131.381 29.6746 131.923 29.6746ZM141.827 22.1099C142.81 22.1099 143.612 22.4157 144.234 23.0273C144.855 23.6289 145.166 24.5061 145.166 25.6591V30.4717H144.128V25.7795C144.128 24.8871 143.903 24.2054 143.452 23.7341C143.01 23.2629 142.404 23.0273 141.632 23.0273C140.84 23.0273 140.208 23.2779 139.737 23.7793C139.266 24.2806 139.03 25.0175 139.03 25.99V30.4717H137.977V22.2603H139.03V23.6589C139.291 23.1576 139.667 22.7766 140.158 22.516C140.649 22.2453 141.206 22.1099 141.827 22.1099Z" fill="white"/>
<path d="M99.3849 49.1161C98.8836 47.9631 98.1149 47.0608 97.0789 46.4091C96.0595 45.7407 94.8564 45.4065 93.4695 45.4065C92.1661 45.4065 90.9964 45.7072 89.9603 46.3088C88.9243 46.9104 88.1055 47.771 87.5039 48.8905C86.9024 49.9934 86.6016 51.2801 86.6016 52.7506C86.6016 54.2211 86.9024 55.5161 87.5039 56.6357C88.1055 57.7553 88.9243 58.6159 89.9603 59.2174C90.9964 59.819 92.1661 60.1198 93.4695 60.1198C94.6893 60.1198 95.7838 59.8608 96.753 59.3428C97.7389 58.808 98.5243 58.0561 99.1092 57.0869C99.7107 56.101 100.053 54.9563 100.137 53.6529H92.7676V52.2242H101.992V53.5025C101.908 55.0399 101.49 56.4352 100.738 57.6885C99.9864 58.925 98.9755 59.9025 97.7055 60.6211C96.4522 61.3396 95.0402 61.6989 93.4695 61.6989C91.8486 61.6989 90.3781 61.3229 89.058 60.571C87.7379 59.8023 86.6935 58.7412 85.9248 57.3877C85.1729 56.0174 84.7969 54.4717 84.7969 52.7506C84.7969 51.0294 85.1729 49.4921 85.9248 48.1386C86.6935 46.7683 87.7379 45.7072 89.058 44.9553C90.3781 44.1866 91.8486 43.8023 93.4695 43.8023C95.341 43.8023 96.9786 44.2702 98.3823 45.2059C99.7859 46.1417 100.805 47.4451 101.44 49.1161H99.3849ZM111.196 61.724C109.91 61.724 108.748 61.4399 107.712 60.8717C106.693 60.2869 105.882 59.4681 105.281 58.4153C104.696 57.3459 104.404 56.101 104.404 54.6806C104.404 53.2603 104.704 52.0237 105.306 50.971C105.908 49.9015 106.726 49.0827 107.762 48.5146C108.798 47.9297 109.96 47.6373 111.246 47.6373C112.533 47.6373 113.694 47.9297 114.73 48.5146C115.783 49.0827 116.602 49.9015 117.187 50.971C117.788 52.0237 118.089 53.2603 118.089 54.6806C118.089 56.0843 117.788 57.3208 117.187 58.3903C116.585 59.4597 115.758 60.2869 114.705 60.8717C113.653 61.4399 112.483 61.724 111.196 61.724ZM111.196 60.195C112.099 60.195 112.934 59.9945 113.703 59.5934C114.471 59.1757 115.09 58.5574 115.558 57.7386C116.042 56.9031 116.285 55.8838 116.285 54.6806C116.285 53.4775 116.051 52.4665 115.583 51.6477C115.115 50.8122 114.497 50.1939 113.728 49.7929C112.959 49.3751 112.124 49.1663 111.221 49.1663C110.319 49.1663 109.484 49.3751 108.715 49.7929C107.946 50.1939 107.328 50.8122 106.86 51.6477C106.409 52.4665 106.183 53.4775 106.183 54.6806C106.183 55.8838 106.409 56.9031 106.86 57.7386C107.328 58.5574 107.938 59.1757 108.69 59.5934C109.458 59.9945 110.294 60.195 111.196 60.195ZM127.278 61.724C125.992 61.724 124.83 61.4399 123.794 60.8717C122.775 60.2869 121.964 59.4681 121.363 58.4153C120.778 57.3459 120.486 56.101 120.486 54.6806C120.486 53.2603 120.786 52.0237 121.388 50.971C121.989 49.9015 122.808 49.0827 123.844 48.5146C124.88 47.9297 126.042 47.6373 127.328 47.6373C128.615 47.6373 129.776 47.9297 130.812 48.5146C131.865 49.0827 132.684 49.9015 133.269 50.971C133.87 52.0237 134.171 53.2603 134.171 54.6806C134.171 56.0843 133.87 57.3208 133.269 58.3903C132.667 59.4597 131.84 60.2869 130.787 60.8717C129.735 61.4399 128.565 61.724 127.278 61.724ZM127.278 60.195C128.181 60.195 129.016 59.9945 129.785 59.5934C130.553 59.1757 131.172 58.5574 131.64 57.7386C132.124 56.9031 132.366 55.8838 132.366 54.6806C132.366 53.4775 132.133 52.4665 131.665 51.6477C131.197 50.8122 130.578 50.1939 129.81 49.7929C129.041 49.3751 128.206 49.1663 127.303 49.1663C126.401 49.1663 125.565 49.3751 124.797 49.7929C124.028 50.1939 123.41 50.8122 122.942 51.6477C122.491 52.4665 122.265 53.4775 122.265 54.6806C122.265 55.8838 122.491 56.9031 122.942 57.7386C123.41 58.5574 124.02 59.1757 124.772 59.5934C125.54 59.9945 126.376 60.195 127.278 60.195ZM143.109 47.6373C144.396 47.6373 145.516 47.9381 146.468 48.5396C147.421 49.1412 148.106 49.9015 148.524 50.8206V47.8378H150.278V61.8744C150.278 63.1276 150.002 64.2388 149.451 65.208C148.916 66.1772 148.164 66.9208 147.195 67.4388C146.226 67.9736 145.123 68.2409 143.887 68.2409C142.132 68.2409 140.67 67.8232 139.5 66.9877C138.347 66.1522 137.629 65.0159 137.344 63.5788H139.074C139.375 64.5313 139.943 65.2916 140.778 65.8597C141.631 66.4279 142.667 66.7119 143.887 66.7119C144.772 66.7119 145.566 66.5198 146.268 66.1354C146.97 65.7678 147.521 65.2164 147.922 64.4811C148.323 63.7459 148.524 62.877 148.524 61.8744V58.4905C148.089 59.4263 147.396 60.2033 146.443 60.8216C145.507 61.4232 144.396 61.724 143.109 61.724C141.856 61.724 140.728 61.4315 139.726 60.8467C138.74 60.2618 137.963 59.4347 137.395 58.3652C136.843 57.2958 136.567 56.0592 136.567 54.6556C136.567 53.2519 136.843 52.0237 137.395 50.971C137.963 49.9015 138.74 49.0827 139.726 48.5146C140.728 47.9297 141.856 47.6373 143.109 47.6373ZM148.524 54.6806C148.524 53.5777 148.298 52.6086 147.847 51.773C147.396 50.9375 146.777 50.2942 145.992 49.843C145.223 49.3918 144.371 49.1663 143.435 49.1663C142.466 49.1663 141.597 49.3835 140.829 49.818C140.06 50.2524 139.45 50.8874 138.999 51.7229C138.564 52.5417 138.347 53.5193 138.347 54.6556C138.347 55.7751 138.564 56.761 138.999 57.6133C139.45 58.4488 140.06 59.0921 140.829 59.5433C141.597 59.9777 142.466 60.195 143.435 60.195C144.371 60.195 145.223 59.9694 145.992 59.5182C146.777 59.067 147.396 58.4237 147.847 57.5882C148.298 56.7527 148.524 55.7835 148.524 54.6806ZM156.038 42.9751V61.5234H154.284V42.9751H156.038ZM172.394 53.9788C172.394 54.5804 172.377 55.0399 172.344 55.3574H160.989C161.039 56.3934 161.29 57.2791 161.741 58.0143C162.192 58.7495 162.785 59.3093 163.521 59.6937C164.256 60.0613 165.058 60.2451 165.927 60.2451C167.063 60.2451 168.016 59.9694 168.784 59.418C169.57 58.8665 170.088 58.1229 170.338 57.1871H172.193C171.859 58.524 171.14 59.6185 170.038 60.4707C168.951 61.3062 167.581 61.724 165.927 61.724C164.64 61.724 163.487 61.4399 162.468 60.8717C161.449 60.2869 160.646 59.4681 160.062 58.4153C159.493 57.3459 159.209 56.101 159.209 54.6806C159.209 53.2603 159.493 52.0153 160.062 50.9459C160.63 49.8764 161.424 49.0576 162.443 48.4895C163.462 47.9213 164.624 47.6373 165.927 47.6373C167.23 47.6373 168.367 47.9213 169.336 48.4895C170.322 49.0576 171.074 49.8263 171.592 50.7955C172.126 51.748 172.394 52.8091 172.394 53.9788ZM170.614 53.9287C170.631 52.9093 170.422 52.0404 169.987 51.3219C169.57 50.6033 168.993 50.0603 168.258 49.6926C167.523 49.325 166.721 49.1412 165.852 49.1412C164.548 49.1412 163.437 49.5589 162.518 50.3945C161.599 51.23 161.089 52.408 160.989 53.9287H170.614ZM193.686 49.0409C193.686 50.5448 193.193 51.7563 192.207 52.6754C191.222 53.5945 189.743 54.054 187.771 54.054H184.237V61.5234H182.482V44.0028H187.771C189.726 44.0028 191.196 44.4623 192.182 45.3814C193.185 46.3005 193.686 47.5203 193.686 49.0409ZM187.771 52.5501C190.511 52.5501 191.882 51.3804 191.882 49.0409C191.882 47.8712 191.556 46.9856 190.904 46.384C190.252 45.7824 189.208 45.4817 187.771 45.4817H184.237V52.5501H187.771ZM198.385 42.9751V61.5234H196.63V42.9751H198.385ZM201.556 54.6556C201.556 53.2519 201.832 52.0237 202.383 50.971C202.951 49.9015 203.728 49.0827 204.714 48.5146C205.717 47.9297 206.845 47.6373 208.098 47.6373C209.401 47.6373 210.521 47.9381 211.457 48.5396C212.409 49.1412 213.094 49.9099 213.512 50.8456V47.8378H215.267V61.5234H213.512V58.4905C213.078 59.4263 212.384 60.2033 211.432 60.8216C210.496 61.4232 209.376 61.724 208.073 61.724C206.836 61.724 205.717 61.4315 204.714 60.8467C203.728 60.2618 202.951 59.4347 202.383 58.3652C201.832 57.2958 201.556 56.0592 201.556 54.6556ZM213.512 54.6806C213.512 53.5777 213.287 52.6086 212.835 51.773C212.384 50.9375 211.766 50.2942 210.981 49.843C210.212 49.3918 209.36 49.1663 208.424 49.1663C207.455 49.1663 206.586 49.3835 205.817 49.818C205.048 50.2524 204.439 50.8874 203.987 51.7229C203.553 52.5417 203.336 53.5193 203.336 54.6556C203.336 55.7751 203.553 56.761 203.987 57.6133C204.439 58.4488 205.048 59.0921 205.817 59.5433C206.586 59.9777 207.455 60.195 208.424 60.195C209.36 60.195 210.212 59.9694 210.981 59.5182C211.766 59.067 212.384 58.4237 212.835 57.5882C213.287 56.7527 213.512 55.7835 213.512 54.6806ZM230.552 47.8378L222.43 67.9652H220.601L223.258 61.4482L217.643 47.8378H219.573L224.235 59.5182L228.747 47.8378H230.552Z" fill="white"/>
</svg>
