<svg width="23" height="28" viewBox="0 0 23 28" fill="none" xmlns="http://www.w3.org/2000/svg">
<path fill-rule="evenodd" clip-rule="evenodd" d="M11.5 2.8C9.11827 2.8 7.1875 4.6804 7.1875 7C7.1875 9.3196 9.11827 11.2 11.5 11.2C13.8817 11.2 15.8125 9.3196 15.8125 7C15.8125 4.6804 13.8817 2.8 11.5 2.8ZM4.3125 7C4.3125 3.13401 7.53045 0 11.5 0C15.4695 0 18.6875 3.13401 18.6875 7C18.6875 10.866 15.4695 14 11.5 14C7.53045 14 4.3125 10.866 4.3125 7ZM2.99425 25.2H20.0057C19.3214 21.2272 15.7737 18.2 11.5 18.2C7.22632 18.2 3.67862 21.2272 2.99425 25.2ZM0 26.6C0 20.4144 5.14873 15.4 11.5 15.4C17.8513 15.4 23 20.4144 23 26.6C23 27.3732 22.3564 28 21.5625 28H1.4375C0.643591 28 0 27.3732 0 26.6Z" fill="#F4F4F5"/>
</svg>
