<svg width="163" height="160" viewBox="0 0 163 160" fill="none" xmlns="http://www.w3.org/2000/svg">
<path d="M40.147 38.9329C42.797 36.5939 43.0492 32.5495 40.7103 29.8994C38.3713 27.2494 34.3269 26.9971 31.6768 29.3361C16.1861 43.0084 6.40039 63.0325 6.40039 85.3344C6.40039 88.8689 9.2658 91.7344 12.8004 91.7344C16.335 91.7344 19.2004 88.8689 19.2004 85.3344C19.2004 66.8572 27.2924 50.2784 40.147 38.9329Z" fill="white"/>
<path d="M130.457 29.3361C127.808 26.9971 123.763 27.2494 121.424 29.8994C119.085 32.5495 119.337 36.5939 121.987 38.9329C134.842 50.2784 142.934 66.8572 142.934 85.3344C142.934 88.8689 145.799 91.7344 149.334 91.7344C152.868 91.7344 155.734 88.8689 155.734 85.3344C155.734 63.0325 145.948 43.0084 130.457 29.3361Z" fill="white"/>
<path d="M65.5951 145.253C62.1723 144.371 58.6832 146.432 57.8022 149.855C56.9212 153.278 58.9819 156.767 62.405 157.648C68.3769 159.185 74.631 160.001 81.0669 160.001C87.5027 160.001 93.7568 159.185 99.7284 157.648C103.152 156.767 105.213 153.278 104.331 149.855C103.451 146.432 99.9614 144.371 96.5386 145.253C91.6004 146.523 86.4173 147.201 81.0669 147.201C75.7165 147.201 70.5333 146.523 65.5951 145.253Z" fill="white"/>
<path d="M55.4668 25.6C55.4668 39.7385 66.9279 51.2 81.0668 51.2C95.2057 51.2 106.667 39.7385 106.667 25.6C106.667 11.4616 95.2057 0 81.0668 0C66.9279 0 55.4668 11.4616 55.4668 25.6Z" fill="white"/>
<path d="M0 128C0 142.139 11.4616 153.6 25.6 153.6C39.7385 153.6 51.2 142.139 51.2 128C51.2 113.862 39.7385 102.4 25.6 102.4C11.4616 102.4 0 113.862 0 128Z" fill="white"/>
<path d="M136.534 153.6C122.395 153.6 110.934 142.139 110.934 128C110.934 113.862 122.395 102.4 136.534 102.4C150.672 102.4 162.134 113.862 162.134 128C162.134 142.139 150.672 153.6 136.534 153.6Z" fill="white"/>
</svg>
