<svg width="14" height="21" viewBox="0 0 14 21" fill="none" xmlns="http://www.w3.org/2000/svg">
<path d="M7.00003 0C3.72275 1.91555 0 5.24411 0 8.97373C0 13.0705 4.48224 16.3498 6.00001 17.3427V20.7238H7.99999V17.3427C9.51776 16.3497 14 13.0705 14 8.97373C14.0001 5.24411 10.2791 1.91646 7.00003 0ZM8.00006 14.9191V11.3377L10.7071 8.68695L9.2929 7.3022L6.99997 9.5473L4.70703 7.3022L3.29282 8.68695L5.99988 11.3377V14.9199C5.59523 14.6077 5.14483 14.2339 4.69436 13.8082C3.46514 12.6466 1.99991 10.8649 1.99991 8.97373C1.99991 5.94318 5.63344 3.22416 7.00077 2.30844C7.53699 2.66698 8.42171 3.30408 9.30544 4.13923C10.5347 5.30086 11.9999 7.08254 11.9999 8.97373C12.0001 11.4203 9.6322 13.6635 8.00006 14.9191Z" fill="white"/>
</svg>
