<svg width="16" height="14" viewBox="0 0 16 14" fill="none" xmlns="http://www.w3.org/2000/svg">
<path d="M13.992 12.6386C10.1215 15.8514 -2.29839 4.1846 2.00275 1.01383L2.5699 0.61472C3.30233 0.343905 3.65512 0.422772 4.27151 0.61472L4.88017 1.01383C5.75822 2.21916 5.9528 2.90441 5.83931 4.14357C5.42634 4.77983 4.14397 4.60556 3.92103 5.4849C3.69809 6.36423 7.27803 10.4031 9.19631 10.4031C11.1146 10.4031 9.6789 9.62528 11.1146 9.06175C12.5503 8.49822 13.1387 8.5737 13.992 9.06175L14.4812 9.63258C15.4014 10.5598 15.3101 11.113 14.4812 12.1375L13.992 12.6386Z" stroke="#FAFAFA" stroke-width="0.892703"/>
</svg>
