<svg width="35" height="35" viewBox="0 0 35 35" fill="none" xmlns="http://www.w3.org/2000/svg">
<path d="M27.2767 11.8478C27.7666 11.6476 28.3264 11.8844 28.5265 12.3742C28.5382 12.4051 28.5758 12.504 28.5939 12.5569C28.63 12.6625 28.6773 12.8118 28.729 13.0023C28.8325 13.3835 28.9533 13.9304 29.036 14.6248C29.2016 16.0153 29.2135 17.9929 28.6298 20.4092C28.0461 22.8255 27.1328 24.5796 26.3508 25.7412C25.9602 26.3213 25.603 26.7527 25.337 27.0445C25.2041 27.1906 25.0937 27.3017 25.0134 27.3792C24.9732 27.418 24.9405 27.4485 24.9161 27.4706L24.8859 27.4977C24.4843 27.8421 23.8623 27.8105 23.5178 27.4088C23.1743 27.0082 23.2194 26.4056 23.618 26.0607C23.6285 26.0511 23.6566 26.0254 23.6827 26.0002C23.7349 25.9499 23.8164 25.868 23.9206 25.7538C24.1288 25.5253 24.427 25.1672 24.7611 24.6708C25.4286 23.6795 26.2418 22.1332 26.767 19.9592C27.2922 17.7852 27.2744 16.0381 27.1331 14.8514C27.0623 14.2573 26.9605 13.8026 26.8795 13.5041C26.8391 13.355 26.7784 13.1735 26.7549 13.1049C26.5578 12.616 26.7882 12.0474 27.2767 11.8478Z" fill="#2DAD82"/>
<path fill-rule="evenodd" clip-rule="evenodd" d="M23.6644 14.3922C24.1744 14.251 24.7023 14.55 24.8434 15.0599L23.92 15.3156C24.8434 15.0599 24.8434 15.0599 24.8434 15.0599L24.844 15.0618L24.8445 15.0637L24.8457 15.0681L24.8483 15.078L24.8548 15.1037C24.8596 15.1234 24.8653 15.1481 24.8716 15.1779C24.8841 15.2375 24.8989 15.3172 24.9133 15.4174C24.9423 15.6178 24.9698 15.8991 24.9749 16.262C24.985 16.9887 24.9054 18.0375 24.5724 19.4162C24.2394 20.7949 23.8314 21.7645 23.4906 22.4062C23.3205 22.727 23.1677 22.9646 23.0504 23.1297C22.9918 23.2122 22.9422 23.2765 22.9038 23.3237C22.8847 23.3474 22.8683 23.3668 22.8551 23.3821L22.8376 23.4019L22.8307 23.4097L22.8277 23.4129L22.8264 23.4145C22.8264 23.4145 22.825 23.4159 22.1201 22.7668L22.8251 23.4159C22.4666 23.8052 21.8605 23.8303 21.4711 23.4718C21.0851 23.1164 21.0571 22.5174 21.4061 22.1279L21.4154 22.1166C21.4282 22.1007 21.4531 22.069 21.4879 22.0201C21.5574 21.9223 21.6667 21.755 21.798 21.5078C22.0602 21.0137 22.4126 20.1955 22.7096 18.9663C23.0065 17.7369 23.0664 16.848 23.0586 16.2888C23.0547 16.0089 23.0338 15.8102 23.0166 15.6914C23.008 15.632 23.0004 15.5924 22.9962 15.5724L22.9931 15.5583C22.8604 15.0523 23.1586 14.5321 23.6644 14.3922Z" fill="#2DAD82"/>
<path fill-rule="evenodd" clip-rule="evenodd" d="M19.028 4.53326C21.9787 5.24601 23.7277 8.42212 22.2215 11.0936L21.3859 12.5757C20.4023 14.3202 18.3025 15.1156 16.3235 14.6503C16.2913 14.6477 16.1134 14.6381 15.888 14.7611C15.6002 14.9182 15.0145 15.4122 14.6249 17.0252C14.2353 18.6377 14.5306 19.3446 14.7151 19.616C14.8595 19.8286 15.0223 19.9014 15.0521 19.9137C17.0253 20.4031 18.5305 22.0692 18.6092 24.0704L18.6762 25.7705C18.7968 28.8349 15.7909 30.8624 12.8402 30.1497C11.2618 29.7685 9.59544 28.9975 8.60221 27.502C7.13027 25.2858 5.41487 21.1607 6.86657 15.1512C8.31825 9.14153 11.7274 6.25441 14.0487 4.95446C15.6151 4.07728 17.4497 4.15201 19.028 4.53326ZM20.5521 10.1524C21.3234 8.78443 20.5202 6.86521 18.578 6.39607C17.2163 6.06714 15.9475 6.08757 14.9851 6.62653C13.0493 7.71058 10.0358 10.1929 8.72943 15.6011C7.42302 21.0094 8.97102 24.5936 10.1986 26.4418C10.8089 27.3607 11.9284 27.958 13.2902 28.2868C15.2323 28.756 16.823 27.415 16.7613 25.8459L16.6943 24.1458C16.6527 23.0882 15.8257 22.072 14.573 21.7694C14.45 21.7397 13.6992 21.5305 13.1301 20.6933C12.5475 19.8361 12.2913 18.5244 12.7621 16.5753C13.2331 14.6254 14.0602 13.5753 14.9701 13.0789C15.8589 12.5939 16.6219 12.7509 16.7443 12.7805C17.997 13.0831 19.1967 12.5565 19.7165 11.6346L20.5521 10.1524Z" fill="#2DAD82"/>
</svg>
