<svg width="29" height="28" viewBox="0 0 29 28" fill="none" xmlns="http://www.w3.org/2000/svg">
<path fill-rule="evenodd" clip-rule="evenodd" d="M0 1.4C0 0.626801 0.649187 0 1.45 0H4.35C5.04119 0 5.63629 0.471043 5.77184 1.12544L6.11871 2.8H27.55C28.0525 2.8 28.5192 3.05123 28.7834 3.46398C29.0476 3.87672 29.0717 4.39212 28.8469 4.8261L23.0469 16.0261C22.8013 16.5004 22.2992 16.8 21.75 16.8H7.85061L4.95061 19.6L21.75 19.6C24.1524 19.6 26.1 21.4804 26.1 23.8C26.1 26.1196 24.1524 28 21.75 28C19.3476 28 17.4 26.1196 17.4 23.8C17.4 23.3091 17.4872 22.8379 17.6475 22.4H11.3525C11.5128 22.8379 11.6 23.3091 11.6 23.8C11.6 26.1196 9.65244 28 7.25 28C4.84756 28 2.9 26.1196 2.9 23.8C2.9 23.1334 3.06083 22.5031 3.34706 21.9433C1.92734 21.0327 1.50879 18.9633 2.9 17.6201L5.67597 14.9399L3.16128 2.8H1.45C0.649187 2.8 0 2.1732 0 1.4ZM8.43871 14H20.8538L25.2038 5.6H6.69871L8.43871 14ZM7.25 22.4C6.44919 22.4 5.8 23.0268 5.8 23.8C5.8 24.5732 6.44919 25.2 7.25 25.2C8.05081 25.2 8.7 24.5732 8.7 23.8C8.7 23.0268 8.05081 22.4 7.25 22.4ZM21.75 22.4C20.9492 22.4 20.3 23.0268 20.3 23.8C20.3 24.5732 20.9492 25.2 21.75 25.2C22.5508 25.2 23.2 24.5732 23.2 23.8C23.2 23.0268 22.5508 22.4 21.75 22.4Z" fill="#F4F4F5"/>
</svg>
