<svg width="173" height="177" viewBox="0 0 173 177" fill="none" xmlns="http://www.w3.org/2000/svg">
<g filter="url(#filter0_d_397_3126)">
<path d="M155.861 63.6234H105.574V14.9163C105.574 7.23065 99.3634 1 91.7021 1H84.7659C77.1046 1 70.8936 7.23065 70.8936 14.9163V63.6234H20.6064C13.9026 63.6234 8.46817 69.075 8.46817 75.8C8.46817 81.6959 12.6456 86.6125 18.193 87.7352L5 150.6C5 160.207 11.9361 168.213 22.3405 167.996C32.7448 167.778 38.9861 157.558 52.7489 157.558C86.237 157.558 129.851 167.996 129.851 167.996C139.428 167.996 147.191 160.207 147.191 150.6L160.53 87.0424C164.916 85.2073 168 80.8656 168 75.8C168 69.0752 162.565 63.6234 155.861 63.6234ZM77.8296 18.3954C77.8296 12.631 82.4877 7.95813 88.2339 7.95813C93.9801 7.95813 98.6382 12.631 98.6382 18.3954V63.6234H77.8296V18.3954ZM139.739 147.241C137.589 155.387 133.627 161.038 126.088 161.038C126.088 161.038 87.8915 151.415 57.1849 150.649L65.2877 122.905C65.8263 121.061 64.7726 119.128 62.9346 118.588C61.0965 118.048 59.17 119.104 58.6314 120.948L49.8906 150.876C39.123 152.524 29.9756 161.037 22.3405 161.037C13.8871 161.037 9.30905 154.429 11.9361 147.241C14.5632 140.053 26.3249 87.8568 26.3249 87.8568L150.66 87.9767C150.659 87.9769 141.888 139.095 139.739 147.241ZM155.861 81.0188H20.6064C17.7333 81.0188 15.4043 78.6822 15.4043 75.8002C15.4043 72.9181 17.7335 70.5817 20.6064 70.5817H155.862C158.735 70.5817 161.064 72.9183 161.064 75.8002C161.064 78.6822 158.734 81.0188 155.861 81.0188Z" fill="white"/>
<path d="M155.861 63.1234H106.074V14.9163C106.074 6.956 99.641 0.5 91.7021 0.5H84.7659C76.827 0.5 70.3936 6.956 70.3936 14.9163V63.1234H20.6064C13.625 63.1234 7.96817 68.8004 7.96817 75.8C7.96817 81.7621 12.0719 86.7629 17.6023 88.1155L4.51066 150.498L4.5 150.548V150.6C4.5 160.456 11.6354 168.719 22.3509 168.496C27.2741 168.393 31.2911 166.109 35.4361 163.752C35.7998 163.545 36.1644 163.338 36.5308 163.131C41.0983 160.557 46.0037 158.058 52.7489 158.058C69.4501 158.058 88.6924 160.662 103.773 163.27C111.31 164.573 117.802 165.876 122.409 166.854C124.713 167.343 126.545 167.75 127.801 168.035C128.429 168.177 128.913 168.289 129.239 168.365C129.323 168.385 129.396 168.402 129.459 168.417C129.519 168.431 129.569 168.443 129.61 168.452L129.703 168.475L129.727 168.48L129.733 168.482L129.734 168.482C129.734 168.482 129.735 168.482 129.851 167.996L129.735 168.482L129.792 168.496H129.851C139.688 168.496 147.663 160.51 147.691 150.652L160.966 87.3989C165.403 85.4318 168.5 80.9795 168.5 75.8C168.5 68.8005 162.843 63.1234 155.861 63.1234ZM103.243 155.639C90.0343 153.171 73.0738 150.606 57.8467 150.166L65.7677 123.045C66.3832 120.938 65.1794 118.727 63.0757 118.108L63.0755 118.108C60.971 117.49 58.7672 118.7 58.1515 120.808L49.4994 150.432C44.1761 151.314 39.2591 153.816 34.7945 156.088L34.7141 156.129C32.4155 157.299 30.2421 158.402 28.1694 159.216C26.0968 160.029 24.1602 160.537 22.3405 160.537C18.2465 160.537 15.1501 158.941 13.3861 156.539C11.623 154.137 11.1432 150.867 12.4058 147.413L11.9361 147.241L12.4058 147.413C13.0738 145.585 14.3084 140.944 15.7778 135.051C17.2508 129.143 18.9679 121.942 20.6025 114.967C22.2372 107.992 23.7897 101.242 24.9335 96.2361C25.5054 93.7329 25.9752 91.6657 26.302 90.2241C26.4654 89.5034 26.5931 88.9391 26.6799 88.5549L26.7245 88.3571L150.066 88.4761C150.002 88.8523 149.907 89.4024 149.786 90.1041C149.542 91.5176 149.191 93.546 148.763 96.0056C147.907 100.925 146.743 107.568 145.513 114.466C143.049 128.278 140.323 143.066 139.255 147.114C138.19 151.15 136.689 154.512 134.564 156.859C132.467 159.174 129.744 160.522 126.149 160.537L126.098 160.525C126.024 160.506 125.915 160.479 125.771 160.444C125.483 160.373 125.056 160.269 124.503 160.136C123.397 159.871 121.782 159.492 119.75 159.034C115.684 158.119 109.944 156.891 103.243 155.639ZM78.3296 18.3954C78.3296 12.9056 82.7653 8.45813 88.2339 8.45813C93.7025 8.45813 98.1382 12.9056 98.1382 18.3954V63.1234H78.3296V18.3954ZM155.861 80.5188H20.6064C18.011 80.5188 15.9043 78.4075 15.9043 75.8002C15.9043 73.1928 18.0112 71.0817 20.6064 71.0817H155.862C158.457 71.0817 160.564 73.1929 160.564 75.8002C160.564 78.4075 158.457 80.5188 155.861 80.5188Z" stroke="white"/>
</g>
<defs>
<filter id="filter0_d_397_3126" x="0" y="0" width="173" height="177" filterUnits="userSpaceOnUse" color-interpolation-filters="sRGB">
<feFlood flood-opacity="0" result="BackgroundImageFix"/>
<feColorMatrix in="SourceAlpha" type="matrix" values="0 0 0 0 0 0 0 0 0 0 0 0 0 0 0 0 0 0 127 0" result="hardAlpha"/>
<feOffset dy="4"/>
<feGaussianBlur stdDeviation="2"/>
<feComposite in2="hardAlpha" operator="out"/>
<feColorMatrix type="matrix" values="0 0 0 0 0 0 0 0 0 0 0 0 0 0 0 0 0 0 0.25 0"/>
<feBlend mode="normal" in2="BackgroundImageFix" result="effect1_dropShadow_397_3126"/>
<feBlend mode="normal" in="SourceGraphic" in2="effect1_dropShadow_397_3126" result="shape"/>
</filter>
</defs>
</svg>
