<svg width="22" height="23" viewBox="0 0 22 23" fill="#2DAD82" xmlns="http://www.w3.org/2000/svg">
<path fill-rule="evenodd" clip-rule="evenodd" d="M10.9648 3.1263C6.17201 3.1263 2.2867 7.01161 2.2867 11.8044C2.2867 16.5971 6.17201 20.4824 10.9648 20.4824C15.7575 20.4824 19.6428 16.5971 19.6428 11.8044C19.6428 7.01161 15.7575 3.1263 10.9648 3.1263ZM0.117188 11.8044C0.117188 5.81342 4.97382 0.956787 10.9648 0.956787C16.9557 0.956787 21.8124 5.81342 21.8124 11.8044C21.8124 17.7953 16.9557 22.652 10.9648 22.652C4.97382 22.652 0.117188 17.7953 0.117188 11.8044ZM10.9648 6.38058C11.5639 6.38058 12.0495 6.86624 12.0495 7.46534V11.3551L14.9861 14.2916C15.4097 14.7152 15.4097 15.4021 14.9861 15.8257C14.5625 16.2493 13.8756 16.2493 13.452 15.8257L10.1977 12.5714C9.9943 12.368 9.88001 12.0921 9.88001 11.8044V7.46534C9.88001 6.86624 10.3657 6.38058 10.9648 6.38058Z" fill="#2DAD82"/>
</svg>
