<svg width="130" height="130" viewBox="0 0 130 130" fill="none" xmlns="http://www.w3.org/2000/svg">
<g style="mix-blend-mode:hard-light">
<path fill-rule="evenodd" clip-rule="evenodd" d="M64.84 12.7876C93.8025 12.7876 117.281 36.2664 117.281 65.2289C117.281 94.1915 93.8025 117.67 64.84 117.67C35.8775 117.67 12.3987 94.1915 12.3987 65.2289C12.3987 36.2664 35.8775 12.7876 64.84 12.7876ZM45.8518 46.2407C47.306 44.7865 49.5941 44.6747 51.1766 45.9051L51.5567 46.2407L64.84 59.5241L78.1234 46.2407C79.6987 44.6654 82.2529 44.6654 83.8282 46.2407C85.2824 47.6949 85.3943 49.9831 84.1638 51.5655L83.8282 51.9456L70.5449 65.2289L83.8282 78.5123C85.4036 80.0876 85.4036 82.6418 83.8282 84.2171C82.374 85.6713 80.0859 85.7832 78.5034 84.5527L78.1234 84.2171L64.84 70.9338L51.5567 84.2171C49.9813 85.7925 47.4271 85.7925 45.8518 84.2171C44.3976 82.763 44.2858 80.4748 45.5162 78.8923L45.8518 78.5123L59.1351 65.2289L45.8518 51.9456C44.2764 50.3702 44.2764 47.8161 45.8518 46.2407Z" fill="#D50000"/>
</g>
</svg>
