<svg width="23" height="17" viewBox="0 0 23 17" fill="none" xmlns="http://www.w3.org/2000/svg">
<path d="M22.2372 5.61354C22.4099 5.4763 22.6667 5.60469 22.6667 5.82161V14.875C22.6667 16.0482 21.7148 17 20.5417 17H2.125C0.951823 17 0 16.0482 0 14.875V5.82604C0 5.60469 0.252344 5.48073 0.429427 5.61797C1.42109 6.38828 2.73594 7.36667 7.25156 10.6471C8.18568 11.3289 9.76172 12.7633 11.3333 12.7544C12.9138 12.7677 14.5208 11.3023 15.4195 10.6471C19.9352 7.36667 21.2456 6.38385 22.2372 5.61354ZM11.3333 11.3333C12.3604 11.351 13.8391 10.0406 14.5828 9.50052C20.4576 5.23724 20.9047 4.86536 22.2594 3.80286C22.5161 3.60365 22.6667 3.29375 22.6667 2.96615V2.125C22.6667 0.951823 21.7148 0 20.5417 0H2.125C0.951823 0 0 0.951823 0 2.125V2.96615C0 3.29375 0.150521 3.59922 0.407292 3.80286C1.76198 4.86094 2.20912 5.23724 8.08385 9.50052C8.82761 10.0406 10.3063 11.351 11.3333 11.3333Z" fill="#2DAD82"/>
</svg>
