<svg width="28" height="28" viewBox="0 0 28 28" fill="none" xmlns="http://www.w3.org/2000/svg">
<path d="M12.6517 23.6866C7.82987 22.8697 4.14258 18.8398 4.14258 13.993C4.14258 8.60157 8.73752 4.19043 14.3536 4.19043C19.9696 4.19043 24.5645 8.60157 24.5645 13.993C24.5645 18.8398 20.8772 22.8697 16.0554 23.6866L15.4881 23.2509H13.219L12.6517 23.6866Z" fill="url(#paint0_linear_592_4857)"/>
<path d="M18.3251 16.7163L18.7789 13.9934H16.056V12.0873C16.056 11.3249 16.3396 10.7259 17.5877 10.7259H18.8924V8.22076C18.1549 8.11185 17.3607 8.00293 16.6233 8.00293C14.2975 8.00293 12.6524 9.36439 12.6524 11.815V13.9934H10.0996V16.7163H12.6524V23.6325C13.2196 23.7414 13.7869 23.7959 14.3542 23.7959C14.9215 23.7959 15.4887 23.7414 16.056 23.6325V16.7163H18.3251Z" fill="white"/>
<defs>
<linearGradient id="paint0_linear_592_4857" x1="14.3536" y1="23.1169" x2="14.3536" y2="4.19043" gradientUnits="userSpaceOnUse">
<stop stop-color="#0062E0"/>
<stop offset="1" stop-color="#19AFFF"/>
</linearGradient>
</defs>
</svg>
