<svg width="51" height="51" viewBox="0 0 51 51" fill="none" xmlns="http://www.w3.org/2000/svg">
<path fill-rule="evenodd" clip-rule="evenodd" d="M51 25.5C51 11.4178 39.5822 0 25.5 0C11.4178 0 0 11.4178 0 25.5C0 38.2267 9.32368 48.7766 21.516 50.6918V32.8729H15.0396V25.5H21.516V19.8807C21.516 13.4904 25.3243 9.95819 31.1479 9.95819C33.9378 9.95819 36.8568 10.4566 36.8568 10.4566V16.7322H33.6401C30.4738 16.7322 29.484 18.6973 29.484 20.7162V25.4998H36.5555L35.4258 32.8727H29.4838V50.6916C41.6761 48.78 50.9998 38.23 50.9998 25.4998L51 25.5Z" fill="white"/>
<path fill-rule="evenodd" clip-rule="evenodd" d="M35.4262 32.8727L36.5559 25.4999H29.4844V20.7163C29.4844 18.7009 30.4705 16.7323 33.6405 16.7323H36.8572V10.4567C36.8572 10.4567 33.9384 9.95825 31.1483 9.95825C25.3247 9.95825 21.5164 13.4869 21.5164 19.8808V25.5001H15.04V32.8729H21.5164V50.6918C22.8145 50.8959 24.1449 51.0001 25.5004 51.0001C26.8559 51.0001 28.1863 50.8924 29.4844 50.6918V32.8729H35.4264L35.4262 32.8727Z" fill="#070D0C"/>
</svg>
