<svg width="61" height="61" viewBox="0 0 61 61" fill="none" xmlns="http://www.w3.org/2000/svg">
<circle cx="30.4656" cy="30.1043" r="30.1043" fill="#2DAD82"/>
<path d="M50.2143 30.9003C50.2143 42.5441 41.3547 52.017 30.4648 52.017C24.1779 52.017 18.2724 48.8125 14.5498 43.5143H18.1803C21.2671 46.9498 25.5982 49.0974 30.3904 49.1195C30.4154 49.1201 30.4402 49.1205 30.4648 49.1205C30.4895 49.1205 30.5143 49.1201 30.5393 49.1195C39.9012 49.0763 47.5053 40.9204 47.5053 30.9003C47.5053 27.2908 46.5186 23.9232 44.8185 21.0894H50.1269V12.6801H47.5053V15.3268C45.8918 13.3406 43.9663 11.6307 41.8063 10.282C38.3474 8.12208 34.4255 6.98047 30.4648 6.98047C24.5152 6.98047 18.9053 9.47364 14.6682 14.0008C10.4286 18.5307 8.09375 24.5324 8.09375 30.9003H10.7154C10.7154 19.2565 19.5749 9.78357 30.4648 9.78357C36.7517 9.78357 42.6572 12.9881 46.3797 18.2863H42.7493C39.6626 14.8508 35.3314 12.7032 30.5393 12.6811C30.5143 12.6805 30.4895 12.6801 30.4648 12.6801C30.4402 12.6801 30.4154 12.6805 30.3904 12.6811C21.0284 12.7243 13.4244 20.8802 13.4244 30.9003C13.4244 34.5098 14.411 37.8774 16.1112 40.7112H10.8027V49.1205H13.4244V46.4738C15.0379 48.46 16.9634 50.1699 19.1233 51.5186C22.5822 53.6785 26.5041 54.8201 30.4648 54.8201C36.4172 54.8201 42.0286 52.3253 46.2655 47.7951C50.5025 43.2649 52.8359 37.2648 52.8359 30.9003H50.2143ZM21.3213 42.8123C22.5144 42.2372 23.7539 41.7766 25.0226 41.4348C25.1724 42.0638 25.3361 42.666 25.5137 43.2361C25.8171 44.2094 26.1406 45.0284 26.475 45.7166C24.5657 45.1278 22.8178 44.128 21.3213 42.8123ZM32.9288 42.3497C31.9504 45.4881 30.8892 46.3174 30.4648 46.3174C30.0405 46.3174 28.9792 45.4881 28.0009 42.3497C27.8582 41.8923 27.7255 41.4112 27.6025 40.9097C28.5495 40.7782 29.5057 40.7112 30.4648 40.7112C31.4239 40.7112 32.3802 40.7782 33.3271 40.9097C33.2041 41.4112 33.0714 41.8923 32.9288 42.3497ZM41.5793 40.7111C39.9424 39.8359 38.2181 39.1586 36.4437 38.6892C36.7553 36.7048 36.9451 34.5254 37.0011 32.2832H44.8235C44.5543 35.4608 43.3807 38.3821 41.5793 40.7111ZM44.8235 29.4987H37.0011C36.9451 27.2565 36.7553 25.0958 36.4437 23.1114C38.2181 22.642 39.9424 21.9647 41.5793 21.0895C43.3807 23.4185 44.5543 26.3211 44.8235 29.4987ZM39.6083 18.9884C38.4151 19.5634 37.1756 20.024 35.9069 20.3659C35.7571 19.7369 35.5936 19.1346 35.4158 18.5646C35.1124 17.5913 34.789 16.7722 34.4545 16.0841C36.3639 16.6729 38.1117 17.6727 39.6083 18.9884ZM35.4158 43.2361C35.5936 42.6661 35.7571 42.0638 35.9069 41.4348C37.1756 41.7766 38.4151 42.2373 39.6083 42.8123C38.1117 44.128 36.3639 45.1279 34.4545 45.7166C34.7891 45.0284 35.1124 44.2094 35.4158 43.2361ZM28.0009 19.4509C28.9792 16.3125 30.0405 15.4832 30.4648 15.4832C30.8892 15.4832 31.9504 16.3125 32.9288 19.4509C33.0714 19.9083 33.2041 20.3894 33.3271 20.8909C32.3802 21.0224 31.4239 21.0894 30.4648 21.0894C29.5057 21.0894 28.5495 21.0224 27.6025 20.8909C27.7255 20.3894 27.8582 19.9083 28.0009 19.4509ZM27.0594 23.6407C28.1852 23.8073 29.3233 23.8925 30.4648 23.8925C31.6064 23.8925 32.7444 23.8073 33.8702 23.6407C34.1518 25.453 34.3246 27.4339 34.3786 29.4987H26.551C26.605 27.4339 26.778 25.453 27.0594 23.6407ZM34.3786 32.3019C34.3246 34.3667 34.1517 36.3476 33.8702 38.1599C32.7444 37.9933 31.6064 37.9081 30.4648 37.9081C29.3233 37.9081 28.1852 37.9933 27.0594 38.1599C26.7779 36.3476 26.605 34.3667 26.551 32.3019H34.3786ZM26.475 16.084C26.1406 16.7722 25.8172 17.5913 25.5137 18.5645C25.336 19.1345 25.1724 19.7368 25.0226 20.3658C23.7539 20.024 22.5144 19.5633 21.3213 18.9883C22.8178 17.6726 24.5657 16.6727 26.475 16.084ZM19.3503 21.0895C20.9873 21.9646 22.7116 22.642 24.486 23.1114C24.1744 25.0958 23.9845 27.2565 23.9285 29.4987H16.1062C16.3753 26.3211 17.5489 23.4185 19.3503 21.0895ZM16.1062 32.3019H23.9285C23.9845 34.5441 24.1744 36.7048 24.486 38.6892C22.7116 39.1586 20.9873 39.8359 19.3503 40.711C17.5489 38.3821 16.3753 35.4795 16.1062 32.3019Z" fill="white"/>
</svg>
