<svg width="27" height="28" viewBox="0 0 27 28" fill="none" xmlns="http://www.w3.org/2000/svg">
<path d="M24.4462 11.9711H23.5599V11.9254H13.6572V16.3266H19.8756C18.9684 18.8886 16.5307 20.7278 13.6572 20.7278C10.0114 20.7278 7.05548 17.7718 7.05548 14.126C7.05548 10.4802 10.0114 7.52423 13.6572 7.52423C15.3402 7.52423 16.8712 8.1591 18.037 9.19613L21.1492 6.08394C19.184 4.2525 16.5554 3.12305 13.6572 3.12305C7.58087 3.12305 2.6543 8.04962 2.6543 14.126C2.6543 20.2024 7.58087 25.129 13.6572 25.129C19.7336 25.129 24.6602 20.2024 24.6602 14.126C24.6602 13.3883 24.5843 12.6681 24.4462 11.9711Z" fill="#FFC107"/>
<path d="M3.92188 9.00468L7.5369 11.6558C8.51506 9.23409 10.884 7.52423 13.6562 7.52423C15.3391 7.52423 16.8702 8.1591 18.0359 9.19613L21.1481 6.08394C19.183 4.2525 16.5544 3.12305 13.6562 3.12305C9.42995 3.12305 5.76487 5.50904 3.92188 9.00468Z" fill="#FF3D00"/>
<path d="M13.6548 25.1291C16.4968 25.1291 19.0792 24.0415 21.0317 22.2727L17.6263 19.3911C16.4845 20.2594 15.0892 20.7291 13.6548 20.7279C10.7929 20.7279 8.36288 18.9031 7.44744 16.3564L3.85938 19.1209C5.68036 22.6842 9.37846 25.1291 13.6548 25.1291Z" fill="#4CAF50"/>
<path d="M24.4452 11.9714H23.5589V11.9258H13.6562V16.327H19.8746C19.4406 17.5463 18.6589 18.6118 17.6261 19.3918L17.6278 19.3907L21.0332 22.2724C20.7922 22.4914 24.6592 19.6278 24.6592 14.1264C24.6592 13.3886 24.5833 12.6685 24.4452 11.9714Z" fill="#1976D2"/>
</svg>
