<svg width="11" height="11" viewBox="0 0 11 11" fill="none" xmlns="http://www.w3.org/2000/svg">
<path d="M2.55357 0C3.50193 0 4.27625 0.746822 4.31946 1.68457L4.32143 1.76786V3.6135L6.44482 2.04129C6.57368 1.94582 6.74614 1.93954 6.8805 2.02007L6.92411 2.05032L9.03571 3.74V2.35714H9.82143V4.36857L10.8527 5.19318L10.3616 5.80682L9.82143 5.37429L9.82104 7.07143H10.6071C10.8087 7.07143 10.9749 7.22307 10.9973 7.41832L11 7.46429V10.6071C11 10.8087 10.8484 10.9749 10.6531 10.9973L10.6071 11H0V10.2143H2.96411L3.65161 9.42857H0V8.64286H4.32143V8.66329L5.02661 7.85714H0V7.07143H0.785714V1.76786C0.785714 0.791607 1.57732 0 2.55357 0ZM7.38375 7.85714H6.07082L4.00832 10.2143H5.32125L7.38375 7.85714ZM10.2143 8.50929L8.72261 10.2143H10.2143V8.50929ZM9.74089 7.85714H8.42796L6.36546 10.2143H7.67839L9.74089 7.85714ZM9.03571 4.74571L6.66914 2.85254L4.32143 4.59132V7.07143H5.49961L5.5 5.5C5.5 5.29846 5.65164 5.13229 5.84689 5.10989L5.89286 5.10714H7.46429C7.66582 5.10714 7.832 5.25879 7.85439 5.45404L7.85714 5.5L7.85675 7.07143H9.03532L9.03571 4.74571ZM2.55357 0.785714C2.03304 0.785714 1.60679 1.19114 1.57339 1.70343L1.57143 1.76786V7.07143H3.53571V1.76786C3.53571 1.22532 3.09611 0.785714 2.55357 0.785714ZM7.07143 5.89286H6.28571V7.07143H7.07143V5.89286Z" fill="white"/>
</svg>
