<svg width="51" height="51" viewBox="0 0 51 51" fill="none" xmlns="http://www.w3.org/2000/svg">
<g clip-path="url(#clip0_299_2532)">
<path d="M25.5225 12.5068C25.074 12.5068 24.6304 12.5296 24.1934 12.5744C23.7563 12.6192 23.3253 12.6855 22.9017 12.7726C22.478 12.8597 22.0619 12.9675 21.6541 13.0948L20.4571 13.5343L19.3175 14.0846L18.2421 14.7389L17.2373 15.4905L16.3101 16.3327L15.467 17.2591L14.7147 18.2628L14.0595 19.3372L13.5089 20.4755C13.3434 20.8648 13.1962 21.264 13.0687 21.6715C12.9413 22.0789 12.8335 22.4949 12.7462 22.9181C12.659 23.3412 12.5926 23.7718 12.5477 24.2085C12.5028 24.6452 12.4802 25.0883 12.4802 25.5363C12.4802 25.9843 12.5031 26.4274 12.5477 26.8641C12.5921 27.2974 12.6583 27.7281 12.7462 28.1547C12.8335 28.5795 12.9413 28.9938 13.0687 29.4013C13.1962 29.8088 13.3432 30.2078 13.5089 30.5973L14.0595 31.7356L14.7147 32.8098L15.467 33.8137L16.3101 34.7401L17.2373 35.5823L18.2421 36.3339L19.3175 36.9882L20.4571 37.5385L21.6541 37.978L22.9017 38.3002C23.3286 38.388 23.7598 38.4542 24.1934 38.4985C24.635 38.5436 25.0786 38.5661 25.5225 38.566C25.971 38.566 26.4146 38.5432 26.8515 38.4985C27.2851 38.4542 27.7162 38.388 28.1432 38.3002L29.391 37.978L30.5879 37.5385L31.7274 36.9882L32.8029 36.3339L33.8077 35.5823L34.7351 34.7401L35.5782 33.8137L36.3305 32.8098L36.9857 31.7356L37.5363 30.5973L37.9765 29.4013C38.1039 28.9938 38.2117 28.5779 38.299 28.1547L38.4975 26.864C38.5423 26.4272 38.5651 25.9841 38.5651 25.5361C38.5651 25.0881 38.5423 24.645 38.4975 24.2083C38.4531 23.7751 38.3869 23.3444 38.299 22.9179C38.2117 22.4931 38.1039 22.0789 37.9765 21.6713L37.5363 20.4753L36.9857 19.337L36.3305 18.2626L35.5782 17.2589L34.7351 16.3326L33.8077 15.4903L32.8029 14.7387L31.7274 14.0844L30.5879 13.5341L29.391 13.0946L28.1432 12.7724L26.8515 12.5742C26.4099 12.5291 25.9664 12.5066 25.5225 12.5066V12.5068ZM25.5225 17.0041C25.8191 17.0041 26.1117 17.0188 26.3999 17.0479L27.2495 17.1764L28.0702 17.3856L28.856 17.671L29.6032 18.0288L30.3058 18.4544L30.9626 18.9441L31.5681 19.4934L32.1178 20.0982L32.608 20.7544L33.0341 21.4579L33.3919 22.2046C33.4994 22.4601 33.5948 22.722 33.6778 22.9898C33.7608 23.2576 33.8306 23.5313 33.887 23.81C33.9433 24.0887 33.985 24.3724 34.0156 24.6604L34.0593 25.5371C34.0593 25.8333 34.0446 26.1258 34.0156 26.414C33.9865 26.7022 33.9437 26.9859 33.887 27.2644C33.8303 27.543 33.7603 27.8167 33.6778 28.0846L33.3919 28.8698L33.0341 29.6165L32.608 30.3199L32.1178 30.9762L31.5681 31.581L30.9626 32.1303L30.3058 32.62L29.6032 33.0456L28.856 33.4034L28.0702 33.6888L27.2495 33.898L26.3999 34.0264C26.1083 34.0556 25.8154 34.0702 25.5224 34.0702C25.2292 34.0702 24.9363 34.0556 24.6447 34.0264L23.7951 33.898C23.5162 33.8414 23.2423 33.7715 22.9742 33.6888L22.1883 33.4034L21.4412 33.0456L20.7386 32.62L20.0818 32.1303L19.4763 31.581L18.9265 30.9762L18.4364 30.3199L18.0103 29.6165L17.6525 28.8698L17.3666 28.0846L17.1574 27.2644L17.0288 26.414C16.9996 26.1226 16.985 25.83 16.9851 25.5371C16.985 25.2443 16.9996 24.9517 17.0288 24.6604C17.0578 24.3724 17.1007 24.0886 17.1574 23.81C17.2135 23.5333 17.2834 23.2597 17.3667 22.99L17.6526 22.2047L18.0104 21.4581L18.4366 20.7545L18.9267 20.0984L19.4765 19.4935L20.082 18.9443L20.7388 18.4546L21.4413 18.029L22.1885 17.6712C22.4457 17.5632 22.708 17.4679 22.9745 17.3857L23.7954 17.1766C24.0743 17.1201 24.3582 17.0769 24.645 17.048C24.9366 17.0188 25.2296 17.0042 25.5227 17.0042L25.5225 17.0041Z" fill="white"/>
<path d="M39.0937 8.80029C38.9902 8.80031 38.8867 8.80555 38.7836 8.81598C38.6806 8.82639 38.5781 8.84199 38.4766 8.86271C38.3751 8.8834 38.2748 8.90919 38.1758 8.93999C38.0769 8.9708 37.9796 9.00657 37.8842 9.04717C37.7888 9.08781 37.6955 9.13323 37.6046 9.18326C37.5138 9.2332 37.4254 9.28767 37.34 9.34649C37.2545 9.40536 37.172 9.46851 37.0928 9.53569C37.0136 9.6028 36.9378 9.67385 36.8657 9.74857C36.7935 9.82335 36.7251 9.90171 36.6608 9.98336C36.5964 10.065 36.5362 10.1499 36.4802 10.2376C36.4243 10.3252 36.3728 10.4156 36.3258 10.5085C36.2788 10.6014 36.2364 10.6966 36.1989 10.7937C36.1614 10.8909 36.1287 10.9899 36.101 11.0903C36.0733 11.1907 36.0506 11.2925 36.033 11.3952C36.0155 11.4978 36.003 11.6013 35.9956 11.7053C35.9904 11.7789 35.9878 11.8527 35.9878 11.9265C35.9878 12.0308 35.993 12.135 36.0033 12.2387C36.0137 12.3424 36.0291 12.4455 36.0497 12.5477C36.0703 12.6498 36.0959 12.7509 36.1265 12.8504C36.1571 12.95 36.1927 13.048 36.233 13.144C36.2734 13.2401 36.3185 13.334 36.3681 13.4255C36.4178 13.517 36.4719 13.606 36.5304 13.692C36.5889 13.778 36.6516 13.861 36.7183 13.9407C36.785 14.0204 36.8556 14.0968 36.9299 14.1694C37.0042 14.242 37.082 14.3108 37.1632 14.3756C37.2443 14.4404 37.3286 14.5011 37.4158 14.5575C37.5029 14.6138 37.5929 14.6657 37.6852 14.713C37.7775 14.7603 37.872 14.803 37.9685 14.8408C38.065 14.8785 38.1633 14.9114 38.2631 14.9393C38.3629 14.9671 38.464 14.9899 38.566 15.0076C38.668 15.0253 38.7709 15.0379 38.8741 15.0453C38.9473 15.0505 39.0206 15.0532 39.0939 15.0532C39.1974 15.0532 39.3009 15.048 39.404 15.0376C39.507 15.0272 39.6095 15.0116 39.711 14.9909C39.8125 14.9702 39.9129 14.9444 40.0118 14.9136C40.1107 14.8828 40.208 14.8471 40.3034 14.8065C40.3988 14.7659 40.4921 14.7205 40.583 14.6705C40.6738 14.6205 40.7622 14.566 40.8476 14.5071C40.9331 14.4483 41.0156 14.3852 41.0948 14.3181C41.174 14.2509 41.2498 14.1798 41.3219 14.105C41.3941 14.0303 41.4625 13.9519 41.5268 13.8703C41.5912 13.7886 41.6514 13.7038 41.7074 13.616C41.7633 13.5283 41.8148 13.4379 41.8618 13.345C41.9088 13.2521 41.9512 13.1569 41.9887 13.0597C42.0262 12.9626 42.0589 12.8636 42.0866 12.7632C42.1143 12.6628 42.137 12.561 42.1546 12.4583C42.1722 12.3556 42.1846 12.2521 42.192 12.1482C42.1972 12.0746 42.1998 12.0008 42.1998 11.927C42.1998 11.8228 42.1946 11.7186 42.1843 11.6149C42.174 11.5112 42.1585 11.4081 42.1379 11.306C42.1173 11.2038 42.0917 11.1028 42.0611 11.0032C42.0305 10.9036 41.9949 10.8056 41.9546 10.7096C41.9142 10.6136 41.8691 10.5196 41.8195 10.4281C41.7698 10.3366 41.7157 10.2477 41.6572 10.1616C41.5987 10.0756 41.5359 9.99251 41.4692 9.91278C41.4025 9.83303 41.332 9.75669 41.2577 9.68404C41.1834 9.61143 41.1056 9.54262 41.0244 9.47785C40.9433 9.41309 40.859 9.35245 40.7718 9.29616C40.6847 9.23983 40.5947 9.18791 40.5024 9.14062C40.4102 9.0933 40.3156 9.05066 40.2191 9.01285C40.1226 8.97509 40.0243 8.94221 39.9245 8.91433C39.8248 8.88645 39.7237 8.8636 39.6216 8.84588C39.5196 8.82819 39.4167 8.81565 39.3135 8.8083C39.2403 8.80307 39.167 8.80046 39.0937 8.80046V8.80029Z" fill="white"/>
<path d="M23.0492 0.0461294C21.6307 0.0438421 20.3648 0.0497231 19.2277 0.0657347L16.1789 0.147427C15.2758 0.186639 14.4778 0.237774 13.7615 0.303945C13.4034 0.336949 13.0655 0.373874 12.7453 0.414556C12.4405 0.452964 12.1366 0.497689 11.8337 0.548697C11.5454 0.597712 11.2717 0.650646 11.0093 0.708157C10.7469 0.765668 10.4963 0.827757 10.2545 0.894417C10.0181 0.959602 9.78354 1.0313 9.5511 1.10943C9.32335 1.18622 9.10114 1.26759 8.88172 1.35451C8.44287 1.52835 8.0148 1.72343 7.57399 1.94203C7.23481 2.11032 6.92144 2.28073 6.62375 2.46111C6.32607 2.64148 6.04407 2.83199 5.76795 3.03949C5.48359 3.25422 5.20951 3.48223 4.94661 3.72276C4.6718 3.97306 4.39111 4.24836 4.09947 4.55602C3.733 4.94046 3.41456 5.29893 3.13191 5.65069C2.99058 5.82649 2.85824 6.00033 2.73358 6.17515C2.61029 6.34744 2.49244 6.52354 2.38018 6.70321C2.26908 6.8813 2.16386 7.06266 2.06321 7.24924C1.961 7.43904 1.8644 7.63181 1.77353 7.82729C1.5876 8.2266 1.41409 8.65663 1.2409 9.13665C1.11242 9.49152 0.997368 9.85112 0.895997 10.2147C0.792574 10.5862 0.700589 10.9749 0.61857 11.3953C0.536551 11.8157 0.464989 12.2677 0.402086 12.7677C0.334302 13.3157 0.28015 13.8654 0.239682 14.4161C0.193935 15.0216 0.15603 15.6879 0.124987 16.4295L0.0514642 18.8953L0.0119251 21.901L0.000488281 25.5342L0.033982 30.8176L0.138548 34.8205L0.219096 36.384L0.319741 37.6797C0.352004 38.0289 0.392371 38.3773 0.440809 38.7247C0.484922 39.0332 0.532303 39.3031 0.583279 39.5367C0.686713 40.0117 0.809021 40.4824 0.949913 40.9477C1.08482 41.3932 1.23909 41.8325 1.41229 42.2646C1.58254 42.6877 1.76879 43.0959 1.97139 43.4886C2.17399 43.8814 2.39292 44.2588 2.62819 44.6214C2.86347 44.9839 3.11508 45.3316 3.38368 45.6644C3.65198 45.9973 3.93736 46.316 4.23867 46.6192C4.54044 46.9231 4.85871 47.2123 5.19414 47.4871C5.53354 47.7651 5.88632 48.0263 6.25124 48.2698C6.58993 48.4962 6.92503 48.7035 7.26258 48.8939C7.60014 49.0842 7.94063 49.2569 8.2906 49.4139C8.64057 49.5709 8.99936 49.7123 9.37416 49.8394C9.74896 49.9665 10.1395 50.0796 10.5522 50.1799C10.9649 50.2802 11.4018 50.3683 11.8641 50.445C12.3265 50.5218 12.8207 50.5877 13.3488 50.6444C13.8769 50.7011 14.4402 50.748 15.0455 50.7872C15.6509 50.8264 16.2979 50.8578 16.9931 50.8829C18.067 50.9218 19.6927 50.9445 21.5673 50.9532L27.6363 50.9409L33.3831 50.8604L35.5682 50.7989L36.9918 50.7257C37.2973 50.7009 37.5963 50.6715 37.8848 50.637C38.1734 50.6025 38.458 50.5632 38.7351 50.5184C39.0122 50.4736 39.2831 50.4236 39.5492 50.3681C39.8123 50.3133 40.074 50.2521 40.3341 50.1846C40.5916 50.1193 40.8455 50.0449 41.0968 49.966C41.3481 49.8871 41.5968 49.8018 41.844 49.7103C42.0926 49.6182 42.3389 49.5201 42.5828 49.4161C42.8284 49.3115 43.0736 49.1997 43.3197 49.0811C43.6976 48.8991 44.0018 48.7473 44.2689 48.5991C44.5202 48.4613 44.7622 48.3071 44.9934 48.1377C45.2214 47.9698 45.4482 47.7786 45.7096 47.5378C45.971 47.297 46.2673 47.0068 46.6341 46.6398C46.9564 46.3176 47.2283 46.0376 47.4627 45.7829C47.6972 45.5282 47.8947 45.2989 48.0679 45.078C48.233 44.8684 48.3868 44.6502 48.5287 44.4242C48.667 44.2036 48.7945 43.9745 48.9244 43.7205C49.1198 43.3382 49.2936 42.9841 49.4493 42.6425C49.6005 42.3132 49.7386 41.9781 49.8633 41.638C49.9862 41.3005 50.0926 40.9573 50.1821 40.6095C50.2743 40.2517 50.3537 39.8739 50.4223 39.4596C50.4909 39.0452 50.5489 38.5943 50.5992 38.0908C50.6496 37.5872 50.6924 37.0307 50.7299 36.4055L50.8296 34.3065L50.9152 31.6961L50.9763 28.7878L50.9998 25.7469L50.9453 19.7744L50.8722 17.0993L50.7726 14.8025L50.6484 13.0118C50.6033 12.5135 50.5546 12.121 50.503 11.8557C50.4459 11.5625 50.382 11.2707 50.3115 10.9804C50.2429 10.698 50.1674 10.4173 50.0852 10.1385C50.0051 9.86693 49.918 9.59742 49.8241 9.33026C49.7313 9.0664 49.633 8.80809 49.53 8.55533C49.4271 8.30258 49.3157 8.05571 49.1997 7.81406C49.0837 7.57241 48.9621 7.33665 48.8345 7.10628C48.7069 6.87591 48.5739 6.65125 48.4349 6.43216C48.2958 6.21306 48.1511 5.99952 48.0003 5.79169C47.8503 5.58453 47.694 5.38211 47.5314 5.18472C47.3696 4.98841 47.2017 4.79727 47.0278 4.61157C46.8542 4.4261 46.6748 4.24618 46.4898 4.07207C46.3047 3.89791 46.114 3.72929 45.9173 3.56624C45.7199 3.40264 45.5174 3.24523 45.3102 3.09422C45.1007 2.94167 44.8867 2.79554 44.6684 2.65603C44.4471 2.51453 44.2216 2.37962 43.9923 2.25149C43.759 2.1212 43.522 1.99763 43.2816 1.88093C42.8826 1.68699 42.5137 1.51495 42.1515 1.36235C41.7954 1.2109 41.4324 1.0764 41.0636 0.959281C40.6928 0.842462 40.3067 0.742308 39.8819 0.655878C39.4571 0.569448 38.9939 0.497395 38.4696 0.436126C37.9453 0.374857 37.3599 0.325353 36.6903 0.28418C36.0208 0.243007 35.2678 0.210655 34.4079 0.184513L31.4856 0.119161L27.7871 0.0755374L23.0509 0.0464535L23.0492 0.0461294ZM25.509 4.53952L32.3389 4.5784L34.9155 4.62807C35.6251 4.648 36.1665 4.67137 36.484 4.69832C36.8974 4.73313 37.2911 4.77675 37.6677 4.82903C38.0291 4.87894 38.3888 4.94101 38.746 5.01513C39.0891 5.08701 39.4164 5.16871 39.7296 5.26086C40.0428 5.35301 40.342 5.45626 40.629 5.57047C40.9161 5.68467 41.1906 5.81032 41.4548 5.94789C41.7169 6.08442 41.9715 6.23467 42.2178 6.39801C42.4629 6.56058 42.6991 6.73572 42.9285 6.92443C43.1579 7.11314 43.3803 7.31541 43.5974 7.53173C43.8266 7.75998 44.0381 7.99247 44.233 8.23232C44.4272 8.47068 44.6068 8.72051 44.771 8.98046C44.937 9.2441 45.0867 9.51775 45.219 9.79983C45.3543 10.0874 45.4758 10.3913 45.585 10.7143C45.6941 11.0373 45.7913 11.3806 45.8774 11.7474C45.9676 12.1362 46.0432 12.5284 46.1039 12.9229C46.1692 13.3412 46.2251 13.7872 46.2725 14.2648C46.3199 14.7424 46.3591 15.2516 46.3914 15.7965C46.4173 16.2336 46.4398 16.8103 46.4589 17.4915L46.5068 19.814L46.5434 25.503L46.5017 31.1866L46.4517 33.5024L46.3829 35.1868C46.3352 35.9754 46.2849 36.6384 46.2248 37.2155C46.1946 37.504 46.1619 37.771 46.1256 38.0215C46.0916 38.2581 46.0514 38.4938 46.0049 38.7283C45.9624 38.9422 45.9131 39.1547 45.857 39.3655C45.8033 39.5666 45.7429 39.7659 45.6758 39.963C45.6083 40.161 45.5348 40.3569 45.4554 40.5505C45.3715 40.7549 45.283 40.9574 45.1899 41.1578C45.1071 41.3367 45.02 41.5107 44.9278 41.6801C44.8367 41.8479 44.7399 42.0124 44.6377 42.1736C44.5364 42.3332 44.4302 42.4882 44.3191 42.6384C44.2086 42.7881 44.0927 42.9337 43.9717 43.075C43.8511 43.2157 43.7254 43.3519 43.5948 43.4834C43.4641 43.6149 43.3285 43.7419 43.188 43.8644C43.0475 43.987 42.9017 44.1046 42.7509 44.218C42.6001 44.3314 42.4441 44.4402 42.2828 44.5444C42.1216 44.6487 41.9552 44.7487 41.7835 44.8441C41.6118 44.9395 41.4347 45.0307 41.2525 45.1174C41.0672 45.2055 40.8793 45.288 40.689 45.3648C40.4923 45.4441 40.2935 45.5179 40.0927 45.5862C39.6842 45.7254 39.2533 45.8476 38.7998 45.953C38.3271 46.0621 37.85 46.1514 37.3699 46.2206C37.1852 46.2475 36.7609 46.2729 36.1531 46.2964L33.837 46.3608L27.2706 46.4461L20.3977 46.4568L17.6986 46.4281L15.946 46.3735L14.6536 46.2827C14.2523 46.2489 13.8791 46.2113 13.5295 46.1686C13.1799 46.126 12.8542 46.0784 12.5479 46.0249C12.2576 45.9747 11.9691 45.9147 11.6828 45.8451C11.4217 45.7816 11.1634 45.7076 10.9083 45.6233C10.6624 45.5416 10.4273 45.4517 10.1986 45.3529C9.96986 45.254 9.74766 45.1457 9.52758 45.0274C9.3075 44.9091 9.08971 44.7807 8.86947 44.6407C8.70331 44.5351 8.5427 44.4283 8.38814 44.315C8.23358 44.2018 8.08424 44.0889 7.94046 43.9706C7.79669 43.8523 7.65863 43.7305 7.52547 43.605C7.3932 43.4801 7.26546 43.3505 7.1425 43.2164C7.01996 43.0828 6.90281 42.9452 6.7904 42.8028C6.67756 42.6597 6.57003 42.5126 6.46805 42.3616C6.36455 42.2084 6.26662 42.0514 6.17445 41.8911C6.08132 41.7293 5.99276 41.562 5.90862 41.3895C5.82307 41.2136 5.74324 41.0351 5.66926 40.8541C5.59411 40.6698 5.52287 40.4796 5.45588 40.2832C5.32191 39.8903 5.20427 39.472 5.10199 39.026C4.99971 38.5799 4.91247 38.1061 4.83862 37.6013C4.76477 37.0964 4.7053 36.5612 4.65791 35.9923C4.62295 35.5732 4.59518 34.9205 4.57394 34.097L4.52949 31.1683L4.54583 23.7025L4.67442 16.5685L4.77245 14.055L4.828 13.2242C4.84728 13.0023 4.86721 12.838 4.88763 12.7393C4.95495 12.4146 5.02275 12.1125 5.09284 11.8297C5.15832 11.5629 5.23116 11.298 5.31129 11.0352C5.38743 10.7872 5.46765 10.5548 5.55342 10.3347C5.63614 10.1216 5.72832 9.91216 5.82971 9.70719C5.92872 9.50786 6.03508 9.31703 6.15059 9.13126C6.2661 8.94549 6.39077 8.76528 6.5267 8.58605C6.66264 8.40682 6.80903 8.22987 6.96833 8.05048C7.12763 7.87108 7.29967 7.68989 7.48626 7.50314C7.70371 7.28445 7.93014 7.07486 8.16495 6.87493C8.38668 6.6863 8.61789 6.50912 8.8577 6.34409C9.09347 6.18071 9.33527 6.0353 9.58705 5.90165C9.83882 5.768 10.1006 5.64726 10.3759 5.53861C10.6512 5.42996 10.9404 5.33275 11.2467 5.24452C11.5685 5.15424 11.8939 5.07722 12.2221 5.01366C12.5672 4.94602 12.9336 4.88703 13.325 4.83557C13.7163 4.7841 14.1326 4.73966 14.5776 4.7011C14.888 4.67431 15.423 4.65045 16.1273 4.63036L18.6908 4.57971L25.5101 4.53804L25.509 4.53952Z" fill="white"/>
</g>
<defs>
<clipPath id="clip0_299_2532">
<rect width="51" height="51" fill="white"/>
</clipPath>
</defs>
</svg>
