<svg width="38" height="32" viewBox="0 0 38 32" fill="none" xmlns="http://www.w3.org/2000/svg">
<path d="M10.1746 29.5358C11.6147 30.6185 13.3012 31.3731 15.0947 31.7375C17.2175 32.1605 18.8886 31.8963 20.0589 31.6984C22.6493 31.105 25.1039 30.1112 27.3224 28.7579C33.2949 25.0427 39.4426 12.9503 37.162 0.358489C23.2134 -0.775769 10.5396 4.23764 4.54915 13.7013C1.2334 18.9467 0.747421 24.3346 0.829206 27.8107C3.00793 27.3868 5.15042 26.8285 7.24264 26.1397C19.215 22.1974 27.0303 14.7675 31.5307 9.39942C31.7572 9.12755 26.9367 16.0736 18.6979 23.0568C15.9848 25.3575 13.1398 27.5202 10.1746 29.5358Z" fill="url(#paint0_linear_2087_3449)"/>
<defs>
<linearGradient id="paint0_linear_2087_3449" x1="-5.91218" y1="11.1911" x2="27.5734" y2="16.3677" gradientUnits="userSpaceOnUse">
<stop stop-color="#3BAF71"/>
<stop offset="1" stop-color="#15A99F"/>
</linearGradient>
</defs>
</svg>
