<svg width="9" height="11" viewBox="0 0 9 11" fill="none" xmlns="http://www.w3.org/2000/svg">
<path fill-rule="evenodd" clip-rule="evenodd" d="M7.40334 6.12631C7.34938 6.16172 7.28819 6.1875 7.21875 6.1875H1.03125C0.8415 6.1875 0.6875 6.03384 0.6875 5.84375V3.09375C0.6875 2.904 0.8415 2.75 1.03125 2.75H7.21875C7.29197 2.75 7.35591 2.77784 7.4116 2.81669L8.23728 4.46325L7.40334 6.12631ZM4.8125 9.625C4.8125 10.0045 4.5045 10.3125 4.125 10.3125H3.4375C3.058 10.3125 2.75 10.0045 2.75 9.625V6.875H4.8125V9.625ZM2.75 1.375C2.75 0.9955 3.058 0.6875 3.4375 0.6875H4.125C4.5045 0.6875 4.8125 0.9955 4.8125 1.375V2.0625H2.75V1.375ZM8.84022 4.202L7.81584 2.15944C7.74262 2.08622 7.64535 2.05631 7.54944 2.0625H5.5V1.375C5.5 0.615656 4.88434 0 4.125 0H3.4375C2.67816 0 2.0625 0.615656 2.0625 1.375V2.0625H0.6875C0.308 2.0625 0 2.3705 0 2.75V6.1875C0 6.567 0.308 6.875 0.6875 6.875H2.0625V9.625C2.0625 10.3843 2.67816 11 3.4375 11H4.125C4.88434 11 5.5 10.3843 5.5 9.625V6.875H7.5625V6.86675C7.65394 6.86882 7.74606 6.83718 7.81584 6.76775L8.84022 4.72484C8.91756 4.58047 8.92787 4.53338 8.93819 4.46325C8.943 4.36941 8.91241 4.33262 8.84022 4.202Z" fill="white"/>
</svg>
