<svg width="484" height="112" viewBox="0 0 484 112" fill="none" xmlns="http://www.w3.org/2000/svg">
<path d="M30.0982 91.1113C34.6393 91.102 39.1804 91.0973 43.7168 91.0879C46.6897 91.214 57.6808 91.3307 67.029 83.4386C79.0515 73.2876 78.6314 58.1008 78.5334 54.5258C78.0574 37.2015 67.8831 19.8679 43.7215 19.8679H20.8246V51.1235C9.01219 57.3774 3.02429 66.8657 0 74.8697V0H43.7215C81.8751 0 98.882 27.1812 99.3581 54.6845C99.8341 82.8272 82.6638 111.283 43.7215 111.283H0C0.644061 107.782 1.67082 103.839 3.31365 99.6568C8.06476 87.569 15.6208 79.4902 20.834 74.8651C20.6193 75.5232 18.9345 80.9743 22.3228 85.9448C25.0344 89.9165 29.1648 90.9106 30.0982 91.1113Z" fill="url(#paint0_linear_592_4861)"/>
<path d="M193.462 38.2854C189.99 33.8983 185.859 30.426 181.062 27.8778C176.264 25.3295 171.517 24.0507 166.827 24.0507C162.743 24.0507 158.916 24.8441 155.346 26.4216C151.771 28.0038 148.662 30.1973 146.007 33.0022C143.351 35.8118 141.312 39.1255 139.884 42.9525C138.456 46.7795 137.741 50.938 137.741 55.4277C137.741 59.9175 138.456 64.0759 139.884 67.9029C141.312 71.7299 143.351 75.0715 146.007 77.9278C148.658 80.7841 151.771 83.0056 155.346 84.5878C158.916 86.1699 162.743 86.9587 166.827 86.9587C171.317 86.9587 175.937 85.8106 180.679 83.5144C185.425 81.2181 189.682 78.1332 193.462 74.2548L209.844 91.5511C205.965 95.6348 201.578 99.1819 196.678 102.192C191.777 105.202 186.653 107.527 181.295 109.155C175.937 110.789 170.603 111.606 165.301 111.606C157.236 111.606 149.787 110.201 142.95 107.396C136.113 104.591 130.167 100.661 125.117 95.6068C120.067 90.557 116.109 84.6391 113.253 77.8485C110.397 71.0625 108.969 63.6885 108.969 55.7311C108.969 47.8716 110.397 40.605 113.253 33.917C116.109 27.2337 120.142 21.3905 125.346 16.3873C130.549 11.3889 136.645 7.5105 143.641 4.75224C150.627 1.99864 158.207 0.617188 166.374 0.617188C171.681 0.617188 176.987 1.35925 182.294 2.83872C187.6 4.31819 192.599 6.43707 197.294 9.19066C201.984 11.9443 206.119 15.2112 209.694 18.9869L193.462 38.2854Z" fill="#2EAD81"/>
<path d="M227.555 0.626953H315.105V23.4258H256.528V44.6425H309.406V67.2826H256.528V88.8119H316.687V111.611H227.555V0.626953Z" fill="#2EAD81"/>
<path d="M435.998 105.438C445.382 111.823 463.379 113.566 475.662 109.209C473.981 94.3581 467.142 81.4735 456.964 73.755C490.004 63.0217 492.595 17.2585 460.04 3.16323C460.04 3.16323 455.722 1.36661 450.772 0.63409C445.783 -0.0984302 409.581 -0.337457 359.878 0.688071C356.169 0.819153 352.653 1.72131 349.507 3.24804C338.912 8.3217 332.628 20.5047 335.581 32.6645C336.044 34.6462 338.072 39.45 341.665 45.472C341.68 45.5029 380.365 108.931 380.365 108.931H395.424L441.905 32.8496L408.394 32.7956L387.906 66.3142L365.306 29.2101L444.156 29.1638C444.966 29.1175 445.629 29.1407 446.115 29.1715C447.078 29.2641 447.263 29.2409 448.644 29.7498C451.605 30.8679 454.473 34.0678 454.419 38.1545C454.419 42.6884 451.088 46.7443 446.685 47.0527C446.276 47.1067 437.64 47.0527 437.64 47.0527L425.504 66.931C426.653 69.6143 427.848 72.5136 429.706 75.2124C439.599 89.5312 451.79 99.1696 460.888 103.904C461.343 104.143 449.253 100.488 437.371 89.963C432.528 85.6758 425.033 72.8529 423.592 69.1132C423.592 69.0977 417.315 92.7234 435.998 105.438Z" fill="url(#paint1_linear_592_4861)"/>
<defs>
<linearGradient id="paint0_linear_592_4861" x1="100.511" y1="-10.4809" x2="-3.58495" y2="93.6146" gradientUnits="userSpaceOnUse">
<stop offset="3.99584e-07" stop-color="#3BAF71"/>
<stop offset="1" stop-color="#15A99F"/>
</linearGradient>
<linearGradient id="paint1_linear_592_4861" x1="334.847" y1="55.8046" x2="483.144" y2="55.8046" gradientUnits="userSpaceOnUse">
<stop offset="3.99584e-07" stop-color="#38AE70"/>
<stop offset="1" stop-color="#13A89E"/>
</linearGradient>
</defs>
</svg>
