<svg width="96" height="127" viewBox="0 0 96 127" fill="none" xmlns="http://www.w3.org/2000/svg">
<path d="M44.716 122.556C38.2045 113.244 32.6613 105.454 27.9451 98.8263M44.716 122.556C44.7164 122.557 44.7169 122.557 44.7173 122.558L42.951 123.793L44.7152 122.555C44.7155 122.555 44.7157 122.556 44.716 122.556ZM44.716 122.556L27.9451 98.8263M27.9451 98.8263C19.496 86.9529 13.701 78.8092 9.74752 72.3243C6.69483 67.3169 4.82347 63.4259 3.70075 59.6859C2.58318 55.9632 2.17581 52.2849 2.17581 47.6637C2.17581 22.813 22.6052 2.61783 47.8683 2.61783C73.1314 2.61783 93.5608 22.813 93.5608 47.6637C93.5608 52.2849 93.1534 55.9632 92.0359 59.6859C90.9131 63.4259 89.0418 67.3169 85.9891 72.3243C82.0357 78.8092 76.2406 86.9529 67.7915 98.8263C63.0752 105.454 57.5319 113.244 51.0204 122.556L27.9451 98.8263ZM47.8683 69.4862C60.0416 69.4862 69.9602 59.7435 69.9602 47.6637C69.9602 35.5839 60.0416 25.8412 47.8683 25.8412C35.695 25.8412 25.7764 35.5839 25.7764 47.6637C25.7764 59.7435 35.695 69.4862 47.8683 69.4862Z" fill="#2DAD82" stroke="#FAFAFA" stroke-width="4.31061"/>
</svg>
