<svg width="25" height="28" viewBox="0 0 25 28" fill="none" xmlns="http://www.w3.org/2000/svg">
<path d="M22.7293 13.8999C22.1362 14.4931 21.3475 14.8198 20.5086 14.8198C17.3423 14.8198 14.7662 17.3959 14.7662 20.5622V21.7341C14.1489 22.2654 13.5949 22.8011 13.1255 23.3691V16.4058H14.4529L16.3875 12.5365C16.4476 11.9462 16.2434 10.3425 17.261 8.61764C18.7662 6.06647 18.0344 2.83302 15.7069 1.11704C14.2188 0.0199569 12.3233 -0.286675 10.5065 0.275621C7.12128 1.3236 5.6118 5.27804 7.19473 8.33797C8.41349 10.6943 8.14263 11.9507 8.23133 12.5534L10.1575 16.4058H11.4848V23.3691C11.0155 22.8011 10.4615 22.2653 9.84417 21.7341V20.5622C9.84417 17.3958 7.26812 14.8198 4.10177 14.8198C3.26281 14.8198 2.47417 14.4931 1.88103 13.8999L0 12.0191V17.2809C0 20.4472 2.57605 23.0233 5.7424 23.0233H8.82649C10.0384 24.0751 10.9155 25.099 11.2866 26.3593H8.20344V28H16.4069V26.3593H13.3238C13.6948 25.099 14.5719 24.0751 15.7838 23.0233H18.8679C22.0343 23.0233 24.6103 20.4472 24.6103 17.2809V12.0191L22.7293 13.8999ZM6.76724 21.3825H5.7424C3.48069 21.3825 1.64068 19.5425 1.64068 17.2808V15.7806C2.37628 16.2238 3.22076 16.4604 4.10172 16.4604C6.31322 16.4604 8.12037 18.2199 8.19961 20.4123C7.32428 19.74 6.41117 19.0622 5.43451 18.2808L4.40961 19.562C5.23588 20.2231 6.00993 20.8057 6.76724 21.3825ZM9.82951 11.4837C9.77745 10.6744 9.55263 9.3254 8.65199 7.58421C7.50732 5.37145 8.63717 2.57184 10.9917 1.84296C12.3054 1.43625 13.6692 1.65309 14.7333 2.43763C16.3964 3.66389 16.919 5.96842 15.8479 7.78404C15.2087 8.86756 14.8505 10.1096 14.7792 11.4837H13.1255V6.56172H14.7662V4.92099H9.84412V6.56166H11.4848V11.4837L9.82951 11.4837ZM11.1715 14.7651L10.3511 13.1244H14.2592L13.4388 14.7651H11.1715ZM22.9696 17.2808C22.9696 19.5425 21.1296 21.3825 18.8679 21.3825H17.843C18.5948 20.81 19.3729 20.2243 20.2007 19.5621L19.1758 18.2809C18.199 19.0622 17.286 19.74 16.4107 20.4124C16.4899 18.2199 18.2971 16.4605 20.5085 16.4605C21.3895 16.4605 22.234 16.2239 22.9696 15.7807V17.2808Z" fill="white"/>
</svg>
