<svg width="144" height="180" viewBox="0 0 144 180" fill="none" xmlns="http://www.w3.org/2000/svg">
<g filter="url(#filter0_d_397_3124)">
<path d="M72 2C35.55 2 6 31.6037 6 68.1198C6 107.155 40.362 146.189 59.496 164.901C66.45 171.7 77.55 171.7 84.498 164.901C103.638 146.189 138 107.155 138 68.1198C138 31.6037 108.45 2 72 2ZM80.352 160.525C75.702 165.082 68.304 165.082 63.654 160.525C45.138 142.372 12 104.762 12 68.1198C12 34.9758 38.916 8.01089 72 8.01089C105.084 8.01089 132 34.9758 132 68.1198C132 104.762 98.862 142.372 80.352 160.525ZM72 32.0545C52.116 32.0545 36 48.1997 36 68.1198C36 88.0399 52.116 104.185 72 104.185C91.884 104.185 108 88.0399 108 68.1198C108 48.1997 91.884 32.0545 72 32.0545ZM72 98.1743C55.458 98.1743 42 84.6919 42 68.1198C42 51.5478 55.458 38.0654 72 38.0654C88.542 38.0654 102 51.5478 102 68.1198C102 84.6919 88.542 98.1743 72 98.1743Z" fill="white"/>
<path d="M58.7968 165.616L58.7969 165.616C66.1394 172.794 77.8605 172.795 85.1974 165.616C94.7961 156.232 108.228 141.737 119.266 124.675C130.295 107.627 139 87.9155 139 68.1198C139 31.0531 109.004 1 72 1C34.996 1 5 31.0531 5 68.1198C5 87.9155 13.7051 107.627 24.7331 124.675C35.7707 141.737 49.2011 156.232 58.7968 165.616ZM79.6518 159.811C75.3907 163.986 68.6152 163.986 64.3541 159.811C55.1237 150.762 42.2655 136.878 31.7211 120.71C21.1656 104.525 13 86.1578 13 68.1198C13 35.5263 39.47 9.01089 72 9.01089C104.53 9.01089 131 35.5263 131 68.1198C131 86.1578 122.834 104.525 112.28 120.71C101.736 136.878 88.8793 150.762 79.6518 159.811ZM72 31.0545C51.562 31.0545 35 47.6492 35 68.1198C35 88.5905 51.562 105.185 72 105.185C92.438 105.185 109 88.5905 109 68.1198C109 47.6492 92.438 31.0545 72 31.0545ZM72 97.1743C56.012 97.1743 43 84.1413 43 68.1198C43 52.0984 56.012 39.0654 72 39.0654C87.988 39.0654 101 52.0984 101 68.1198C101 84.1413 87.988 97.1743 72 97.1743Z" stroke="white" stroke-width="2"/>
</g>
<defs>
<filter id="filter0_d_397_3124" x="0" y="0" width="144" height="180" filterUnits="userSpaceOnUse" color-interpolation-filters="sRGB">
<feFlood flood-opacity="0" result="BackgroundImageFix"/>
<feColorMatrix in="SourceAlpha" type="matrix" values="0 0 0 0 0 0 0 0 0 0 0 0 0 0 0 0 0 0 127 0" result="hardAlpha"/>
<feOffset dy="4"/>
<feGaussianBlur stdDeviation="2"/>
<feComposite in2="hardAlpha" operator="out"/>
<feColorMatrix type="matrix" values="0 0 0 0 0 0 0 0 0 0 0 0 0 0 0 0 0 0 0.25 0"/>
<feBlend mode="normal" in2="BackgroundImageFix" result="effect1_dropShadow_397_3124"/>
<feBlend mode="normal" in="SourceGraphic" in2="effect1_dropShadow_397_3124" result="shape"/>
</filter>
</defs>
</svg>
