<svg width="185" height="177" viewBox="0 0 185 177" fill="none" xmlns="http://www.w3.org/2000/svg">
<g filter="url(#filter0_d_397_3127)">
<path d="M80.8 156.923V160.615C80.8 165.046 77.4769 168.369 73.0462 168.369H11.7538C7.32308 168.369 4 165.046 4 160.615V156.923C4 147.692 15.0769 141.785 25.0462 137.354C25.4154 137.354 25.7846 136.985 26.1538 136.615C26.8923 136.246 28 136.246 28.7385 136.615C32.8 139.2 37.6 140.677 42.7692 140.677C47.5692 140.677 52.3692 139.2 56.8 136.615C57.5385 136.246 58.2769 136.246 59.0154 136.615C59.3846 136.615 59.7538 136.985 60.1231 137.354C70.0923 142.154 80.8 147.692 80.8 156.923Z" fill="white"/>
<path d="M42.3992 133.662C53.0031 133.662 61.5992 124.239 61.5992 112.615C61.5992 100.992 53.0031 91.5693 42.3992 91.5693C31.7954 91.5693 23.1992 100.992 23.1992 112.615C23.1992 124.239 31.7954 133.662 42.3992 133.662Z" fill="white"/>
<path d="M125.108 0C93.7229 0 68.6152 24 68.6152 53.5385C68.6152 62.7692 71.1998 72 75.9998 80.1231C76.3691 80.8615 76.7383 81.9692 76.7383 83.0769L70.4614 100.062C69.7229 102.277 71.1999 104.123 73.046 104.862C73.7845 105.231 74.5229 105.231 75.2614 104.862L91.8768 98.9538C92.9845 98.5846 94.0922 98.5846 94.8306 99.3231C103.692 104.492 114.031 107.446 124.369 107.446C155.754 107.446 180.861 83.0769 180.861 53.5385C181.231 24 155.754 0 125.108 0ZM121.046 21.0462H132.123V46.8923L131.015 63.8769H122.154L121.415 46.8923V21.0462H121.046ZM126.584 84.9231C121.415 84.9231 119.938 81.9692 119.938 78.2769C119.938 74.5846 121.415 71.6308 126.584 71.6308C131.754 71.6308 133.231 74.5846 133.231 78.2769C133.6 81.9692 131.754 84.9231 126.584 84.9231Z" fill="white"/>
</g>
<defs>
<filter id="filter0_d_397_3127" x="0" y="0" width="184.865" height="176.369" filterUnits="userSpaceOnUse" color-interpolation-filters="sRGB">
<feFlood flood-opacity="0" result="BackgroundImageFix"/>
<feColorMatrix in="SourceAlpha" type="matrix" values="0 0 0 0 0 0 0 0 0 0 0 0 0 0 0 0 0 0 127 0" result="hardAlpha"/>
<feOffset dy="4"/>
<feGaussianBlur stdDeviation="2"/>
<feComposite in2="hardAlpha" operator="out"/>
<feColorMatrix type="matrix" values="0 0 0 0 0 0 0 0 0 0 0 0 0 0 0 0 0 0 0.25 0"/>
<feBlend mode="normal" in2="BackgroundImageFix" result="effect1_dropShadow_397_3127"/>
<feBlend mode="normal" in="SourceGraphic" in2="effect1_dropShadow_397_3127" result="shape"/>
</filter>
</defs>
</svg>
