<svg width="175" height="160" viewBox="0 0 175 160" fill="none" xmlns="http://www.w3.org/2000/svg">
<path d="M60.5279 117.948L73.2199 105.256C77.3319 107.472 81.8799 108.596 86.4319 108.596C93.5639 108.596 100.696 105.876 106.136 100.436C125.84 80.732 123.024 44.14 123.024 44.14C123.024 44.14 121.22 44 118.192 44C107.596 44 82.0559 45.704 66.7279 61.028C57.8119 69.944 56.2119 83.392 61.9039 93.948L49.2119 106.636L60.5279 117.948Z" fill="white"/>
<path d="M51.252 54.688L45.04 39.944L33.904 44.636C45.612 27.1 65.6 16 87.164 16C122.452 16 151.164 44.712 151.164 80H167.164C167.164 35.888 131.276 0 87.164 0C59.252 0 33.484 14.892 19.104 38.168L15.156 26.488L0 31.612L13.22 70.708L51.252 54.688Z" fill="white"/>
<path d="M123.076 105.312L129.288 120.056L140.424 115.364C128.716 132.9 108.728 144 87.1641 144C51.8761 144 23.1641 115.288 23.1641 80H7.16406C7.16406 124.112 43.0521 160 87.1641 160C115.076 160 140.844 145.108 155.224 121.832L159.172 133.512L174.328 128.388L161.108 89.292L123.076 105.312Z" fill="white"/>
</svg>
