<svg
  width="18"
  height="18"
  viewBox="0 0 18 18"
  fill="#ffff"
  xmlns="http://www.w3.org/2000/svg"
>
  <path d="M16.7155 7.28863C16.516 6.38329 16.1636 5.53331 15.6644 4.75348L16.4007 3.72252L14.2775 1.59926L13.2465 2.33561C12.4667 1.83642 11.6167 1.48402 10.7114 1.28447L10.5036 0H7.49644L7.28859 1.28447C6.38318 1.48402 5.53331 1.83639 4.75348 2.33561L3.72252 1.59926L1.59926 3.72252L2.33561 4.75348C1.83642 5.53331 1.48402 6.38329 1.28447 7.28863L0 7.49644V10.5036L1.28447 10.7114C1.48402 11.6169 1.83639 12.4667 2.33557 13.2465L1.59926 14.2774L3.72252 16.4007L4.75348 15.6644C5.53335 16.1636 6.38318 16.516 7.28859 16.7155L7.49644 18H10.5036L10.7114 16.7155C11.6167 16.516 12.4667 16.1636 13.2465 15.6644L14.2775 16.4007L16.4007 14.2774L15.6644 13.2465C16.1636 12.4667 16.516 11.6169 16.7155 10.7114L18 10.5036V7.49644L16.7155 7.28863ZM16.9453 9.60581L15.8126 9.78908C15.5442 11.3542 15.2483 12.025 14.3755 13.2566L15.0232 14.1634L14.1634 15.0232L13.2565 14.3755C11.9815 15.279 11.3031 15.553 9.78901 15.8126L9.60581 16.9453H8.39419L8.21092 15.8126C6.64931 15.5448 5.97723 15.2498 4.74342 14.3755L3.83657 15.0232L2.97678 14.1634L3.6245 13.2566C2.72443 11.9865 2.44811 11.3097 2.18732 9.78908L1.05469 9.60581V8.39419L2.18735 8.21095C2.4531 6.66134 2.7418 5.98911 3.6245 4.74342L2.97678 3.83657L3.83657 2.97678L4.74342 3.6245C6.0082 2.7282 6.68306 2.44937 8.21092 2.18735L8.39419 1.05469H9.60581L9.78905 2.18735C11.3387 2.4531 12.0109 2.7418 13.2566 3.6245L14.1634 2.97678L15.0232 3.83657L14.3755 4.74342C15.279 6.01843 15.553 6.69688 15.8126 8.21095L16.9453 8.39419V9.60581Z" />
  <path d="M9 3.19922C5.80145 3.19922 3.19922 5.80145 3.19922 9C3.19922 12.1986 5.80145 14.8008 9 14.8008C12.1986 14.8008 14.8008 12.1986 14.8008 9C14.8008 5.80145 12.1986 3.19922 9 3.19922ZM8.47266 7.94531V11.0282C7.94802 10.4932 7.41797 9.75255 7.41797 9C7.41797 7.91234 8.47533 6.92114 9.0025 6.49462C9.61717 6.99064 10.582 7.98465 10.582 9C10.582 9.78458 10.0318 10.5189 9.52734 11.0274V7.94531H8.47266ZM9.52734 13.7166V12.4316C10.1226 11.9735 11.6367 10.6464 11.6367 9C11.6367 6.99451 9.38964 5.4624 9.29401 5.39814L9 5.2007L8.70599 5.39814C8.61036 5.4624 6.36328 6.99451 6.36328 9C6.36328 10.6464 7.87739 11.9735 8.47266 12.4316V13.7166C6.10291 13.4535 4.25391 11.4388 4.25391 9C4.25391 6.383 6.383 4.25391 9 4.25391C11.617 4.25391 13.7461 6.383 13.7461 9C13.7461 11.4388 11.8971 13.4535 9.52734 13.7166Z" />
</svg>
