<svg width="141" height="176" viewBox="0 0 141 176" fill="none" xmlns="http://www.w3.org/2000/svg">
<g filter="url(#filter0_d_397_3125)">
<path d="M57.841 3.60374C65.4271 3.60374 71.5619 9.72517 71.5619 17.2947C71.5619 24.8642 65.4271 30.9856 57.841 30.9856C50.2549 30.9856 44.1201 24.8642 44.1201 17.2947C44.1201 9.72517 50.2549 3.60374 57.841 3.60374ZM108.569 4.65689C108.899 4.32778 109.03 3.93285 109.03 3.4721C109.03 3.07717 108.833 2.61642 108.569 2.28731C107.975 1.69491 106.854 1.69491 106.26 2.28731C105.93 2.61642 105.798 3.01135 105.798 3.4721C105.798 3.93285 105.996 4.32778 106.26 4.65689C106.59 4.986 106.986 5.11765 107.447 5.11765C107.909 5.11765 108.239 4.92018 108.569 4.65689ZM111.339 3.20881C111.273 2.28731 111.999 1.49745 112.857 1.43162C113.78 1.3658 114.572 2.08984 114.638 2.94553C114.704 3.86703 113.978 4.65689 113.12 4.65689C113.054 4.65689 113.054 4.65689 112.988 4.65689C112.131 4.72272 111.405 4.0645 111.339 3.20881ZM116.946 2.94553C116.88 2.02402 117.606 1.23416 118.464 1.16834C119.387 1.10252 120.179 1.82656 120.179 2.74806C120.245 3.66957 119.519 4.52525 118.661 4.52525C118.596 4.52525 118.596 4.52525 118.53 4.52525C117.738 4.52525 117.012 3.80121 116.946 2.94553ZM122.553 2.48477C122.488 1.56327 123.213 0.773406 124.071 0.707585C124.994 0.641763 125.786 1.3658 125.852 2.22149C125.918 3.14299 125.192 3.93285 124.335 3.99868C124.335 3.99868 124.269 3.99868 124.203 3.99868C123.279 4.0645 122.553 3.34046 122.553 2.48477ZM128.095 2.22149C128.029 1.29998 128.754 0.510119 129.612 0.444297C130.535 0.378475 131.327 1.16834 131.393 2.02402C131.459 2.94553 130.733 3.86703 129.876 3.86703C129.876 3.86703 129.81 3.86703 129.744 3.86703C128.886 3.86703 128.161 3.07717 128.095 2.22149ZM136.538 2.81388C136.868 2.48477 137 2.08984 137 1.62909C137 1.16834 136.802 0.773406 136.538 0.444297C135.945 -0.148099 134.823 -0.148099 134.229 0.444297C133.9 0.839228 133.702 1.23416 133.702 1.69491C133.702 2.08984 133.9 2.5506 134.163 2.8797C134.493 3.20881 134.889 3.34046 135.351 3.34046C135.813 3.34046 136.208 3.14299 136.538 2.81388ZM126.05 22.0339C126.38 21.7047 126.511 21.3098 126.511 20.8491C126.511 20.3883 126.314 19.9934 126.05 19.6643C125.456 19.0719 124.335 19.0719 123.741 19.6643C123.411 19.9934 123.279 20.3883 123.279 20.8491C123.279 21.3098 123.477 21.7047 123.741 22.0339C124.071 22.363 124.466 22.4946 124.928 22.4946C125.39 22.4946 125.72 22.363 126.05 22.0339ZM118.2 19.0061C117.408 18.5453 117.144 17.558 117.606 16.7681C118.068 15.9782 119.057 15.715 119.849 16.1757C120.64 16.6365 120.904 17.6238 120.443 18.4137C120.113 18.9402 119.585 19.2693 118.991 19.2693C118.727 19.2035 118.464 19.1377 118.2 19.0061ZM112.395 15.715C111.603 15.2542 111.339 14.2669 111.801 13.477C112.263 12.6872 113.252 12.4239 114.044 12.8846C114.835 13.3454 115.099 14.3327 114.638 15.1226C114.308 15.6491 113.78 15.9782 113.186 15.9782C112.922 15.9124 112.659 15.8466 112.395 15.715ZM108.569 12.1606C108.899 11.8315 109.03 11.4365 109.03 10.9758C109.03 10.515 108.833 10.1201 108.569 9.791C107.975 9.1986 106.854 9.1986 106.26 9.791C105.93 10.1201 105.798 10.515 105.798 10.9758C105.798 11.4365 105.996 11.8315 106.26 12.1606C106.59 12.4897 106.986 12.6213 107.447 12.6213C107.909 12.6213 108.239 12.4239 108.569 12.1606ZM130.799 13.0821C131.129 12.753 131.261 12.358 131.261 11.8973C131.261 11.4365 131.063 11.0416 130.799 10.7125C130.206 10.1201 129.084 10.1201 128.49 10.7125C128.161 11.0416 128.029 11.4365 128.029 11.8973C128.029 12.358 128.227 12.753 128.49 13.0821C128.82 13.4112 129.216 13.5428 129.678 13.5428C130.074 13.6087 130.535 13.4112 130.799 13.0821ZM123.741 12.358C122.883 12.1606 122.29 11.3049 122.488 10.3834C122.685 9.46189 123.543 8.93531 124.466 9.13278C125.39 9.33024 125.918 10.1859 125.72 11.1074C125.588 11.8973 124.862 12.4239 124.137 12.4239C123.939 12.4239 123.873 12.4239 123.741 12.358ZM118.2 11.1733C117.276 10.9758 116.748 10.1201 116.946 9.1986C117.144 8.27709 118.002 7.75052 118.925 7.94798C119.783 8.14545 120.377 9.00113 120.179 9.92264C120.047 10.7125 119.321 11.2391 118.53 11.2391C118.398 11.2391 118.266 11.2391 118.2 11.1733ZM112.593 9.98846C111.735 9.791 111.141 8.93531 111.339 8.01381C111.537 7.15812 112.395 6.56573 113.318 6.76319C114.242 6.96066 114.77 7.81634 114.572 8.73785C114.374 9.52771 113.714 10.0543 112.922 10.0543C112.857 10.0543 112.725 10.0543 112.593 9.98846ZM108.569 8.40874C108.899 8.07963 109.03 7.6847 109.03 7.22395C109.03 6.76319 108.833 6.36826 108.569 6.03915C107.975 5.44676 106.854 5.44676 106.26 6.03915C105.93 6.36826 105.798 6.76319 105.798 7.22395C105.798 7.6847 105.996 8.07963 106.26 8.40874C106.59 8.73785 106.986 8.86949 107.447 8.86949C107.909 8.86949 108.239 8.67202 108.569 8.40874ZM104.677 4.92018C104.677 3.93285 103.885 3.20881 102.962 3.20881H97.2226C96.2331 3.20881 95.5075 3.99868 95.5075 4.92018V18.5453C95.5075 19.5326 96.2991 20.2567 97.2226 20.2567H102.962C103.951 20.2567 104.677 19.4668 104.677 18.5453V4.92018ZM101.642 7.15812C100.983 7.15812 100.521 6.63155 100.521 6.03915C100.521 5.38093 101.049 4.92018 101.642 4.92018C102.236 4.92018 102.764 5.44676 102.764 6.03915C102.764 6.63155 102.236 7.15812 101.642 7.15812ZM103.028 23.1528C100.521 21.1782 96.8928 21.6389 94.9138 24.206L83.4358 39.0817C83.4358 39.0817 55.1364 34.2109 54.6087 34.2767C46.9566 33.6843 39.7664 39.1475 38.3811 46.9803L24.0665 127.612L5.53012 154.27C2.82552 158.219 3.81501 163.551 7.64102 166.249C11.599 168.948 16.9422 167.961 19.6468 164.143L39.4365 136.037C40.1622 135.05 40.6899 133.799 40.8218 132.615L45.2415 107.471L60.2158 128.928L65.8888 160.852C66.7464 165.525 71.2321 168.619 75.9156 167.895C80.5992 167.039 83.6996 162.563 82.974 157.89L76.9051 124.123C76.7732 122.873 76.1795 121.754 75.5199 120.701L57.7091 95.2935L63.646 71.6635L68.1317 50.4689L57.3133 48.5601L57.5771 46.3879L66.3506 47.9677L68.3955 48.3626L84.7551 51.2587C85.0849 51.3246 85.4147 51.3246 85.7446 51.3246C87.5256 51.3246 89.2407 50.5347 90.2962 49.0866L104.017 31.2489C105.996 28.7477 105.534 25.1275 103.028 23.1528Z" fill="white"/>
</g>
<defs>
<filter id="filter0_d_397_3125" x="0" y="0" width="141" height="176" filterUnits="userSpaceOnUse" color-interpolation-filters="sRGB">
<feFlood flood-opacity="0" result="BackgroundImageFix"/>
<feColorMatrix in="SourceAlpha" type="matrix" values="0 0 0 0 0 0 0 0 0 0 0 0 0 0 0 0 0 0 127 0" result="hardAlpha"/>
<feOffset dy="4"/>
<feGaussianBlur stdDeviation="2"/>
<feComposite in2="hardAlpha" operator="out"/>
<feColorMatrix type="matrix" values="0 0 0 0 0 0 0 0 0 0 0 0 0 0 0 0 0 0 0.25 0"/>
<feBlend mode="normal" in2="BackgroundImageFix" result="effect1_dropShadow_397_3125"/>
<feBlend mode="normal" in="SourceGraphic" in2="effect1_dropShadow_397_3125" result="shape"/>
</filter>
</defs>
</svg>
