<svg width="313" height="313" viewBox="0 0 313 313" fill="none" xmlns="http://www.w3.org/2000/svg">
<path fill-rule="evenodd" clip-rule="evenodd" d="M282.843 156.077C282.843 86.0655 226.088 29.3104 156.077 29.3104C86.0655 29.3104 29.3104 86.0655 29.3104 156.077C29.3104 226.088 86.0655 282.843 156.077 282.843C226.088 282.843 282.843 226.088 282.843 156.077ZM212.92 122.522C215.633 118.508 214.995 113.007 211.254 109.733L210.284 108.985C206.269 106.272 200.768 106.909 197.494 110.651L137.159 179.607L115.122 150.226L114.327 149.293C110.961 145.808 105.447 145.293 101.47 148.276C97.1614 151.507 96.2882 157.619 99.5195 161.928L128.773 200.933L129.563 201.862C133.456 205.906 140.104 205.856 143.913 201.503L212.172 123.493L212.92 122.522Z" fill="#2DAD82"/>
</svg>
