<svg width="62" height="51" viewBox="0 0 62 51" fill="none" xmlns="http://www.w3.org/2000/svg">
<g clip-path="url(#clip0_299_2533)">
<path d="M55.4875 12.8225C55.525 13.365 55.525 13.9075 55.525 14.455C55.525 31.1375 42.825 50.3775 19.6025 50.3775V50.3675C12.7425 50.3775 6.025 48.4125 0.25 44.7075C1.2475 44.8275 2.25 44.8875 3.255 44.89C8.94 44.895 14.4625 42.9875 18.935 39.475C13.5325 39.3725 8.795 35.85 7.14 30.7075C9.0325 31.0725 10.9825 30.9975 12.84 30.49C6.95 29.3 2.7125 24.125 2.7125 18.115C2.7125 18.06 2.7125 18.0075 2.7125 17.955C4.4675 18.9325 6.4325 19.475 8.4425 19.535C2.895 15.8275 1.185 8.44755 4.535 2.67755C10.945 10.565 20.4025 15.36 30.555 15.8675C29.5375 11.4825 30.9275 6.88755 34.2075 3.80505C39.2925 -0.974954 47.29 -0.729954 52.07 4.35255C54.8975 3.79505 57.6075 2.75755 60.0875 1.28755C59.145 4.21005 57.1725 6.69255 54.5375 8.27005C57.04 7.97505 59.485 7.30505 61.7875 6.28255C60.0925 8.82255 57.9575 11.035 55.4875 12.8225Z" fill="white"/>
</g>
<defs>
<clipPath id="clip0_299_2533">
<rect width="62" height="51" fill="white"/>
</clipPath>
</defs>
</svg>
