<svg width="168" height="39" viewBox="0 0 168 39" fill="none" xmlns="http://www.w3.org/2000/svg">
<path d="M10.4436 31.836C12.0193 31.8327 13.595 31.8311 15.169 31.8278C16.2006 31.8719 20.0143 31.9127 23.258 29.155C27.4296 25.6081 27.2839 20.3015 27.2499 19.0524C27.0847 12.9989 23.5544 6.94221 15.1707 6.94221H7.22582V17.8635C3.12709 20.0487 1.04938 23.3641 0 26.1609V0H15.1707C28.4094 0 34.3105 9.49763 34.4757 19.1078C34.6409 28.9414 28.6831 38.8842 15.1707 38.8842H0C0.223479 37.6611 0.57975 36.2831 1.14978 34.822C2.79835 30.5982 5.42018 27.7754 7.22906 26.1593C7.15457 26.3892 6.56996 28.294 7.74565 30.0307C8.68653 31.4185 10.1197 31.7659 10.4436 31.836Z" fill="url(#paint0_linear_241_8229)"/>
<path d="M67.1284 13.3788C65.9236 11.8459 64.4904 10.6326 62.8256 9.74216C61.1609 8.85175 59.5139 8.40492 57.8864 8.40492C56.4694 8.40492 55.1415 8.68215 53.9027 9.23335C52.6622 9.78618 51.5837 10.5526 50.6622 11.5327C49.7408 12.5145 49.0331 13.6723 48.5375 15.0096C48.042 16.3468 47.7942 17.7998 47.7942 19.3686C47.7942 20.9374 48.042 22.3904 48.5375 23.7277C49.0331 25.0649 49.7408 26.2325 50.6622 27.2306C51.582 28.2286 52.6622 29.0049 53.9027 29.5577C55.1415 30.1105 56.4694 30.3861 57.8864 30.3861C59.4443 30.3861 61.0475 29.985 62.6928 29.1826C64.3398 28.3803 65.8167 27.3023 67.1284 25.9472L72.8126 31.9908C71.4668 33.4177 69.9446 34.6571 68.2442 35.709C66.5438 36.7608 64.7657 37.573 62.9066 38.1421C61.0475 38.7129 59.1965 38.9983 57.3569 38.9983C54.5585 38.9983 51.9739 38.5074 49.6015 37.5273C47.2291 36.5472 45.1659 35.1741 43.4137 33.408C41.6615 31.6435 40.2882 29.5756 39.2972 27.2029C38.3061 24.8317 37.8105 22.2551 37.8105 19.4746C37.8105 16.7284 38.3061 14.1893 39.2972 11.8524C40.2882 9.51711 41.6874 7.47537 43.4931 5.72718C45.2987 3.98062 47.4137 2.62545 49.8412 1.66166C52.2654 0.699504 54.8954 0.216797 57.7293 0.216797C59.5706 0.216797 61.4119 0.476087 63.2532 0.993043C65.0944 1.51 66.8288 2.25037 68.458 3.21253C70.0855 4.17469 71.5203 5.31623 72.7607 6.63553L67.1284 13.3788Z" fill="white"/>
<path d="M78.958 0.219971H109.337V8.18631H89.0113V15.5998H107.359V23.5107H89.0113V31.0335H109.886V38.9998H78.958V0.219971Z" fill="white"/>
<path d="M151.285 36.8422C154.541 39.073 160.785 39.6819 165.048 38.1597C164.464 32.9705 162.091 28.4684 158.559 25.7714C170.024 22.021 170.923 6.03043 159.627 1.10529C159.627 1.10529 158.129 0.477519 156.411 0.221563C154.68 -0.0343934 142.118 -0.117914 124.872 0.240425C123.585 0.286227 122.365 0.60146 121.274 1.13493C117.597 2.90776 115.417 7.16471 116.442 11.4136C116.602 12.106 117.306 13.7846 118.553 15.8888C118.558 15.8996 131.981 38.0627 131.981 38.0627H137.206L153.334 11.4783L141.706 11.4594L134.598 23.1714L126.756 10.2066L154.115 10.1904C154.396 10.1742 154.626 10.1823 154.795 10.1931C155.129 10.2254 155.194 10.2173 155.673 10.3952C156.7 10.7858 157.695 11.9039 157.677 13.3319C157.677 14.9161 156.521 16.3333 154.993 16.4411C154.851 16.46 151.855 16.4411 151.855 16.4411L147.643 23.387C148.042 24.3246 148.457 25.3376 149.102 26.2806C152.534 31.2839 156.764 34.6517 159.921 36.306C160.079 36.3895 155.884 35.1124 151.761 31.4348C150.081 29.9367 147.48 25.4562 146.98 24.1494C146.98 24.1441 144.802 32.3993 151.285 36.8422Z" fill="url(#paint1_linear_241_8229)"/>
<defs>
<linearGradient id="paint0_linear_241_8229" x1="34.8756" y1="-3.66223" x2="-1.49645" y2="32.4564" gradientUnits="userSpaceOnUse">
<stop offset="3.99584e-07" stop-color="#3BAF71"/>
<stop offset="1" stop-color="#15A99F"/>
</linearGradient>
<linearGradient id="paint1_linear_241_8229" x1="116.187" y1="19.4992" x2="167.644" y2="19.4992" gradientUnits="userSpaceOnUse">
<stop offset="3.99584e-07" stop-color="#38AE70"/>
<stop offset="1" stop-color="#13A89E"/>
</linearGradient>
</defs>
</svg>
