<svg width="430" height="45" viewBox="0 0 430 45" fill="none" xmlns="http://www.w3.org/2000/svg">
<g clip-path="url(#clip0_754_3420)">
<path d="M401.405 43.5149V13.3224H386.984L387.558 1.44336H429.386L430.001 13.3224H415.539V43.5149H401.405Z" fill="white"/>
<path d="M380.716 1.44336H366.582V43.5149H380.716V1.44336Z" fill="white"/>
<path d="M304.68 43.5149V1.44336H321.313L331.227 19.0969L340.854 1.44336H357.365V43.5149H343.722V19.8393H343.599L331.309 40.8751H330.571L318.404 19.8806H318.281V43.5149H304.68Z" fill="white"/>
<path d="M242.816 43.5149V1.44336H259.49L269.405 19.0969L278.991 1.44336H295.542V43.5149H281.859V19.8393H281.736L269.446 40.8751H268.749L256.541 19.8806H256.418V43.5149H242.816Z" fill="white"/>
<path d="M212.215 44.9997C198.982 44.9997 190.42 40.2564 190.42 26.8512V1.44336H204.554V25.6551C204.554 31.0171 207.954 32.5845 212.174 32.5845C216.476 32.5845 219.876 31.0996 219.876 25.7788V1.44336H234.01V26.81C234.051 40.2564 225.407 44.9997 212.215 44.9997Z" fill="white"/>
<path d="M163.626 44.7116C156.661 44.7116 150.966 43.433 144.248 40.9994V28.4192H144.289C151.827 32.1314 158.546 33.7813 164.527 33.7813C168.419 33.7813 170.303 32.9976 170.303 31.2652C170.303 29.5329 169.279 29.1204 160.635 27.718C149.655 26.0269 143.92 22.8097 143.92 14.2716C143.92 5.98109 151.335 0.289062 164.937 0.289062C170.426 0.289062 175.793 1.23773 181.406 3.34131V15.7153L181.365 15.839C176.285 13.0343 169.32 11.2194 163.994 11.2194C159.775 11.2194 158.095 12.0031 158.095 13.6942C158.095 15.6328 159.938 15.7978 167.722 17.1177C178.784 18.9325 184.355 21.9848 184.355 30.894C184.355 38.5659 178.046 44.7116 163.626 44.7116Z" fill="white"/>
<path d="M113.81 33.121C120.365 33.121 124.256 29.2026 124.256 22.4794C124.256 15.7562 120.365 11.8378 113.851 11.8378C107.296 11.8378 103.445 15.7562 103.445 22.4794C103.486 29.2026 107.337 33.121 113.81 33.121ZM113.81 44.9588C98.9383 44.9588 89.5156 36.3795 89.5156 22.4794C89.5156 8.57928 98.9792 0 113.81 0C128.722 0 138.145 8.57928 138.145 22.4794C138.145 36.3795 128.763 44.9588 113.81 44.9588Z" fill="white"/>
<path d="M67.5969 44.6704C52.1929 44.6704 43.4258 36.0911 43.4258 22.6035C43.4258 9.15707 52.9304 0.289062 67.8837 0.289062C74.9711 0.289062 80.1741 2.22765 83.9431 4.53746V17.5714H83.9022C79.0679 14.3129 74.7663 12.2093 69.2356 12.2093C62.312 12.2093 57.6417 16.0452 57.6417 22.4797C57.6417 28.9142 62.312 32.6264 69.1537 32.6264C74.8073 32.6264 79.3137 30.6465 83.9022 27.2231H83.9431V40.4632C80.7886 42.4843 75.0121 44.6704 67.5969 44.6704Z" fill="white"/>
<path d="M0 43.5149V1.44336H37.3218L37.8954 12.5799H14.0111V17.3645H32.5695V27.1812H14.0111V32.3783H38.5509L37.9773 43.5149H0Z" fill="white"/>
</g>
<defs>
<clipPath id="clip0_754_3420">
<rect width="430" height="45" fill="white"/>
</clipPath>
</defs>
</svg>
