<svg width="157" height="131" viewBox="0 0 157 131" fill="none" xmlns="http://www.w3.org/2000/svg">
<g clip-path="url(#clip0_754_3440)">
<mask id="mask0_754_3440" style="mask-type:luminance" maskUnits="userSpaceOnUse" x="0" y="0" width="157" height="131">
<path d="M157 0H0V131H157V0Z" fill="white"/>
</mask>
<g mask="url(#mask0_754_3440)">
<path d="M36.4501 81.6876C31.8291 81.6876 15.6411 81.5145 8.89315 81.4403L5.94231 81.4043C4.41051 81.3956 2.9449 80.7795 1.86788 79.6913C0.790857 78.6032 0.190655 77.1322 0.199311 75.602C0.207967 74.0718 0.824771 72.6077 1.91403 71.5318C3.0033 70.4559 4.47579 69.8563 6.00758 69.865H6.07736C6.36546 69.865 35.6758 70.0291 36.5559 70.0269H36.8057C38.5771 70.0561 40.6839 69.8402 41.2804 67.8975C41.8768 65.9548 40.2472 64.6012 38.7639 63.6254C38.6806 63.5737 38.6109 63.5265 38.5569 63.4882C37.8388 63.025 12.1366 45.9184 11.7314 45.6486C10.9638 45.1462 10.4273 44.3597 10.2401 43.4622C10.0529 42.5646 10.2303 41.6296 10.7332 40.8627C11.2361 40.0958 12.0234 39.5599 12.9219 39.3729C13.8204 39.1859 14.7564 39.363 15.5241 39.8655L17.0412 40.8526C18.1013 41.5496 42.874 57.8715 43.8396 58.573C45.1655 59.5094 46.3051 60.6844 47.2001 62.0379C47.964 63.2114 48.4613 64.5378 48.6568 65.9238C48.8523 67.3099 48.7413 68.7219 48.3317 70.0605C47.9221 71.3991 47.2238 72.6318 46.2859 73.6718C45.348 74.7117 44.1934 75.5337 42.9032 76.0798C41.4032 76.7024 39.8004 77.041 38.1765 77.0782C36.9813 77.1164 7.31081 76.8106 6.0481 76.7971C5.89646 76.7956 5.7466 76.7643 5.60708 76.705C5.46755 76.6457 5.34109 76.5595 5.23491 76.4513C5.12874 76.3432 5.04492 76.2152 4.98826 76.0747C4.9316 75.9341 4.9032 75.7839 4.90467 75.6324C4.90615 75.4809 4.93748 75.3312 4.99688 75.1918C5.05627 75.0524 5.14256 74.9261 5.25083 74.82C5.3591 74.714 5.48722 74.6303 5.62787 74.5736C5.76853 74.517 5.91897 74.4887 6.07061 74.4901C16.7485 74.6003 37.1838 74.8004 38.0999 74.7712C39.438 74.7437 40.7592 74.4676 41.9961 73.9573C42.9762 73.5424 43.8533 72.9179 44.5657 72.1279C45.2782 71.3379 45.8086 70.4015 46.1198 69.3846C46.4309 68.3678 46.5152 67.2951 46.3666 66.2422C46.218 65.1893 45.8402 64.1817 45.2598 63.2904C44.5183 62.1775 43.5774 61.2109 42.4846 60.4393C41.7463 59.9109 24.6917 48.6616 15.7762 42.7885L14.2614 41.8037C14.1353 41.7208 13.9942 41.6636 13.846 41.6353C13.6978 41.607 13.5454 41.6081 13.3977 41.6386C13.2499 41.6691 13.1096 41.7283 12.9847 41.813C12.8599 41.8976 12.753 42.006 12.67 42.132C12.5871 42.2579 12.5299 42.3989 12.5015 42.547C12.4732 42.695 12.4743 42.8472 12.5048 42.9948C12.5353 43.1424 12.5946 43.2826 12.6794 43.4073C12.7641 43.532 12.8726 43.6388 12.9987 43.7216C14.0656 44.4322 39.1083 61.1026 39.8556 61.6062L40.0244 61.7187C40.9669 62.2952 41.8099 63.0204 42.5206 63.866C43.0649 64.5091 43.439 65.2782 43.6087 66.1031C43.7783 66.928 43.7382 67.7823 43.4918 68.5876C43.2455 69.393 42.8008 70.1238 42.1986 70.713C41.5964 71.3023 40.8558 71.7312 40.0447 71.9606C38.9825 72.2645 37.878 72.3943 36.7742 72.3451H36.5716C35.6713 72.3451 7.27255 72.1899 6.0616 72.1832C5.15704 72.1646 4.28104 72.5 3.62071 73.1179C2.96037 73.7358 2.56803 74.587 2.52748 75.49C2.48693 76.3929 2.80138 77.2758 3.40368 77.9503C4.00598 78.6247 4.84839 79.0372 5.75099 79.0996H5.96482C6.25517 79.0996 35.0005 79.4301 37.4652 79.3739C42.3225 79.266 48.1972 78.1732 50.52 70.6047C52.8429 63.0363 48.5753 58.8496 44.6093 56.0479C42.5993 54.6246 18.583 38.8379 18.3421 38.6783C18.0901 38.5085 17.9152 38.2463 17.8555 37.9485C17.7957 37.6507 17.856 37.3414 18.0231 37.0877C18.1902 36.834 18.4507 36.6564 18.7481 36.5934C19.0455 36.5305 19.3558 36.5872 19.6116 36.7513C20.602 37.4034 43.9003 52.7157 45.9463 54.1637C48.3404 55.6984 50.3483 57.7635 51.8143 60.1987C52.7426 61.8775 53.3047 63.7335 53.4638 65.6448C53.6228 67.5561 53.3752 69.4794 52.7371 71.2883C52.2524 73.1438 51.3801 74.8758 50.1775 76.3706C48.9749 77.8653 47.4692 79.0888 45.7595 79.9608C43.182 81.1611 40.3623 81.7519 37.5192 81.6876C37.3166 81.6876 36.9498 81.6876 36.4456 81.6876" fill="white"/>
<path d="M59.0792 53.1558C57.3886 53.1566 55.7152 52.8171 54.1589 52.1574C51.5637 50.9949 49.2722 49.2497 47.4626 47.0578C46.0896 45.5401 33.7731 30.9878 28.9383 25.2698V25.2856L27.0273 23.0191C26.0394 21.8491 25.5571 20.3349 25.6867 18.8097C25.8163 17.2845 26.5471 15.8732 27.7183 14.8862C28.8896 13.8993 30.4053 13.4176 31.9321 13.547C33.4589 13.6765 34.8716 14.4065 35.8596 15.5765C36.0464 15.8014 55.084 38.0616 55.6669 38.7226L55.829 38.9115C56.9544 40.2606 58.5075 41.7221 60.3644 40.9014C62.2213 40.0807 62.1853 37.9649 61.94 36.2133C61.9265 36.1166 61.9152 36.0334 61.9085 35.966C61.8049 35.0935 57.9673 4.53414 57.8997 4.00124C57.7804 3.09301 58.027 2.17461 58.5855 1.44806C59.1439 0.721513 59.9684 0.246339 60.8776 0.127071C61.7868 0.00780283 62.7061 0.254211 63.4334 0.812088C64.1607 1.36997 64.6364 2.19361 64.7558 3.10184L64.9989 4.90064C65.1632 6.15755 68.9941 35.5522 69.0976 36.7417C69.255 38.3569 69.1092 39.9872 68.6677 41.549C68.2782 42.8933 67.5985 44.1361 66.6765 45.1899C65.7545 46.2437 64.6126 47.0829 63.3311 47.6485C62.0496 48.2141 60.6596 48.4924 59.2589 48.4638C57.8582 48.4351 56.4808 48.1003 55.2235 47.4828C53.7723 46.754 52.4688 45.7629 51.3791 44.5597C50.5688 43.6806 31.4007 21.0516 30.5859 20.0893C30.4879 19.9735 30.4137 19.8396 30.3675 19.6952C30.3213 19.5508 30.3041 19.3988 30.3167 19.2477C30.3294 19.0966 30.3717 18.9495 30.4412 18.8148C30.5108 18.6801 30.6062 18.5604 30.7221 18.4625C30.8379 18.3646 30.972 18.2905 31.1165 18.2443C31.2611 18.1982 31.4133 18.181 31.5645 18.1936C31.7157 18.2062 31.863 18.2485 31.9979 18.318C32.1327 18.3874 32.2526 18.4828 32.3506 18.5985C39.2471 26.7426 52.455 42.3202 53.0762 42.9925C53.972 43.9811 55.0435 44.7953 56.2364 45.3939C57.1908 45.8638 58.2366 46.119 59.3004 46.1417C60.3641 46.1645 61.4199 45.9541 62.3935 45.5254C63.3672 45.0968 64.235 44.4603 64.9359 43.6606C65.6368 42.861 66.1539 41.9176 66.4507 40.8969C66.8097 39.6089 66.9265 38.2656 66.795 36.9351C66.7163 36.0222 64.094 15.7766 62.7075 5.19969L62.4622 3.40089C62.4329 3.1756 62.3373 2.96407 62.1875 2.79314C62.0377 2.6222 61.8405 2.49957 61.6208 2.4408C61.4011 2.38202 61.1689 2.38975 60.9537 2.46301C60.7384 2.53626 60.5497 2.67174 60.4117 2.85226C60.3189 2.97155 60.2512 3.1083 60.2125 3.25433C60.1738 3.40036 60.165 3.55268 60.1866 3.70219C60.3464 4.97259 64.0963 34.808 64.1976 35.6939C64.1976 35.7501 64.2133 35.8175 64.2223 35.8962C64.4017 36.9854 64.4017 38.0966 64.2223 39.1858C64.0911 40.0179 63.753 40.8038 63.239 41.4715C62.7249 42.1392 62.0514 42.6674 61.2801 43.0077C60.5087 43.348 59.6642 43.4895 58.824 43.4193C57.9837 43.3491 57.1745 43.0694 56.4705 42.6058C55.5455 42.0021 54.7245 41.2526 54.0396 40.3865L53.9068 40.2314C53.3193 39.5568 34.8692 17.9824 34.0837 17.0718C33.4933 16.4208 32.6774 16.0181 31.801 15.9452C30.9247 15.8723 30.0534 16.1347 29.3633 16.6792C28.6732 17.2237 28.216 18.0097 28.084 18.8782C27.952 19.7467 28.1552 20.6329 28.6524 21.3574L28.7897 21.5193C28.9766 21.7442 47.5257 43.6828 49.1755 45.5108C50.3453 47.0599 51.8354 48.339 53.5443 49.2613C55.2533 50.1836 57.141 50.7273 59.0792 50.8555C60.9043 50.825 62.7027 50.4113 64.3574 49.6413C71.6006 46.4462 71.9899 40.4899 71.5195 35.6557C71.2809 33.207 67.5401 4.73425 67.504 4.44644C67.4706 4.14641 67.5563 3.84526 67.7427 3.60761C67.929 3.36997 68.2012 3.21477 68.5008 3.17534C68.8004 3.1359 69.1035 3.21537 69.3452 3.39668C69.5868 3.578 69.7476 3.84671 69.7931 4.14514C69.9462 5.32111 73.5768 32.9462 73.8176 35.4331C74.22 38.2458 73.9682 41.1134 73.0816 43.8132C72.4157 45.6102 71.3774 47.2464 70.0345 48.6146C68.6916 49.9828 67.0746 51.0522 65.2892 51.7527C63.3437 52.6477 61.2321 53.1256 59.0904 53.1558" fill="white"/>
<path d="M120.769 81.6878C120.264 81.6878 119.895 81.6878 119.695 81.6878C116.852 81.7523 114.032 81.1614 111.455 79.9609C109.747 79.0879 108.244 77.8641 107.043 76.3699C105.843 74.8757 104.972 73.1448 104.488 71.2907C103.852 69.4836 103.605 67.5624 103.763 65.6533C103.922 63.7441 104.483 61.8899 105.409 60.2123C106.874 57.7769 108.881 55.7117 111.275 54.1774C113.318 52.7338 136.614 37.417 137.609 36.765C137.865 36.6008 138.175 36.5441 138.473 36.6071C138.77 36.6701 139.031 36.8477 139.198 37.1014C139.365 37.3551 139.425 37.6644 139.365 37.9622C139.306 38.2599 139.131 38.5222 138.879 38.6919C138.638 38.8516 114.622 54.6383 112.612 56.0616C108.643 58.8655 104.385 63.0522 106.701 70.6184C109.017 78.1846 114.892 79.2752 119.756 79.3876C122.218 79.4415 150.966 79.1178 151.256 79.1133H151.47C152.371 79.0503 153.213 78.638 153.814 77.9644C154.416 77.2908 154.731 76.4091 154.691 75.5072C154.651 74.6053 154.261 73.7545 153.602 73.1361C152.944 72.5177 152.07 72.1807 151.166 72.1969C149.951 72.1969 121.543 72.361 120.649 72.3588H120.447C119.343 72.4088 118.238 72.2789 117.176 71.9743C116.365 71.7449 115.625 71.316 115.022 70.7267C114.42 70.1374 113.975 69.4067 113.729 68.6013C113.483 67.7959 113.443 66.9417 113.612 66.1168C113.782 65.2919 114.156 64.5227 114.7 63.8797C115.401 63.0325 116.234 62.3036 117.167 61.7211L117.336 61.6087C118.077 61.1072 143.128 44.4369 144.193 43.7241C144.32 43.6424 144.429 43.5361 144.515 43.4113C144.6 43.2865 144.659 43.1459 144.688 42.9978C144.751 42.6999 144.692 42.3894 144.526 42.1344C144.443 42.0082 144.337 41.8995 144.212 41.8145C144.087 41.7296 143.947 41.67 143.799 41.6393C143.651 41.6086 143.499 41.6073 143.35 41.6356C143.202 41.6638 143.061 41.721 142.935 41.8039L141.411 42.7932C132.502 48.6618 115.448 59.911 114.707 60.4462C113.614 61.2174 112.673 62.1841 111.932 63.2973C111.351 64.1885 110.973 65.1961 110.824 66.2491C110.675 67.3021 110.759 68.3749 111.071 69.3919C111.382 70.4089 111.912 71.3454 112.625 72.1354C113.338 72.9254 114.215 73.5496 115.196 73.9642C116.432 74.4747 117.754 74.7508 119.092 74.7781C120.008 74.8074 140.443 74.6073 151.121 74.4971C151.273 74.4956 151.423 74.524 151.564 74.5806C151.704 74.6372 151.833 74.7209 151.941 74.827C152.049 74.933 152.135 75.0594 152.195 75.1988C152.254 75.3381 152.285 75.4878 152.287 75.6393C152.288 75.7908 152.26 75.9411 152.203 76.0816C152.147 76.2221 152.063 76.3501 151.957 76.4582C151.851 76.5664 151.724 76.6526 151.585 76.7119C151.445 76.7713 151.295 76.8026 151.144 76.804C149.881 76.8153 120.21 77.1233 119.015 77.0851C117.391 77.0479 115.788 76.7094 114.288 76.0868C112.998 75.5409 111.843 74.7191 110.905 73.6792C109.967 72.6393 109.268 71.4066 108.859 70.0678C108.449 68.7291 108.338 67.3169 108.534 65.9308C108.73 64.5446 109.227 63.2182 109.992 62.0449C110.886 60.6913 112.026 59.5163 113.352 58.5799C114.32 57.8784 139.09 41.5588 140.137 40.864L141.663 39.8724C142.043 39.6236 142.468 39.452 142.914 39.3674C143.36 39.2828 143.819 39.2867 144.264 39.3791C144.708 39.4715 145.13 39.6505 145.506 39.9059C145.881 40.1612 146.203 40.4879 146.452 40.8674C146.701 41.2468 146.872 41.6715 146.957 42.1172C147.042 42.563 147.038 43.0211 146.945 43.4653C146.853 43.9095 146.674 44.3311 146.418 44.7062C146.163 45.0812 145.836 45.4023 145.456 45.651C145.051 45.9209 119.346 63.0252 118.619 63.5199C118.563 63.5581 118.493 63.6053 118.412 63.657C116.929 64.6217 115.299 65.9798 115.896 67.9292C116.492 69.8787 118.597 70.0878 120.368 70.0585H120.618C121.502 70.0585 150.81 69.8989 151.105 69.8966C151.864 69.8882 152.616 70.0291 153.32 70.3113C154.024 70.5935 154.666 71.0114 155.208 71.5412C155.75 72.071 156.183 72.7024 156.481 73.3992C156.779 74.0959 156.937 74.8445 156.945 75.6022C156.953 76.3599 156.812 77.1118 156.53 77.8151C156.247 78.5183 155.829 79.159 155.299 79.7008C154.768 80.2425 154.136 80.6745 153.439 80.9723C152.741 81.27 151.992 81.4275 151.234 81.436L148.283 81.4719C141.53 81.5439 125.349 81.7193 120.726 81.7193" fill="white"/>
<path d="M95.9165 53.1556C93.7748 53.1257 91.6631 52.6478 89.7177 51.7525C87.9339 51.0521 86.3182 49.9835 84.9762 48.6165C83.6342 47.2495 82.5961 45.615 81.9298 43.8198C81.0449 41.1196 80.7939 38.2523 81.196 35.4396C81.4369 32.9528 85.0675 5.32767 85.2205 4.15171C85.266 3.85327 85.4269 3.58456 85.6685 3.40325C85.9101 3.22193 86.2132 3.14247 86.5128 3.1819C86.8125 3.22133 87.0846 3.37653 87.271 3.61418C87.4574 3.85182 87.543 4.15298 87.5096 4.45301C87.4713 4.74082 83.7327 33.2136 83.4941 35.6622C83.0237 40.4965 83.4108 46.455 90.6563 49.6479C92.311 50.4179 94.1093 50.8316 95.9345 50.8621C97.8727 50.7342 99.7605 50.1906 101.47 49.2683C103.179 48.346 104.669 47.0667 105.838 45.5174C107.488 43.6916 126.035 21.7485 126.224 21.5259L126.361 21.364C126.932 20.6415 127.193 19.7221 127.085 18.8079C126.977 17.8937 126.51 17.0596 125.787 16.4892C125.064 15.9188 124.144 15.6588 123.228 15.7663C122.313 15.8739 121.478 16.3401 120.907 17.0626C120.117 17.989 101.665 39.5634 101.078 40.2357L100.947 40.3908C100.262 41.2569 99.4412 42.0064 98.5162 42.6101C97.812 43.0731 97.0029 43.3523 96.1628 43.4222C95.3227 43.4921 94.4785 43.3505 93.7073 43.0103C92.9362 42.6701 92.2628 42.1421 91.7486 41.4748C91.2345 40.8074 90.8961 40.0219 90.7643 39.1901C90.5863 38.1008 90.5863 36.9899 90.7643 35.9006C90.7643 35.8219 90.7846 35.7544 90.7891 35.6982C90.8926 34.81 94.6425 4.97466 94.8023 3.7065C94.8426 3.4048 94.7615 3.09945 94.5766 2.85747C94.3918 2.61549 94.1184 2.45667 93.8164 2.41586C93.6668 2.39547 93.5146 2.40483 93.3686 2.44342C93.2225 2.48201 93.0856 2.54906 92.9656 2.64071C92.7208 2.82453 92.5589 3.09784 92.5155 3.40071L92.2724 5.19951C90.8926 15.7675 88.2636 36.0152 88.1849 36.9281C88.0534 38.2587 88.1701 39.602 88.5292 40.89C88.826 41.9107 89.3431 42.854 90.044 43.6537C90.7449 44.4533 91.6127 45.0899 92.5864 45.5185C93.56 45.9472 94.6158 46.1575 95.6795 46.1348C96.7433 46.1121 97.7891 45.8568 98.7435 45.387C99.9389 44.7846 101.012 43.9657 101.908 42.9721C102.529 42.2975 115.737 26.7222 122.634 18.5781C122.732 18.4623 122.852 18.367 122.987 18.2975C123.121 18.2281 123.269 18.1858 123.42 18.1732C123.571 18.1605 123.723 18.1778 123.868 18.2239C124.012 18.2701 124.146 18.3442 124.262 18.4421C124.378 18.5399 124.474 18.6597 124.543 18.7944C124.613 18.9291 124.655 19.0762 124.668 19.2273C124.68 19.3783 124.663 19.5304 124.617 19.6748C124.571 19.8192 124.496 19.9531 124.398 20.0689C123.584 21.0312 104.416 43.6601 103.605 44.5393C102.516 45.7425 101.212 46.7336 99.7609 47.4624C98.5035 48.0799 97.1259 48.4147 95.725 48.4434C94.3242 48.472 92.934 48.1938 91.6523 47.6282C90.3707 47.0626 89.2286 46.2234 88.3064 45.1696C87.3842 44.1158 86.7043 42.873 86.3144 41.5286C85.8744 39.9665 85.7294 38.3363 85.8868 36.7213C85.9903 35.5318 89.8212 6.14163 89.9833 4.88697L90.2286 3.08817C90.3498 2.17994 90.8272 1.357 91.5558 0.800391C92.2843 0.243779 93.2044 -0.000913829 94.1136 0.120143C95.0227 0.2412 95.8465 0.71809 96.4037 1.4459C96.9609 2.17372 97.2058 3.09283 97.0847 4.00106C97.0171 4.5362 93.1772 35.0933 93.0759 35.9658C93.0759 36.0332 93.0579 36.1164 93.0444 36.2131C92.8058 37.9647 92.7698 40.0805 94.62 40.9012C96.4702 41.7219 98.021 40.2694 99.1554 38.9113C99.2169 38.8364 99.271 38.7734 99.3175 38.7224C99.8959 38.0479 118.933 15.7877 119.125 15.5629C120.115 14.4011 121.526 13.6785 123.049 13.5535C124.571 13.4284 126.081 13.9109 127.248 14.8955C128.415 15.88 129.145 17.2864 129.276 18.8067C129.408 20.3271 128.931 21.8376 127.95 23.0076L126.039 25.2741V25.2696C121.205 30.9853 108.888 45.5399 107.515 47.0576C105.71 49.2468 103.425 50.9917 100.837 52.1572C99.2805 52.8169 97.6071 53.1564 95.9165 53.1556Z" fill="white"/>
<path d="M12.163 131C10.5422 131.047 8.9291 130.76 7.42392 130.158C5.91874 129.556 4.55372 128.65 3.41372 127.498C2.27372 126.347 1.38313 124.973 0.797329 123.462C0.211526 121.952 -0.0569658 120.337 0.00855056 118.719V118.629C-0.069598 117.054 0.170705 115.479 0.715123 113.998C1.25954 112.518 2.09692 111.162 3.17729 110.012C4.25766 108.861 5.55889 107.94 7.00334 107.304C8.44779 106.667 10.0059 106.327 11.5846 106.305C13.0996 106.297 14.6005 106.596 15.9965 107.184C17.3926 107.772 18.6547 108.637 19.7067 109.726C20.7587 110.815 21.5786 112.106 22.117 113.521C22.6553 114.935 22.9008 116.444 22.8387 117.957C22.8472 118.296 22.7872 118.635 22.6622 118.951C22.5373 119.267 22.35 119.555 22.1115 119.797C21.873 120.04 21.5881 120.232 21.2737 120.362C20.9594 120.493 20.6221 120.558 20.2818 120.556H5.4263C5.57891 122.238 6.37085 123.798 7.63932 124.915C8.90779 126.032 10.5564 126.621 12.2463 126.562C14.3037 126.575 16.2962 125.843 17.8554 124.502C18.2403 124.168 18.737 123.992 19.2464 124.007C19.5338 124.005 19.8188 124.06 20.0842 124.17C20.3497 124.28 20.5902 124.443 20.7913 124.648C20.9924 124.853 21.15 125.097 21.2547 125.364C21.3594 125.631 21.4089 125.917 21.4005 126.204C21.3893 126.83 21.1312 127.426 20.6824 127.863C18.3546 129.973 15.3001 131.101 12.1585 131.011M17.5425 116.983C17.5655 115.362 16.9466 113.798 15.8206 112.631C14.6946 111.464 13.1526 110.789 11.5306 110.752C9.90602 110.819 8.36734 111.499 7.22605 112.656C6.08477 113.813 5.42615 115.359 5.38354 116.983H17.5425Z" fill="white"/>
<path d="M28.399 109.262C28.3915 108.904 28.4559 108.548 28.5886 108.215C28.7212 107.882 28.9193 107.58 29.1711 107.325C29.4229 107.07 29.7234 106.868 30.0547 106.731C30.3861 106.594 30.7415 106.525 31.1 106.528C31.4601 106.525 31.8171 106.595 32.1503 106.731C32.4834 106.868 32.7861 107.069 33.0407 107.323C33.2954 107.578 33.4969 107.88 33.6336 108.213C33.7703 108.546 33.8394 108.902 33.837 109.262V110.427C34.6085 109.158 35.6961 108.112 36.9937 107.389C38.2913 106.666 39.7544 106.292 41.24 106.303C46.579 106.303 49.6739 109.889 49.6739 115.358V127.997C49.6816 128.353 49.6169 128.707 49.4839 129.038C49.3509 129.369 49.1522 129.669 48.8999 129.922C48.6475 130.174 48.3467 130.372 48.0155 130.505C47.6844 130.638 47.3297 130.702 46.9729 130.695C46.6145 130.702 46.2583 130.637 45.9254 130.505C45.5924 130.372 45.2894 130.174 45.0343 129.923C44.7791 129.671 44.577 129.371 44.4399 129.04C44.3028 128.71 44.2334 128.355 44.2359 127.997V117.017C44.2359 113.341 42.397 111.234 39.167 111.234C38.415 111.219 37.6684 111.365 36.9776 111.662C36.2868 111.959 35.6676 112.401 35.1618 112.957C34.6561 113.513 34.2753 114.171 34.0453 114.887C33.8152 115.602 33.7411 116.358 33.828 117.105V127.997C33.828 128.716 33.542 129.405 33.033 129.914C32.5239 130.423 31.8335 130.708 31.1135 130.708C30.3936 130.708 29.7032 130.423 29.1941 129.914C28.685 129.405 28.399 128.716 28.399 127.997V109.262Z" fill="white"/>
<path d="M54.9131 118.764V118.674C54.8923 117.048 55.197 115.434 55.8091 113.927C56.4212 112.42 57.3284 111.051 58.4776 109.899C59.6267 108.747 60.9947 107.836 62.5011 107.219C64.0075 106.602 65.622 106.293 67.2499 106.308C70.2925 106.204 73.2604 107.261 75.551 109.265C75.816 109.502 76.0287 109.792 76.1755 110.116C76.3224 110.44 76.4002 110.791 76.404 111.147C76.4041 111.475 76.3388 111.799 76.212 112.102C76.0852 112.405 75.8994 112.679 75.6654 112.909C75.4314 113.139 75.1539 113.321 74.8491 113.443C74.5443 113.565 74.2182 113.625 73.8899 113.62C73.3087 113.615 72.744 113.427 72.276 113.082C70.9002 111.797 69.091 111.074 67.2071 111.059C66.2588 111.094 65.3271 111.318 64.4663 111.718C63.6056 112.117 62.8331 112.684 62.194 113.384C61.5549 114.085 61.062 114.906 60.744 115.799C60.426 116.693 60.2894 117.64 60.3421 118.587V118.677C60.2863 119.645 60.4278 120.614 60.7581 121.525C61.0883 122.437 61.6004 123.272 62.2634 123.98C62.9263 124.688 63.7262 125.255 64.6147 125.645C65.5032 126.035 66.4618 126.241 67.4322 126.25C69.3978 126.23 71.2852 125.478 72.7262 124.143C73.0615 123.843 73.478 123.648 73.9236 123.583C74.3692 123.518 74.8241 123.585 75.2313 123.777C75.6386 123.969 75.9801 124.277 76.2131 124.662C76.4461 125.047 76.5603 125.492 76.5413 125.942C76.5533 126.265 76.4907 126.587 76.3584 126.883C76.2261 127.178 76.0277 127.439 75.7783 127.646C74.6513 128.769 73.3049 129.648 71.8229 130.228C70.3409 130.809 68.7551 131.078 67.1644 131.019C65.5502 131.039 63.9483 130.737 62.453 130.129C60.9577 129.521 59.5994 128.621 58.458 127.48C57.3166 126.34 56.4153 124.983 55.8073 123.489C55.1993 121.995 54.8967 120.395 54.9176 118.782" fill="white"/>
<path d="M92.0185 131C90.3976 131.047 88.7843 130.761 87.279 130.159C85.7737 129.556 84.4085 128.651 83.2684 127.499C82.1284 126.347 81.2378 124.973 80.6521 123.463C80.0664 121.952 79.7982 120.337 79.864 118.719V118.629C79.7859 117.054 80.0262 115.479 80.5706 113.998C81.115 112.518 81.9524 111.162 83.0328 110.012C84.1131 108.861 85.4144 107.94 86.8588 107.304C88.3033 106.667 89.8613 106.327 91.4401 106.305C92.9551 106.297 94.456 106.596 95.852 107.184C97.248 107.772 98.5102 108.637 99.5622 109.726C100.614 110.815 101.434 112.106 101.972 113.521C102.511 114.935 102.756 116.444 102.694 117.957C102.703 118.297 102.643 118.635 102.518 118.951C102.394 119.267 102.206 119.555 101.968 119.798C101.729 120.041 101.444 120.233 101.13 120.363C100.815 120.493 100.478 120.559 100.137 120.556H85.2818C85.4344 122.238 86.2263 123.798 87.4948 124.915C88.7633 126.032 90.4119 126.621 92.1018 126.562C94.1592 126.575 96.1517 125.843 97.7109 124.502C98.0957 124.168 98.5924 123.992 99.1019 124.007C99.3891 124.005 99.6738 124.061 99.939 124.171C100.204 124.281 100.444 124.444 100.645 124.649C100.846 124.854 101.004 125.097 101.108 125.364C101.213 125.632 101.262 125.917 101.254 126.204C101.242 126.83 100.984 127.426 100.536 127.863C98.2078 129.973 95.1534 131.101 92.0118 131.011M97.3957 116.983C97.4187 115.362 96.7998 113.798 95.6738 112.631C94.5478 111.464 93.0059 110.789 91.3838 110.752C89.7594 110.819 88.221 111.5 87.0799 112.656C85.9387 113.813 85.2799 115.36 85.2367 116.983H97.3957Z" fill="white"/>
<path d="M117.142 130.909H116.875C116.176 130.883 115.502 130.64 114.948 130.214C114.393 129.789 113.984 129.202 113.777 128.535L105.882 110.472C105.703 110.043 105.597 109.587 105.566 109.123C105.602 108.477 105.865 107.864 106.31 107.392C106.754 106.921 107.35 106.621 107.994 106.546C108.638 106.471 109.288 106.625 109.828 106.982C110.369 107.339 110.767 107.875 110.95 108.496L117.061 124.188L123.253 108.411C123.426 107.867 123.766 107.393 124.226 107.055C124.685 106.716 125.24 106.532 125.81 106.529C126.157 106.52 126.501 106.581 126.823 106.708C127.145 106.835 127.438 107.026 127.685 107.268C127.932 107.511 128.127 107.8 128.26 108.12C128.393 108.439 128.46 108.782 128.457 109.128C128.443 109.579 128.336 110.022 128.142 110.43L120.246 128.537C120.032 129.2 119.622 129.782 119.068 130.206C118.515 130.631 117.846 130.876 117.149 130.911" fill="white"/>
<path d="M131.275 118.764V118.674C131.339 115.378 132.692 112.237 135.044 109.924C137.396 107.61 140.561 106.309 143.862 106.297C147.163 106.285 150.337 107.564 152.706 109.861C155.074 112.157 156.449 115.288 156.536 118.584V118.674C156.532 120.322 156.197 121.953 155.553 123.469C154.908 124.986 153.967 126.359 152.784 127.508C151.601 128.656 150.2 129.556 148.664 130.156C147.127 130.756 145.486 131.043 143.837 131.001C142.203 131.042 140.576 130.756 139.054 130.159C137.532 129.563 136.145 128.668 134.974 127.528C133.804 126.387 132.873 125.025 132.238 123.52C131.603 122.015 131.275 120.398 131.275 118.764ZM151.105 118.764V118.674C151.146 117.693 150.989 116.713 150.643 115.794C150.297 114.874 149.769 114.034 149.091 113.323C148.412 112.612 147.598 112.044 146.695 111.655C145.792 111.265 144.821 111.061 143.837 111.054C142.865 111.049 141.902 111.244 141.007 111.626C140.113 112.008 139.307 112.569 138.638 113.274C137.97 113.98 137.453 114.815 137.12 115.728C136.788 116.641 136.646 117.612 136.704 118.582V118.672C136.667 119.647 136.826 120.619 137.171 121.531C137.516 122.444 138.042 123.278 138.715 123.984C139.389 124.69 140.197 125.254 141.093 125.642C141.989 126.031 142.953 126.236 143.93 126.245C144.902 126.256 145.867 126.068 146.764 125.692C147.661 125.316 148.471 124.759 149.144 124.058C149.816 123.356 150.338 122.524 150.676 121.612C151.014 120.701 151.161 119.73 151.107 118.76" fill="white"/>
</g>
</g>
<defs>
<clipPath id="clip0_754_3440">
<rect width="157" height="131" fill="white"/>
</clipPath>
</defs>
</svg>
