<svg width="266" height="41" viewBox="0 0 266 41" fill="none" xmlns="http://www.w3.org/2000/svg">
<g clip-path="url(#clip0_754_3430)">
<path d="M29.1016 0.0449219V36.1052L2.31541 0.0449219H0V41H2.76941V4.89487L29.601 41H31.871V0.0449219H29.1016Z" fill="white"/>
<path d="M39.2715 0.0449219V41H64.287V38.6199H42.0409V22.1391H61.5176V19.7591H42.0409V2.42499H64.287V0.0449219H39.2715Z" fill="white"/>
<path d="M102.468 0.0449219L88.076 17.6484L73.6387 0.0449219H70.3245L86.3507 19.804L69.1895 41H72.5491L88.1214 22.0942L103.603 41H106.962L89.8012 19.804L105.782 0.0449219H102.468Z" fill="white"/>
<path d="M157.856 0L149.049 28.1566L140.559 1.34721H134.747L126.212 28.1566L117.405 0H109.777L122.716 40.9551H128.936L137.653 13.1577L146.37 40.9551H152.544L165.483 0H157.856Z" fill="white"/>
<path d="M180.603 7.63419L187.503 26.8992H173.611L180.603 7.63419ZM176.653 0.0449219L160.672 41H168.526L171.523 32.9617H189.728L192.861 41H200.579L184.507 0.0449219H176.653Z" fill="white"/>
<path d="M205.936 0.0449219V41H213.517V23.8905H230.361V17.9179H213.517V6.06245H232.858V0.0449219H205.936Z" fill="white"/>
<path d="M239.078 0.0449219V41H266V35.0274H246.66V23.8905H263.503V17.9179H246.66V6.06245H266V0.0449219H239.078Z" fill="white"/>
</g>
<defs>
<clipPath id="clip0_754_3430">
<rect width="266" height="41" fill="white"/>
</clipPath>
</defs>
</svg>
