<svg width="109" height="110" viewBox="0 0 109 110" fill="none" xmlns="http://www.w3.org/2000/svg">
<circle cx="54.5" cy="54.9121" r="54.5" fill="#2DAD82"/>
<path d="M21.3939 54.7412C21.3939 46.7628 24.2961 39.1306 29.6087 33.0324L23.7688 28.0394H35.0091C40.863 23.7014 47.6557 21.4121 54.6969 21.4121C62.0248 21.4121 69.2205 23.9567 75.1357 28.6087L79.8983 24.6028L80.2719 33.613C85.2602 39.636 88 47.1115 88 54.7412C88 61.362 85.9919 67.7536 82.175 73.3383L86.8961 77.2486L77.4623 78.8676C71.2212 84.7677 63.1622 88.0109 54.6968 88.0109C46.5896 88.0109 38.8488 85.0349 32.7251 79.5974L27.4705 83.3389L28.1765 74.6714C23.7977 68.8605 21.3939 61.8139 21.3939 54.7412ZM76.3281 32.7055L75.1277 33.7151L73.8686 32.6229C68.4358 27.9102 61.6271 25.3148 54.6969 25.3148C50.4965 25.3148 46.3904 26.2452 42.5683 28.0393H45.4306L44.6697 31.4043C47.8895 29.9662 51.2925 29.2175 54.6969 29.2175C60.2599 29.2175 65.6435 31.1218 70.266 34.7246L72.2622 36.2805L70.4611 37.6541L76.583 38.8538L76.3281 32.7055ZM77.8673 74.8384L76.834 73.9825L77.9727 72.4917C81.9794 67.2464 84.0973 61.1083 84.0973 54.7412C84.0973 49.9615 82.8718 45.2455 80.5782 41.0048L80.6872 43.6349L77.1727 42.9462C79.1402 46.6152 80.1946 50.677 80.1946 54.7412C80.1946 60.1656 78.3901 65.4306 74.9764 69.9669L73.6123 71.7796L72.4795 70.6244L72.1619 75.8175L77.8673 74.8384ZM73.1438 65.7276C75.2099 62.3387 76.2919 58.5816 76.2919 54.7412C76.2919 50.2235 74.7345 45.6949 71.8947 41.912L61.1923 39.8147L65.7558 36.3345C63.0286 34.6511 59.2865 33.1203 54.6969 33.1203C50.8736 33.1203 47.0314 34.2555 43.5381 36.4097L41.3432 46.1165L37.3072 42.1624C34.5831 45.8776 33.102 50.2749 33.102 54.7412C33.102 58.5301 34.2058 62.3334 36.2961 65.7813L47.2516 69.8552L42.9631 72.7144C46.4832 75.0427 50.5659 76.3028 54.6969 76.3028C59.7193 76.3028 64.6042 74.4718 68.5384 71.1333L69.1199 61.6239L73.1438 65.7276ZM33.086 74.5495L34.2528 75.6884C39.8152 81.118 47.0756 84.1082 54.6969 84.1082C59.7547 84.1082 64.6509 82.7913 68.9983 80.3203L67.9659 80.4975L68.2283 76.2054C64.1655 78.8052 59.4879 80.2055 54.6969 80.2055C48.7868 80.2055 42.9736 78.0401 38.3282 74.1081L36.3493 72.4332L38.726 70.8487L32.5896 68.5668L32.0418 75.2931L33.086 74.5495ZM29.1182 63.1121L30.9614 63.7975C29.8012 60.8726 29.1993 57.8078 29.1993 54.7412C29.1993 48.6606 31.499 42.7058 35.6747 37.9736L37.0349 36.432L39.0788 38.4347L40.5469 31.9421H34.3389L35.2755 32.743L33.8109 34.2346C28.3203 39.826 25.2966 47.1088 25.2966 54.7412C25.2966 59.4806 26.4614 64.0753 28.6983 68.2681L29.1182 63.1121Z" fill="white"/>
</svg>
