<svg width="109" height="110" viewBox="0 0 109 110" fill="none" xmlns="http://www.w3.org/2000/svg">
<circle cx="54.5" cy="54.9121" r="54.5" fill="#2DAD82"/>
<path d="M48.3513 53.9779H44.048C43.9694 53.4211 43.8089 52.9266 43.5666 52.4943C43.3242 52.0555 43.0131 51.6821 42.6332 51.3743C42.2533 51.0664 41.8145 50.8306 41.3167 50.6669C40.8255 50.5032 40.2917 50.4213 39.7153 50.4213C38.6738 50.4213 37.7667 50.68 36.9938 51.1974C36.2209 51.7083 35.6216 52.455 35.1959 53.4375C34.7701 54.4134 34.5572 55.599 34.5572 56.9941C34.5572 58.4285 34.7701 59.6337 35.1959 60.6096C35.6281 61.5855 36.2307 62.3224 37.0036 62.8202C37.7765 63.318 38.6706 63.5669 39.6858 63.5669C40.2556 63.5669 40.7829 63.4916 41.2676 63.3409C41.7588 63.1903 42.1944 62.9708 42.5743 62.6826C42.9542 62.3879 43.2686 62.0309 43.5175 61.6117C43.7729 61.1925 43.9498 60.7144 44.048 60.1773L48.3513 60.197C48.2399 61.1205 47.9616 62.0113 47.5162 62.8693C47.0773 63.7208 46.4846 64.4839 45.7379 65.1585C44.9977 65.8266 44.1135 66.3571 43.0852 66.7501C42.0634 67.1366 40.9073 67.3298 39.617 67.3298C37.8224 67.3298 36.2176 66.9237 34.8029 66.1115C33.3946 65.2993 32.2812 64.1236 31.4624 62.5844C30.6502 61.0452 30.2441 59.1817 30.2441 56.9941C30.2441 54.7999 30.6568 52.9332 31.4821 51.3939C32.3074 49.8547 33.4274 48.6823 34.8422 47.8767C36.2569 47.0645 37.8486 46.6584 39.617 46.6584C40.7829 46.6584 41.8636 46.8221 42.8592 47.1496C43.8613 47.4771 44.7488 47.9553 45.5217 48.584C46.2946 49.2063 46.9234 49.9693 47.4081 50.8732C47.8993 51.7771 48.2137 52.812 48.3513 53.9779ZM69.8922 56.9941C69.8922 59.1883 69.4763 61.055 68.6444 62.5942C67.8191 64.1334 66.6926 65.3091 65.2647 66.1213C63.8434 66.927 62.2452 67.3298 60.4702 67.3298C58.6821 67.3298 57.0773 66.9237 55.656 66.1115C54.2347 65.2993 53.1114 64.1236 52.2861 62.5844C51.4608 61.0452 51.0482 59.1817 51.0482 56.9941C51.0482 54.7999 51.4608 52.9332 52.2861 51.3939C53.1114 49.8547 54.2347 48.6823 55.656 47.8767C57.0773 47.0645 58.6821 46.6584 60.4702 46.6584C62.2452 46.6584 63.8434 47.0645 65.2647 47.8767C66.6926 48.6823 67.8191 49.8547 68.6444 51.3939C69.4763 52.9332 69.8922 54.7999 69.8922 56.9941ZM65.5791 56.9941C65.5791 55.5728 65.3662 54.3741 64.9405 53.3982C64.5213 52.4223 63.9285 51.6821 63.1622 51.1778C62.3958 50.6734 61.4985 50.4213 60.4702 50.4213C59.4419 50.4213 58.5445 50.6734 57.7782 51.1778C57.0119 51.6821 56.4158 52.4223 55.9901 53.3982C55.5709 54.3741 55.3613 55.5728 55.3613 56.9941C55.3613 58.4154 55.5709 59.614 55.9901 60.59C56.4158 61.5659 57.0119 62.306 57.7782 62.8104C58.5445 63.3147 59.4419 63.5669 60.4702 63.5669C61.4985 63.5669 62.3958 63.3147 63.1622 62.8104C63.9285 62.306 64.5213 61.5659 64.9405 60.59C65.3662 59.614 65.5791 58.4154 65.5791 56.9941ZM72.307 67.0547V65.1521L76.7525 61.0358C77.1306 60.6699 77.4477 60.3406 77.7038 60.0479C77.964 59.7552 78.1612 59.4686 78.2954 59.1881C78.4295 58.9035 78.4966 58.5965 78.4966 58.2672C78.4966 57.9013 78.4133 57.5863 78.2466 57.322C78.0799 57.0537 77.8522 56.8484 77.5636 56.7061C77.2749 56.5598 76.9477 56.4866 76.5818 56.4866C76.1996 56.4866 75.8663 56.5638 75.5817 56.7183C75.2971 56.8728 75.0776 57.0944 74.9231 57.383C74.7686 57.6717 74.6913 58.0152 74.6913 58.4136H72.185C72.185 57.5964 72.37 56.887 72.7399 56.2853C73.1099 55.6837 73.6282 55.2182 74.295 54.8889C74.9617 54.5596 75.7301 54.3949 76.6001 54.3949C77.4945 54.3949 78.273 54.5535 78.9357 54.8706C79.6024 55.1836 80.1207 55.6186 80.4907 56.1756C80.8607 56.7325 81.0456 57.3708 81.0456 58.0904C81.0456 58.562 80.9521 59.0275 80.7651 59.4869C80.5822 59.9463 80.2549 60.4565 79.7833 61.0175C79.3117 61.5745 78.647 62.2432 77.7892 63.0238L75.9659 64.8106V64.8959H81.2103V67.0547H72.307Z" fill="white"/>
<mask id="path-3-inside-1_754_3323" fill="white">
<path d="M85.5409 41.2089C83.1896 28.7175 72.3319 19.4121 59.3633 19.4121C49.2 19.4121 40.0034 25.1318 35.4757 34.124C23.1147 33.9057 13 43.7731 13 55.8867C13 67.9592 22.9577 77.7715 35.0469 77.7715H76.3848C87.2007 77.7715 96 69.0448 96 58.3184C96 51.2108 91.9317 44.617 85.5409 41.2089ZM76.3848 72.9082H35.0469C25.5719 72.9082 17.8633 65.2724 17.8633 55.8867C17.8633 45.9737 26.6044 38.0871 36.7526 39.064L38.5253 39.2345L39.223 37.5962C42.6691 29.5041 50.5745 24.2754 59.3633 24.2754C70.1915 24.2754 79.4673 32.4128 80.9394 43.2038L81.1892 45.0348L82.761 45.2491C87.8606 47.737 91.1367 52.8297 91.1367 58.3184C91.1367 66.3632 84.5191 72.9082 76.3848 72.9082Z"/>
</mask>
<path d="M85.5409 41.2089C83.1896 28.7175 72.3319 19.4121 59.3633 19.4121C49.2 19.4121 40.0034 25.1318 35.4757 34.124C23.1147 33.9057 13 43.7731 13 55.8867C13 67.9592 22.9577 77.7715 35.0469 77.7715H76.3848C87.2007 77.7715 96 69.0448 96 58.3184C96 51.2108 91.9317 44.617 85.5409 41.2089ZM76.3848 72.9082H35.0469C25.5719 72.9082 17.8633 65.2724 17.8633 55.8867C17.8633 45.9737 26.6044 38.0871 36.7526 39.064L38.5253 39.2345L39.223 37.5962C42.6691 29.5041 50.5745 24.2754 59.3633 24.2754C70.1915 24.2754 79.4673 32.4128 80.9394 43.2038L81.1892 45.0348L82.761 45.2491C87.8606 47.737 91.1367 52.8297 91.1367 58.3184C91.1367 66.3632 84.5191 72.9082 76.3848 72.9082Z" fill="white"/>
<path d="M85.5409 41.2089L63.0395 45.4443L65.0719 56.2419L74.7667 61.412L85.5409 41.2089ZM35.4757 34.124L35.0712 57.017L49.456 57.2711L55.9261 44.4211L35.4757 34.124ZM36.7526 39.064L34.5587 61.8552L34.5599 61.8553L36.7526 39.064ZM38.5253 39.2345L36.3326 62.0258L53.0215 63.6314L59.591 48.2061L38.5253 39.2345ZM39.223 37.5962L60.2887 46.5678L60.2889 46.5673L39.223 37.5962ZM80.9394 43.2038L58.253 46.2987L58.253 46.2988L80.9394 43.2038ZM81.1892 45.0348L58.5028 48.1299L60.8549 65.3707L78.096 67.7215L81.1892 45.0348ZM82.761 45.2491L92.8003 24.6708L89.4965 23.0591L85.8542 22.5624L82.761 45.2491ZM108.042 36.9734C103.699 13.9014 83.5877 -3.48445 59.3633 -3.48445V42.3087C61.076 42.3087 62.6798 43.5337 63.0395 45.4443L108.042 36.9734ZM59.3633 -3.48445C40.5125 -3.48445 23.4256 7.1434 15.0252 23.8269L55.9261 44.4211C56.5812 43.1202 57.8875 42.3087 59.3633 42.3087V-3.48445ZM35.8801 11.231C10.9847 10.7913 -9.89656 30.7037 -9.89656 55.8867H35.8966C35.8966 56.0735 35.8525 56.2878 35.7712 56.4748C35.6973 56.6447 35.6123 56.7499 35.5489 56.8114C35.4852 56.8733 35.4089 56.9248 35.3141 56.9631C35.2032 57.0078 35.1063 57.0176 35.0712 57.017L35.8801 11.231ZM-9.89656 55.8867C-9.89656 80.8125 10.5212 100.668 35.0469 100.668V54.8749C35.3022 54.8749 35.5077 54.9946 35.602 55.088C35.6531 55.1387 35.7248 55.2277 35.7883 55.3758C35.8591 55.541 35.8966 55.7289 35.8966 55.8867H-9.89656ZM35.0469 100.668H76.3848V54.8749H35.0469V100.668ZM76.3848 100.668C99.6667 100.668 118.897 81.8689 118.897 58.3184H73.1034C73.1034 56.2207 74.7347 54.8749 76.3848 54.8749V100.668ZM118.897 58.3184C118.897 42.4224 109.87 28.2342 96.3151 21.0057L74.7667 61.412C73.9938 60.9999 73.1034 59.9993 73.1034 58.3184H118.897ZM76.3848 50.0117H35.0469V95.8048H76.3848V50.0117ZM35.0469 50.0117C38.0122 50.0117 40.7598 52.4228 40.7598 55.8867H-5.03328C-5.03328 78.122 13.1316 95.8048 35.0469 95.8048V50.0117ZM40.7598 55.8867C40.7598 59.8375 37.5082 62.1391 34.5587 61.8552L38.9465 16.2728C15.7005 14.0351 -5.03328 32.1099 -5.03328 55.8867H40.7598ZM34.5599 61.8553L36.3326 62.0258L40.7179 16.4432L38.9452 16.2727L34.5599 61.8553ZM59.591 48.2061L60.2887 46.5678L18.1573 28.6247L17.4596 30.263L59.591 48.2061ZM60.2889 46.5673C60.1424 46.9112 59.762 47.1719 59.3633 47.1719V1.37883C41.387 1.37883 25.1958 12.0969 18.1571 28.6252L60.2889 46.5673ZM59.3633 47.1719C58.9623 47.1719 58.6817 47.0115 58.5602 46.9049C58.4399 46.7994 58.2926 46.5894 58.253 46.2987L103.626 40.1089C100.62 18.0747 81.7427 1.37883 59.3633 1.37883V47.1719ZM58.253 46.2988L58.5028 48.1299L103.876 41.9397L103.626 40.1087L58.253 46.2988ZM78.096 67.7215L79.6678 67.9358L85.8542 22.5624L84.2824 22.3481L78.096 67.7215ZM72.7218 65.8274C70.345 64.6679 68.2402 62.0091 68.2402 58.3184H114.033C114.033 43.6502 105.376 30.8061 92.8003 24.6708L72.7218 65.8274ZM68.2402 58.3184C68.2402 53.48 72.1128 50.0117 76.3848 50.0117V95.8048C96.9254 95.8048 114.033 79.2464 114.033 58.3184H68.2402Z" fill="white" mask="url(#path-3-inside-1_754_3323)"/>
</svg>
