<svg width="109" height="110" viewBox="0 0 109 110" fill="none" xmlns="http://www.w3.org/2000/svg">
<circle cx="54.5" cy="54.9121" r="54.5" fill="#2DAD82"/>
<path d="M62.3656 47.0399L62.2 47.9769L60.747 45.0709C58.5134 40.6036 52.1319 40.6043 49.8986 45.0709L47.0098 50.8484L50.6258 52.6565L53.5146 46.8787C54.2607 45.387 56.3835 45.3843 57.1309 46.8787L58.9213 50.4596L57.1095 50.3073L56.771 54.3361L65.0588 55.0327L66.347 47.7435L62.3656 47.0399Z" fill="white"/>
<path d="M70.3772 64.3291L67.3562 58.2871L63.7402 60.0953L66.7615 66.1372C67.4337 67.4819 66.456 69.0627 64.9533 69.0627H62.7421L64.0454 67.6607L61.0845 64.9079L54.9668 71.4879L63.0006 76.5887L65.1676 73.1755L65.0527 73.1024C69.5177 73.0309 72.3741 68.3223 70.3772 64.3291Z" fill="white"/>
<path d="M45.6913 69.0639C44.188 69.0639 43.2113 67.4823 43.8831 66.1384L45.478 62.9488L45.9948 64.7476L49.8806 63.6312L47.2348 54.4219L38.3828 59.2606L40.322 62.8082L41.2938 62.277L40.2671 64.3302C38.249 68.3662 41.1873 73.1069 45.6913 73.1069H51.2785V69.0639H45.6913Z" fill="white"/>
<path d="M68.2885 24.457L64.2455 20.4141H46.399L42.3561 24.457H25C25 25.3411 25 43.937 25 44.8066H29.2178L31.8542 73.9279C29.0116 75.1825 27.0215 78.0265 27.0215 81.3281C27.0215 85.7867 30.6488 89.4141 35.1074 89.4141H77.3837L81.4266 44.8066H85.6445C85.6445 43.9352 85.6445 25.3819 85.6445 24.457H68.2885ZM35.1074 85.3711C32.8781 85.3711 31.0645 83.5574 31.0645 81.3281C31.0645 79.0988 32.8781 77.2852 35.1074 77.2852C37.3367 77.2852 39.1504 79.0988 39.1504 81.3281C39.1504 83.5574 37.3367 85.3711 35.1074 85.3711ZM81.6016 40.7637H77.7335L73.6906 85.3711H42.1055C42.7959 84.1807 43.1934 82.8004 43.1934 81.3281C43.1934 77.1217 39.9642 73.6566 35.8548 73.278L32.9111 40.7637H29.043V36.7207H81.6016V40.7637ZM81.6016 32.6777H29.043V28.5H44.0307L48.0736 24.457H62.5709L66.6139 28.5H81.6016V32.6777Z" fill="white"/>
</svg>
