<svg width="109" height="110" viewBox="0 0 109 110" fill="none" xmlns="http://www.w3.org/2000/svg">
<circle cx="54.5" cy="54.9121" r="54.5" fill="#2DAD82"/>
<path d="M49.0082 14.0665C37.9345 16.3805 29.0204 25.2726 26.675 36.334C24.6874 45.7084 27.1367 55.1201 33.3951 62.1555C36.4542 65.5944 38.2085 70.1337 38.2085 74.6225C38.2085 76.3336 38.2085 83.8738 38.2085 85.13L44.0252 96.7637H66.5801L72.3968 85.13C72.3968 83.8665 72.3968 76.3295 72.3968 74.6225C72.3968 70.125 74.1569 65.6402 77.3528 61.994C82.0306 56.6573 84.607 49.8097 84.607 42.7131C84.6073 24.2473 67.7014 10.1609 49.0082 14.0665ZM63.5617 91.8796H47.0439L44.6018 86.9956H66.0036L63.5617 91.8796ZM67.5131 82.1114H43.0927V77.0646H67.5131V82.1114ZM52.8604 51.0509V59.9848C51.8723 59.2065 50.7722 58.2741 49.6722 57.2124C46.6704 54.3153 43.0922 49.8718 43.0922 45.1552C43.0922 37.5971 51.9655 30.8158 55.3045 28.5321C60.6691 32.1957 67.5126 38.6352 67.5126 45.1552C67.5126 51.257 61.7301 56.8516 57.7445 59.9832V51.0509H57.7448L64.3556 44.4399L60.9021 40.9863L55.3027 46.5856L49.7033 40.9865L46.2498 44.4401L52.8604 51.0509ZM73.6803 58.7747C70.2744 62.6604 68.1791 67.3458 67.6472 72.1804H57.7448V66.0271C61.4513 63.5507 72.3971 55.3721 72.3971 45.1551C72.3971 35.8535 63.3102 27.5544 55.3029 22.7747C47.2996 27.5519 38.2086 35.8534 38.2086 45.1551C38.2086 55.3723 49.1544 63.5509 52.8609 66.0271V72.1804H42.9587C42.4276 67.3434 40.3375 62.6118 37.0445 58.9094C31.8286 53.046 29.7904 45.1866 31.4529 37.347C33.3933 28.1953 40.8497 20.7609 50.0073 18.8474C65.642 15.5802 79.7234 27.324 79.7234 42.7131C79.7232 48.6249 77.5773 54.3289 73.6803 58.7747Z" fill="white"/>
</svg>
