<svg width="121" height="70" viewBox="0 0 121 70" fill="none" xmlns="http://www.w3.org/2000/svg">
<mask id="mask0_2005_7404" style="mask-type:alpha" maskUnits="userSpaceOnUse" x="0" y="0" width="121" height="70">
<rect x="0.0292969" width="120.971" height="70" fill="#D9D9D9"/>
</mask>
<g mask="url(#mask0_2005_7404)">
<path d="M96.1694 84.8725C106.628 61.2708 105.777 33.9701 104.885 23.3448C110.784 33.3592 109.579 64.4905 107.835 77.2887C118.844 80.2538 126.618 66.152 128.129 51.0908C129.637 36.0259 124.41 16.5797 101.038 0.15527C89.774 10.1586 79.6171 27.1641 76.1466 35.8218C82.3057 43.7128 88.0398 54.3688 88.0398 54.3688C88.0398 54.3688 80.9831 38.7517 77.6769 35.5617C65.1434 23.4835 31.0901 15.3851 0.0360702 27.3587C8.17884 58.4821 31.2428 117.776 85.3965 91.2946C75.5239 70.5211 41.2805 43.5791 26.0209 35.8218C52.8769 42.0052 86.3263 74.5653 96.1694 84.8725Z" fill="url(#paint0_linear_2005_7404)"/>
</g>
<defs>
<linearGradient id="paint0_linear_2005_7404" x1="67.5088" y1="97.7036" x2="62.4654" y2="2.31568" gradientUnits="userSpaceOnUse">
<stop offset="3.99584e-07" stop-color="#38AE70"/>
<stop offset="1" stop-color="#13A89E"/>
</linearGradient>
</defs>
</svg>
