<svg width="46" height="46" viewBox="0 0 46 46" fill="none" xmlns="http://www.w3.org/2000/svg">
<rect x="0.238281" y="0.384766" width="45.3377" height="45.3377" rx="20.1501" fill="#D9D9D9" fill-opacity="0.3"/>
<path d="M33.7284 20.1459C33.9023 20.0076 34.161 20.137 34.161 20.3555V29.4769C34.161 30.6589 33.202 31.6178 32.0201 31.6178H13.4652C12.2832 31.6178 11.3242 30.6589 11.3242 29.4769V20.36C11.3242 20.137 11.5785 20.0121 11.7569 20.1504C12.756 20.9265 14.0807 21.9122 18.6302 25.2173C19.5713 25.9042 21.1592 27.3493 22.7426 27.3404C24.3349 27.3538 25.954 25.8774 26.8595 25.2173C31.409 21.9122 32.7292 20.922 33.7284 20.1459ZM22.7426 25.9086C23.7774 25.9265 25.2671 24.6062 26.0165 24.0621C31.9353 19.7668 32.3858 19.3921 33.7507 18.3216C34.0094 18.1209 34.161 17.8087 34.161 17.4786V16.6312C34.161 15.4492 33.202 14.4902 32.0201 14.4902H13.4652C12.2832 14.4902 11.3242 15.4492 11.3242 16.6312V17.4786C11.3242 17.8087 11.4759 18.1165 11.7346 18.3216C13.0994 19.3877 13.5499 19.7668 19.4687 24.0621C20.2181 24.6062 21.7078 25.9265 22.7426 25.9086Z" fill="white"/>
</svg>
