<svg width="46" height="46" viewBox="0 0 46 46" fill="none" xmlns="http://www.w3.org/2000/svg">
<rect x="0.238281" y="0.371094" width="45.3377" height="45.3377" rx="20.1501" fill="#D9D9D9" fill-opacity="0.3"/>
<path d="M22.4664 33.1917C16.4621 24.4873 15.3477 23.594 15.3477 20.395C15.3477 16.0131 18.8999 12.4609 23.2818 12.4609C27.6637 12.4609 31.2159 16.0131 31.2159 20.395C31.2159 23.594 30.1014 24.4873 24.0972 33.1917C23.7031 33.7609 22.8603 33.7608 22.4664 33.1917ZM23.2818 23.7009C25.1076 23.7009 26.5876 22.2208 26.5876 20.395C26.5876 18.5692 25.1076 17.0892 23.2818 17.0892C21.456 17.0892 19.9759 18.5692 19.9759 20.395C19.9759 22.2208 21.456 23.7009 23.2818 23.7009Z" fill="white"/>
</svg>
