<svg width="46" height="47" viewBox="0 0 46 47" fill="none" xmlns="http://www.w3.org/2000/svg">
<rect x="0.238281" y="0.873047" width="45.3377" height="45.3377" rx="20.1501" fill="#D9D9D9" fill-opacity="0.3"/>
<path d="M23.7878 20.0151C24.4892 20.0151 25.1619 20.2937 25.6579 20.7897C26.1539 21.2857 26.4325 21.9584 26.4325 22.6598C26.4325 22.8936 26.5254 23.1178 26.6907 23.2832C26.856 23.4485 27.0803 23.5414 27.3141 23.5414C27.5479 23.5414 27.7721 23.4485 27.9374 23.2832C28.1028 23.1178 28.1957 22.8936 28.1957 22.6598C28.1957 21.4908 27.7313 20.3696 26.9046 19.543C26.078 18.7163 24.9568 18.252 23.7878 18.252C23.554 18.252 23.3298 18.3448 23.1645 18.5102C22.9991 18.6755 22.9062 18.8997 22.9062 19.1335C22.9062 19.3673 22.9991 19.5916 23.1645 19.7569C23.3298 19.9222 23.554 20.0151 23.7878 20.0151Z" fill="white"/>
<path d="M23.7878 16.4897C25.4245 16.4897 26.9941 17.1399 28.1514 18.2971C29.3086 19.4544 29.9588 21.024 29.9588 22.6607C29.9588 22.8945 30.0517 23.1187 30.217 23.284C30.3823 23.4494 30.6065 23.5422 30.8404 23.5422C31.0742 23.5422 31.2984 23.4494 31.4637 23.284C31.629 23.1187 31.7219 22.8945 31.7219 22.6607C31.7219 20.5564 30.886 18.5383 29.3981 17.0504C27.9101 15.5625 25.8921 14.7266 23.7878 14.7266C23.554 14.7266 23.3298 14.8194 23.1645 14.9848C22.9991 15.1501 22.9062 15.3743 22.9062 15.6081C22.9062 15.8419 22.9991 16.0662 23.1645 16.2315C23.3298 16.3968 23.554 16.4897 23.7878 16.4897Z" fill="white"/>
<path d="M31.5008 26.9892C31.4523 26.8476 31.3686 26.7208 31.2576 26.6205C31.1465 26.5203 31.0118 26.45 30.8661 26.4161L25.5767 25.2084C25.4331 25.1758 25.2836 25.1798 25.142 25.2198C25.0003 25.2598 24.8709 25.3347 24.7656 25.4376C24.1863 25.9756 23.4875 26.405 22.8321 25.963C21.8972 25.3326 21.093 24.5269 20.4644 23.5911C20.0188 22.9277 20.4868 22.2508 21.0101 21.6469C21.113 21.5416 21.1879 21.4122 21.2279 21.2705C21.268 21.1288 21.2719 20.9794 21.2394 20.8358L20.0316 15.6081C19.9978 15.4624 19.9275 15.3277 19.8272 15.2166C19.727 15.1056 19.6001 15.0219 19.4586 14.9734C19.2527 14.8999 19.0401 14.8467 18.8239 14.8147C18.601 14.7631 18.3737 14.7335 18.1451 14.7266C17.0695 14.7266 16.0381 15.1538 15.2776 15.9143C14.5171 16.6748 14.0898 17.7063 14.0898 18.7818C14.0945 22.381 15.5263 25.8314 18.0714 28.3764C20.6164 30.9214 24.0668 32.3532 27.666 32.3579C28.1985 32.3579 28.7258 32.253 29.2178 32.0492C29.7098 31.8454 30.1569 31.5467 30.5334 31.1702C30.91 30.7936 31.2087 30.3466 31.4125 29.8546C31.6163 29.3626 31.7212 28.8352 31.7212 28.3027C31.7215 28.0783 31.7038 27.8543 31.6683 27.6327C31.6312 27.4137 31.5752 27.1984 31.5008 26.9892Z" fill="white"/>
</svg>