<svg width="21" height="21" viewBox="0 0 21 21" fill="none" xmlns="http://www.w3.org/2000/svg">
<path d="M15.081 7.16464C15.081 5.85628 14.5613 4.6015 13.6361 3.67635C12.711 2.75119 11.4562 2.23145 10.1478 2.23145C8.83948 2.23145 7.5847 2.75119 6.65955 3.67635C5.73439 4.6015 5.21465 5.85628 5.21465 7.16464C5.21465 12.92 2.74805 14.5644 2.74805 14.5644H17.5476C17.5476 14.5644 15.081 12.92 15.081 7.16464Z" stroke="white" stroke-width="1.47996" stroke-linecap="round" stroke-linejoin="round"/>
<path d="M11.5714 17.8525C11.4268 18.1017 11.2193 18.3086 10.9697 18.4524C10.7201 18.5961 10.437 18.6718 10.149 18.6718C9.86089 18.6718 9.57786 18.5961 9.32823 18.4524C9.07859 18.3086 8.87111 18.1017 8.72656 17.8525" stroke="white" stroke-width="1.47996" stroke-linecap="round" stroke-linejoin="round"/>
</svg>
