<svg width="23" height="23" viewBox="0 0 23 23" fill="none" xmlns="http://www.w3.org/2000/svg">
<path d="M13.1825 3.56836H6.59275C6.15582 3.56836 5.73679 3.74162 5.42784 4.05003C5.11888 4.35844 4.94531 4.77673 4.94531 5.21288V18.3691C4.94531 18.8052 5.11888 19.2235 5.42784 19.5319C5.73679 19.8403 6.15582 20.0136 6.59275 20.0136H16.4774C16.9143 20.0136 17.3333 19.8403 17.6423 19.5319C17.9512 19.2235 18.1248 18.8052 18.1248 18.3691V8.50193L13.1825 3.56836Z" stroke="#888EA8" stroke-width="1.47996" stroke-linecap="round" stroke-linejoin="round"/>
<path d="M13.1816 3.56836V8.50193H18.1239" stroke="#888EA8" stroke-width="1.47996" stroke-linecap="round" stroke-linejoin="round"/>
<path d="M14.828 12.6133H8.23828" stroke="#888EA8" stroke-width="1.47996" stroke-linecap="round" stroke-linejoin="round"/>
<path d="M14.828 15.9023H8.23828" stroke="#888EA8" stroke-width="1.47996" stroke-linecap="round" stroke-linejoin="round"/>
<path d="M9.88572 9.32422H9.062H8.23828" stroke="#888EA8" stroke-width="1.47996" stroke-linecap="round" stroke-linejoin="round"/>
</svg>
