<svg width="22" height="23" viewBox="0 0 22 23" fill="none" xmlns="http://www.w3.org/2000/svg">
<g clip-path="url(#clip0_2052_6515)">
<path d="M13.3242 3.18555C14.5375 3.5931 15.6406 4.27375 16.5483 5.17487C17.5101 6.13679 18.2258 7.31568 18.635 8.61193" stroke="#888EA8" stroke-width="1.97328" stroke-linecap="round" stroke-linejoin="round"/>
<path d="M16.7461 7.74759L18.6346 8.62248L19.511 6.7373" stroke="#888EA8" stroke-width="1.97328" stroke-linecap="round" stroke-linejoin="round"/>
<path d="M2.66211 13.5273C3.0713 14.8236 3.78704 16.0025 4.74886 16.9644C5.65651 17.8655 6.75962 18.5462 7.97289 18.9537" stroke="#888EA8" stroke-width="1.97328" stroke-linecap="round" stroke-linejoin="round"/>
<path d="M4.53643 14.3915L2.64792 13.5166L1.77148 15.4018" stroke="#888EA8" stroke-width="1.97328" stroke-linecap="round" stroke-linejoin="round"/>
<path d="M5.42546 1.69629C4.60002 1.69629 3.79311 1.94063 3.10678 2.39841C2.42046 2.85619 1.88553 3.50685 1.56964 4.26811C1.25376 5.02937 1.17111 5.86704 1.33215 6.67519C1.49318 7.48334 1.89067 8.22567 2.47435 8.80831C3.05802 9.39096 3.80167 9.78774 4.61125 9.94849C5.42083 10.1092 6.25998 10.0267 7.02259 9.71142C7.7852 9.39609 8.43701 8.86211 8.8956 8.17699C9.35419 7.49188 9.59896 6.6864 9.59896 5.86242C9.59896 4.75749 9.15926 3.69782 8.37657 2.91652C7.59389 2.13522 6.53234 1.69629 5.42546 1.69629ZM15.8592 20.4439C16.6847 20.4439 17.4916 20.1995 18.1779 19.7417C18.8642 19.284 19.3992 18.6333 19.715 17.872C20.0309 17.1108 20.1136 16.2731 19.9525 15.465C19.7915 14.6568 19.394 13.9145 18.8103 13.3318C18.2267 12.7492 17.483 12.3524 16.6734 12.1917C15.8638 12.0309 15.0247 12.1134 14.2621 12.4287C13.4995 12.7441 12.8477 13.278 12.3891 13.9632C11.9305 14.6483 11.6857 15.4538 11.6857 16.2777C11.6857 17.3827 12.1254 18.4423 12.9081 19.2236C13.6908 20.0049 14.7523 20.4439 15.8592 20.4439Z" stroke="#888EA8" stroke-width="1.97328" stroke-linecap="round" stroke-linejoin="round"/>
</g>
<defs>
<clipPath id="clip0_2052_6515">
<rect width="21.7462" height="21.7077" fill="white" transform="translate(0.261719 0.708984)"/>
</clipPath>
</defs>
</svg>
