<svg width="21" height="21" viewBox="0 0 21 21" fill="none" xmlns="http://www.w3.org/2000/svg">
<path d="M9.60683 3.875H3.85143C3.41531 3.875 2.99705 4.04825 2.68866 4.35663C2.38028 4.66502 2.20703 5.08328 2.20703 5.5194V17.0302C2.20703 17.4663 2.38028 17.8846 2.68866 18.193C2.99705 18.5013 3.41531 18.6746 3.85143 18.6746H15.3622C15.7983 18.6746 16.2166 18.5013 16.525 18.193C16.8334 17.8846 17.0066 17.4663 17.0066 17.0302V11.2748" stroke="white" stroke-width="1.47996" stroke-linecap="round" stroke-linejoin="round"/>
<path d="M15.7737 2.64171C16.1008 2.31462 16.5444 2.13086 17.007 2.13086C17.4696 2.13086 17.9132 2.31462 18.2403 2.64171C18.5674 2.9688 18.7512 3.41243 18.7512 3.87501C18.7512 4.33758 18.5674 4.78122 18.2403 5.10831L10.4294 12.9192L7.14062 13.7414L7.96282 10.4526L15.7737 2.64171Z" stroke="white" stroke-width="1.47996" stroke-linecap="round" stroke-linejoin="round"/>
</svg>
