<svg width="19" height="19" viewBox="0 0 19 19" fill="none" xmlns="http://www.w3.org/2000/svg">
<path opacity="0.5" d="M2.26758 12.7993C2.26758 10.7063 2.26758 9.65978 2.91778 9.00958C3.56799 8.35938 4.61448 8.35938 6.70745 8.35938H12.6273C14.7203 8.35938 15.7668 8.35938 16.417 9.00958C17.0672 9.65978 17.0672 10.7063 17.0672 12.7993C17.0672 14.8922 17.0672 15.9387 16.417 16.5889C15.7668 17.2391 14.7203 17.2391 12.6273 17.2391H6.70745C4.61448 17.2391 3.56799 17.2391 2.91778 16.5889C2.26758 15.9387 2.26758 14.8922 2.26758 12.7993Z" fill="#888EA8"/>
<path d="M6.70678 13.5386C7.11546 13.5386 7.44676 13.2073 7.44676 12.7986C7.44676 12.3899 7.11546 12.0586 6.70678 12.0586C6.2981 12.0586 5.9668 12.3899 5.9668 12.7986C5.9668 13.2073 6.2981 13.5386 6.70678 13.5386Z" fill="#888EA8"/>
<path d="M9.66669 13.5386C10.0754 13.5386 10.4067 13.2073 10.4067 12.7986C10.4067 12.3899 10.0754 12.0586 9.66669 12.0586C9.25802 12.0586 8.92671 12.3899 8.92671 12.7986C8.92671 13.2073 9.25802 13.5386 9.66669 13.5386Z" fill="#888EA8"/>
<path d="M13.3666 12.7986C13.3666 13.2073 13.0353 13.5386 12.6266 13.5386C12.2179 13.5386 11.8866 13.2073 11.8866 12.7986C11.8866 12.3899 12.2179 12.0586 12.6266 12.0586C13.0353 12.0586 13.3666 12.3899 13.3666 12.7986Z" fill="#888EA8"/>
<path d="M5.78184 6.87963C5.78184 4.73406 7.52117 2.99473 9.66674 2.99473C11.8123 2.99473 13.5516 4.73406 13.5516 6.87963V8.36223C13.9715 8.36615 14.3386 8.37587 14.6616 8.39999V6.87963C14.6616 4.12104 12.4253 1.88477 9.66674 1.88477C6.90815 1.88477 4.67188 4.12104 4.67188 6.87963V8.39999C4.99488 8.37587 5.36201 8.36615 5.78184 8.36223V6.87963Z" fill="#888EA8"/>
</svg>
