<svg width="120" height="29" viewBox="0 0 120 29" fill="none" xmlns="http://www.w3.org/2000/svg">
<path d="M7.60286 23.3137C8.72107 23.3114 9.83928 23.3102 10.9563 23.3079C11.6884 23.3391 14.3949 23.368 16.6968 21.4145C19.6572 18.9018 19.5538 15.1426 19.5297 14.2576C19.4125 9.96931 16.9071 5.67868 10.9575 5.67868H5.31932V13.4154C2.41059 14.9635 0.936114 17.3121 0.191406 19.2934V0.760742H10.9575C20.3525 0.760742 24.5404 7.48896 24.6576 14.2969C24.7748 21.2631 20.5468 28.3067 10.9575 28.3067H0.191406C0.350001 27.4403 0.602834 26.4641 1.00737 25.429C2.17729 22.4369 4.03791 20.4371 5.32162 19.2922C5.26875 19.4551 4.85387 20.8045 5.68822 22.0348C6.35593 23.018 7.37301 23.264 7.60286 23.3137Z" fill="url(#paint0_linear_2052_6726)"/>
<path d="M47.8312 10.2391C46.9762 9.15318 45.9591 8.29367 44.7777 7.6629C43.5963 7.03213 42.4275 6.71559 41.2725 6.71559C40.2669 6.71559 39.3246 6.91198 38.4454 7.30246C37.5651 7.69409 36.7997 8.23706 36.1458 8.93137C35.4918 9.62684 34.9896 10.4471 34.638 11.3944C34.2863 12.3417 34.1105 13.371 34.1105 14.4824C34.1105 15.5937 34.2863 16.6231 34.638 17.5704C34.9896 18.5177 35.4918 19.3449 36.1458 20.0519C36.7985 20.7589 37.5651 21.3088 38.4454 21.7004C39.3246 22.0921 40.2669 22.2873 41.2725 22.2873C42.3781 22.2873 43.5158 22.0031 44.6835 21.4347C45.8523 20.8663 46.9004 20.1027 47.8312 19.1427L51.8651 23.4241C50.9101 24.4349 49.8298 25.3129 48.6231 26.0581C47.4164 26.8032 46.1545 27.3785 44.8352 27.7817C43.5158 28.1861 42.2023 28.3882 40.8967 28.3882C38.9108 28.3882 37.0767 28.0405 35.393 27.3462C33.7094 26.6519 32.2452 25.6791 31.0018 24.428C29.7583 23.178 28.7837 21.7131 28.0804 20.0322C27.3771 18.3525 27.0254 16.5272 27.0254 14.5575C27.0254 12.612 27.3771 10.8133 28.0804 9.1578C28.7837 7.50347 29.7767 6.05709 31.0581 4.81865C32.3395 3.58137 33.8404 2.62135 35.5631 1.9386C37.2835 1.25699 39.1499 0.915039 41.1611 0.915039C42.4677 0.915039 43.7744 1.09872 45.0811 1.46494C46.3878 1.83116 47.6186 2.35565 48.7748 3.03725C49.9298 3.71885 50.948 4.52753 51.8283 5.46213L47.8312 10.2391Z" fill="white"/>
<path d="M56.2266 0.916992H77.7852V6.56043H63.3611V11.8122H76.3819V17.4164H63.3611V22.7456H78.1748V28.389H56.2266V0.916992Z" fill="white"/>
<path d="M107.553 26.8601C109.864 28.4405 114.295 28.8718 117.32 27.7934C116.906 24.1174 115.222 20.928 112.716 19.0175C120.852 16.3606 121.49 5.03276 113.473 1.54374C113.473 1.54374 112.41 1.09902 111.191 0.9177C109.963 0.736378 101.048 0.677211 88.809 0.931062C87.8957 0.963509 87.0299 1.18682 86.2552 1.56474C83.6464 2.82063 82.0989 5.8363 82.8262 8.84625C82.9401 9.33677 83.4394 10.5259 84.3242 12.0165C84.328 12.0242 93.8539 27.7247 93.8539 27.7247H97.562L109.007 8.89206L100.756 8.8787L95.7108 17.1756L90.1457 7.99117L109.562 7.97972C109.761 7.96826 109.925 7.97399 110.044 7.98163C110.282 8.00453 110.327 7.9988 110.667 8.12478C111.396 8.40153 112.102 9.19362 112.089 10.2052C112.089 11.3275 111.269 12.3314 110.185 12.4078C110.084 12.4212 107.957 12.4078 107.957 12.4078L104.969 17.3283C105.252 17.9925 105.546 18.7102 106.004 19.3782C108.44 22.9226 111.442 25.3084 113.682 26.4803C113.794 26.5395 110.817 25.6348 107.891 23.0295C106.699 21.9682 104.853 18.7941 104.498 17.8685C104.498 17.8646 102.952 23.7128 107.553 26.8601Z" fill="url(#paint1_linear_2052_6726)"/>
<defs>
<linearGradient id="paint0_linear_2052_6726" x1="24.9414" y1="-1.83362" x2="-0.825222" y2="23.7988" gradientUnits="userSpaceOnUse">
<stop offset="3.99584e-07" stop-color="#3BAF71"/>
<stop offset="1" stop-color="#15A99F"/>
</linearGradient>
<linearGradient id="paint1_linear_2052_6726" x1="82.6453" y1="14.5742" x2="119.162" y2="14.5742" gradientUnits="userSpaceOnUse">
<stop offset="3.99584e-07" stop-color="#38AE70"/>
<stop offset="1" stop-color="#13A89E"/>
</linearGradient>
</defs>
</svg>
