<svg width="21" height="21" viewBox="0 0 21 21" fill="none" xmlns="http://www.w3.org/2000/svg">
<path d="M17.7488 10.5356C17.7516 11.6208 17.4981 12.6913 17.0088 13.66C16.4287 14.8207 15.5369 15.797 14.4332 16.4795C13.3296 17.162 12.0577 17.5238 10.7601 17.5243C9.67492 17.5271 8.6044 17.2736 7.63575 16.7843L2.94922 18.3465L4.5114 13.66C4.02213 12.6913 3.76859 11.6208 3.77142 10.5356C3.77192 9.23796 4.13369 7.9661 4.8162 6.86246C5.49872 5.75882 6.47502 4.86699 7.63575 4.28688C8.6044 3.79761 9.67492 3.54407 10.7601 3.5469H11.1712C12.885 3.64144 14.5036 4.36479 15.7173 5.57844C16.9309 6.79208 17.6543 8.41074 17.7488 10.1245V10.5356Z" stroke="white" stroke-width="1.47996" stroke-linecap="round" stroke-linejoin="round"/>
</svg>
