<svg width="23" height="22" viewBox="0 0 23 22" fill="none" xmlns="http://www.w3.org/2000/svg">
<g clip-path="url(#clip0_2052_6547)">
<g opacity="0.5">
<path fill-rule="evenodd" clip-rule="evenodd" d="M0.662109 5.03134C0.662109 4.59119 1.01956 4.23438 1.46048 4.23438H20.6214C21.0623 4.23438 21.4198 4.59119 21.4198 5.03134C21.4198 5.47148 21.0623 5.8283 20.6214 5.8283H1.46048C1.01956 5.8283 0.662109 5.47148 0.662109 5.03134ZM0.662109 9.2818C0.662109 8.84165 1.01956 8.48484 1.46048 8.48484H20.6214C21.0623 8.48484 21.4198 8.84165 21.4198 9.2818C21.4198 9.72193 21.0623 10.0788 20.6214 10.0788H1.46048C1.01956 10.0788 0.662109 9.72193 0.662109 9.2818ZM0.662109 13.5323C0.662109 13.0921 1.01956 12.7353 1.46048 12.7353H9.97646C10.4174 12.7353 10.7748 13.0921 10.7748 13.5323C10.7748 13.9724 10.4174 14.3292 9.97646 14.3292H1.46048C1.01956 14.3292 0.662109 13.9724 0.662109 13.5323ZM0.662109 17.7827C0.662109 17.3426 1.01956 16.9858 1.46048 16.9858H9.97646C10.4174 16.9858 10.7748 17.3426 10.7748 17.7827C10.7748 18.2229 10.4174 18.5797 9.97646 18.5797H1.46048C1.01956 18.5797 0.662109 18.2229 0.662109 17.7827Z" fill="#888EA8"/>
</g>
<path d="M18.3598 13.6587C20.1203 14.6734 21.0006 15.1807 21.1298 15.9127C21.1622 16.0958 21.1622 16.2832 21.1298 16.4663C21.0006 17.1982 20.1203 17.7055 18.3598 18.7202C16.5993 19.7348 15.719 20.2421 15.0194 19.9879C14.8443 19.9243 14.6819 19.8306 14.5391 19.7111C13.9688 19.2333 13.9688 18.2187 13.9688 16.1895C13.9688 14.1602 13.9688 13.1456 14.5391 12.6679C14.6819 12.5483 14.8443 12.4547 15.0194 12.391C15.719 12.1369 16.5993 12.6442 18.3598 13.6587Z" fill="#888EA8"/>
</g>
<defs>
<clipPath id="clip0_2052_6547">
<rect width="21.7462" height="21.7077" fill="white" transform="translate(0.664062 0.288086)"/>
</clipPath>
</defs>
</svg>
