<svg width="23" height="22" viewBox="0 0 23 22" fill="none" xmlns="http://www.w3.org/2000/svg">
<g clip-path="url(#clip0_2052_6523)">
<path d="M11.7809 3.82422H5.44198C4.96164 3.82422 4.50098 4.0147 4.16132 4.35375C3.82167 4.6928 3.63086 5.15265 3.63086 5.63214V18.2876C3.63086 18.7671 3.82167 19.2269 4.16132 19.566C4.50098 19.905 4.96164 20.0955 5.44198 20.0955H18.1198C18.6002 20.0955 19.0608 19.905 19.4005 19.566C19.7401 19.2269 19.931 18.7671 19.931 18.2876V11.9599" stroke="#888EA8" stroke-width="1.47996" stroke-linecap="round" stroke-linejoin="round"/>
<path d="M18.5728 2.4679C18.9331 2.10828 19.4217 1.90625 19.9312 1.90625C20.4407 1.90625 20.9293 2.10828 21.2895 2.4679C21.6498 2.82752 21.8522 3.31526 21.8522 3.82384C21.8522 4.33242 21.6498 4.82016 21.2895 5.17978L12.6867 13.7674L9.06445 14.6714L9.97001 11.0555L18.5728 2.4679Z" stroke="#888EA8" stroke-width="1.47996" stroke-linecap="round" stroke-linejoin="round"/>
</g>
<defs>
<clipPath id="clip0_2052_6523">
<rect width="21.7462" height="21.7077" fill="white" transform="translate(0.666016 0.196289)"/>
</clipPath>
</defs>
</svg>
