<svg width="23" height="23" viewBox="0 0 23 23" fill="none" xmlns="http://www.w3.org/2000/svg">
<g clip-path="url(#clip0_2052_6509)">
<path fill-rule="evenodd" clip-rule="evenodd" d="M3.19527 0.519531C2.67969 0.519531 2.26172 0.921142 2.26172 1.41654V19.3568C2.26172 19.8522 2.67969 20.2538 3.19527 20.2538C3.71084 20.2538 4.12881 19.8522 4.12881 19.3568V11.8204C4.56386 11.6123 5.25162 11.3222 5.98891 11.1451C7.31138 10.8275 8.3727 10.9447 8.95338 11.7815C10.0372 13.3436 12.1071 13.4812 13.7001 13.3287C15.3811 13.1678 17.0442 12.6388 17.885 12.34C18.6237 12.0775 19.0656 11.4035 19.0656 10.6924V4.75646C19.0656 3.36483 17.5325 2.55238 16.3106 3.08482C15.3197 3.51661 14.0033 3.99882 12.8137 4.15809C11.5691 4.32472 10.8462 4.09924 10.5068 3.61014C9.28208 1.84498 7.18672 1.63601 5.68498 1.75625C5.10848 1.80242 4.5728 1.89928 4.12881 2.00184V1.41654C4.12881 0.921142 3.71084 0.519531 3.19527 0.519531ZM4.12881 3.85738V9.85268C4.54035 9.69122 5.02143 9.52823 5.53611 9.40462C7.01428 9.04959 9.22038 8.93235 10.5068 10.7863C10.9536 11.4303 11.9832 11.6901 13.515 11.5436C14.9354 11.4076 16.3977 10.9537 17.1985 10.6712V4.75646C17.1985 4.7157 17.1127 4.7052 17.0818 4.71868C16.0385 5.17327 14.5282 5.7399 13.0714 5.93494C11.6696 6.12262 9.92651 6.00791 8.95338 4.60532C8.311 3.67956 7.13894 3.44008 5.84004 3.54408C5.17817 3.59708 4.56223 3.73645 4.12881 3.85738Z" fill="#888EA8"/>
</g>
<defs>
<clipPath id="clip0_2052_6509">
<rect width="21.7462" height="21.7077" fill="white" transform="translate(0.285156 0.519531)"/>
</clipPath>
</defs>
</svg>
