<svg width="100" height="100" viewBox="0 0 100 100" fill="none" xmlns="http://www.w3.org/2000/svg">
<path d="M85.9375 18.75H73.4375V12.5C75.1634 12.5 76.5625 11.1009 76.5625 9.375C76.5625 7.64906 75.1634 6.25 73.4375 6.25H26.5625C24.8366 6.25 23.4375 7.64906 23.4375 9.375C23.4375 11.1009 24.8366 12.5 26.5625 12.5V18.75H14.0625C12.3438 18.75 10.9375 20.1562 10.9375 21.875V25C10.9375 36.0156 18.4375 45.625 29.125 48.2969L30.2656 48.5781H30.2812C33.6089 53.7806 38.952 57.577 45.2164 58.89C44.9183 63.362 43.8723 67.7531 42.1081 71.875H34.375C32.6562 71.875 31.25 73.2812 31.25 75V87.5C29.5241 87.5 28.125 88.8991 28.125 90.625V93.75H71.875V90.625C71.875 88.8991 70.4759 87.5 68.75 87.5V75C68.75 73.2812 67.3438 71.875 65.625 71.875H57.8919C56.1278 67.7531 55.0817 63.362 54.7836 58.89C61.048 57.577 66.3911 53.7806 69.7188 48.5781H69.7344L70.875 48.2969C81.5625 45.625 89.0625 36.0156 89.0625 25V21.875C89.0625 20.1562 87.6562 18.75 85.9375 18.75ZM57.8125 79.6875C57.8125 80.5469 57.1094 81.25 56.25 81.25H43.75C42.8906 81.25 42.1875 80.5469 42.1875 79.6875C42.1875 78.8281 42.8906 78.125 43.75 78.125H56.25C57.1094 78.125 57.8125 78.8281 57.8125 79.6875ZM17.1875 25H26.5625V35.9375C26.5625 37.6562 26.75 39.3125 27.0938 40.9219C21.125 38 17.1875 31.875 17.1875 25ZM55.7969 41.7344L50 38.6875L44.2031 41.7344L45.3125 35.2812L40.625 30.7031L47.1094 29.7656L50 23.8906L52.8906 29.7656L59.375 30.7031L54.6875 35.2812L55.7969 41.7344ZM72.9062 40.9219C73.25 39.3125 73.4375 37.6562 73.4375 35.9375V25H82.8125C82.8125 31.875 78.875 38 72.9062 40.9219Z" fill="#FECA45"/>
</svg>
