<svg width="80" height="80" viewBox="0 0 80 80" fill="none" xmlns="http://www.w3.org/2000/svg">
<path d="M11.0719 0.488805L40.6286 34.3025C40.4286 34.2882 40.2143 34.2882 40 34.2882C37.8302 34.2882 35.6914 34.5872 33.627 35.1469L5.68786 3.71561L8.98623 0.417377C9.27194 0.145953 9.65765 -0.0254723 10.0434 0.00309863C10.4434 0.0173841 10.8148 0.18881 11.0719 0.488805ZM0.414948 8.98866C-0.113614 9.51723 -0.142185 10.3744 0.357806 10.9458L25.1431 39.3739C25.6717 38.9596 26.2288 38.5596 26.8002 38.1882C28.0386 37.382 29.3466 36.7112 30.6969 36.1505L3.66447 5.73915L0.414948 8.98866ZM71.0138 0.417377C70.7281 0.145953 70.3423 -0.0111868 69.9424 0.00309863C69.5566 0.0173841 69.1709 0.203095 68.9138 0.50309L59.0711 11.9172L41.8285 31.3454L43.1428 32.8454L44.7142 34.7454C45.599 34.9174 46.4626 35.1535 47.3147 35.4228L74.3189 3.72247L71.0138 0.417377ZM79.5851 8.98866L76.3462 5.74986L50.1288 36.5269C51.169 37.0085 52.1899 37.5412 53.1712 38.1739C53.7426 38.5453 54.2998 38.931 54.8426 39.3596L79.6422 10.9458C80.1422 10.3744 80.1136 9.53151 79.5851 8.98866ZM60.6439 5.71729L65.5724 0.00309863H14.4439L19.4378 5.71729H60.6439ZM53.1456 14.2886L56.936 10.0162L58.1797 8.57438H21.9349L26.9288 14.2886H53.1456ZM49.9998 58.5735C49.9998 64.0876 45.5133 68.5734 40 68.5734C34.4867 68.5734 30.0002 64.0876 30.0002 58.5735C30.0002 53.0595 34.4867 48.5737 40 48.5737C45.5133 48.5737 49.9998 53.0595 49.9998 58.5735ZM51.6209 40.5766C48.8754 38.793 45.8398 37.6902 42.6061 37.2996C41.7801 37.1956 40.9277 37.1453 40 37.1453C35.8552 37.1453 31.8263 38.336 28.3498 40.5897C22.2269 44.5663 18.5718 51.2892 18.5718 58.5735C18.5718 70.3891 28.1838 80.0018 40 80.0018C51.8162 80.0018 61.4282 70.3891 61.4282 58.5735C61.4282 51.2648 57.7606 44.5356 51.6209 40.5766ZM40 71.4305C32.9103 71.4305 27.1431 65.6626 27.1431 58.5735C27.1431 51.4845 32.9103 45.7166 40 45.7166C47.0897 45.7166 52.8569 51.4845 52.8569 58.5735C52.8569 65.6626 47.0897 71.4305 40 71.4305Z" fill="#A3A3A3"/>
<path d="M34.78 63.26C35.2333 62.9 35.44 62.7333 35.4 62.76C36.7067 61.68 37.7333 60.7933 38.48 60.1C39.24 59.4067 39.88 58.68 40.4 57.92C40.92 57.16 41.18 56.42 41.18 55.7C41.18 55.1533 41.0533 54.7267 40.8 54.42C40.5467 54.1133 40.1667 53.96 39.66 53.96C39.1533 53.96 38.7533 54.1533 38.46 54.54C38.18 54.9133 38.04 55.4467 38.04 56.14H34.74C34.7667 55.0067 35.0067 54.06 35.46 53.3C35.9267 52.54 36.5333 51.98 37.28 51.62C38.04 51.26 38.88 51.08 39.8 51.08C41.3867 51.08 42.58 51.4867 43.38 52.3C44.1933 53.1133 44.6 54.1733 44.6 55.48C44.6 56.9067 44.1133 58.2333 43.14 59.46C42.1667 60.6733 40.9267 61.86 39.42 63.02H44.82V65.8H34.78V63.26Z" fill="white"/>
</svg>
