<svg width="80" height="80" viewBox="0 0 80 80" fill="none" xmlns="http://www.w3.org/2000/svg">
<path d="M11.0719 0.488805L40.6286 34.3025C40.4286 34.2882 40.2143 34.2882 40 34.2882C37.8302 34.2882 35.6914 34.5872 33.627 35.1469L5.68786 3.71561L8.98623 0.417377C9.27194 0.145953 9.65765 -0.0254723 10.0434 0.00309863C10.4434 0.0173841 10.8148 0.18881 11.0719 0.488805ZM0.414948 8.98866C-0.113614 9.51723 -0.142185 10.3744 0.357806 10.9458L25.1431 39.3739C25.6717 38.9596 26.2288 38.5596 26.8002 38.1882C28.0386 37.382 29.3466 36.7112 30.6969 36.1505L3.66447 5.73915L0.414948 8.98866ZM71.0138 0.417377C70.7281 0.145953 70.3423 -0.0111868 69.9424 0.00309863C69.5566 0.0173841 69.1709 0.203095 68.9138 0.50309L59.0711 11.9172L41.8285 31.3454L43.1428 32.8454L44.7142 34.7454C45.599 34.9174 46.4626 35.1535 47.3147 35.4228L74.3189 3.72247L71.0138 0.417377ZM79.5851 8.98866L76.3462 5.74986L50.1288 36.5269C51.169 37.0085 52.1899 37.5412 53.1712 38.1739C53.7426 38.5453 54.2998 38.931 54.8426 39.3596L79.6422 10.9458C80.1422 10.3744 80.1136 9.53151 79.5851 8.98866ZM60.6439 5.71729L65.5724 0.00309863H14.4439L19.4378 5.71729H60.6439ZM53.1456 14.2886L56.936 10.0162L58.1797 8.57438H21.9349L26.9288 14.2886H53.1456ZM49.9998 58.5735C49.9998 64.0876 45.5133 68.5734 40 68.5734C34.4867 68.5734 30.0002 64.0876 30.0002 58.5735C30.0002 53.0595 34.4867 48.5737 40 48.5737C45.5133 48.5737 49.9998 53.0595 49.9998 58.5735ZM51.6209 40.5766C48.8754 38.793 45.8398 37.6902 42.6061 37.2996C41.7801 37.1956 40.9277 37.1453 40 37.1453C35.8552 37.1453 31.8263 38.336 28.3498 40.5897C22.2269 44.5663 18.5718 51.2892 18.5718 58.5735C18.5718 70.3891 28.1838 80.0018 40 80.0018C51.8162 80.0018 61.4282 70.3891 61.4282 58.5735C61.4282 51.2648 57.7606 44.5356 51.6209 40.5766ZM40 71.4305C32.9103 71.4305 27.1431 65.6626 27.1431 58.5735C27.1431 51.4845 32.9103 45.7166 40 45.7166C47.0897 45.7166 52.8569 51.4845 52.8569 58.5735C52.8569 65.6626 47.0897 71.4305 40 71.4305Z" fill="#775C4D"/>
<path d="M35.02 55.52C35.0733 54.0933 35.54 52.9933 36.42 52.22C37.3 51.4467 38.4933 51.06 40 51.06C41 51.06 41.8533 51.2333 42.56 51.58C43.28 51.9267 43.82 52.4 44.18 53C44.5533 53.6 44.74 54.2733 44.74 55.02C44.74 55.9 44.52 56.62 44.08 57.18C43.64 57.7267 43.1267 58.1 42.54 58.3V58.38C43.3 58.6333 43.9 59.0533 44.34 59.64C44.78 60.2267 45 60.98 45 61.9C45 62.7267 44.8067 63.46 44.42 64.1C44.0467 64.7267 43.4933 65.22 42.76 65.58C42.04 65.94 41.18 66.12 40.18 66.12C38.58 66.12 37.3 65.7267 36.34 64.94C35.3933 64.1533 34.8933 62.9667 34.84 61.38H38.16C38.1733 61.9667 38.34 62.4333 38.66 62.78C38.98 63.1133 39.4467 63.28 40.06 63.28C40.58 63.28 40.98 63.1333 41.26 62.84C41.5533 62.5333 41.7 62.1333 41.7 61.64C41.7 61 41.4933 60.54 41.08 60.26C40.68 59.9667 40.0333 59.82 39.14 59.82H38.5V57.04H39.14C39.82 57.04 40.3667 56.9267 40.78 56.7C41.2067 56.46 41.42 56.04 41.42 55.44C41.42 54.96 41.2867 54.5867 41.02 54.32C40.7533 54.0533 40.3867 53.92 39.92 53.92C39.4133 53.92 39.0333 54.0733 38.78 54.38C38.54 54.6867 38.4 55.0667 38.36 55.52H35.02Z" fill="white"/>
</svg>
